{
copyright = "GPL version 2 or any later version with font exception (http://www.gnu.org/licenses/gpl-faq.html#FontException)";
customParameters = (
{
name = glyphOrder;
value = (
    ".notdef",
    uniF100,
    uniF101,
    uniF102,
    uniF103,
    uniF104,
    uniF105,
    uniF106,
    uniF107,
    uniF108,
    uniF109,
    uniF200,
    uniF201,
    uniF202,
    uniF203,
    uniF204,
    uniF205,
    uniF206,
    uniF207,
    uniF208,
    uniF209,
    uniF210,
    uniF211,
    uniF212,
    uniF213,
    uniF214,
    uniF215,
    uniF216,
    uniF217,
    uniF218,
    uniF219,
    uniF220,
    uniF221,
    uniF222,
    uniF223,
    uniF224,
    uniF299,
    uniF300,
    uniF301,
    uniF302,
    uniF303,
    uniF304,
    uniF305,
    uniF306,
    uniF307,
    uniF308,
    uniF400,
    uniF401,
    uniF402,
    uniF403,
    uniF404,
    uniF405,
    uniF406,
    uniF407,
    uniF408,
    uniF409,
    uniF410,
    uniF411,
    uniF412,
    uniF413,
    uniF414,
    uniF415,
    uniF416,
    uniF417,
    uniF418,
    uniF419,
    uniF420,
    uniF421,
    uniF422,
    uniF423,
    uniF424,
    uniF425,
    uniF426,
    uniF427,
    uniF428,
    uniF429,
    uniF430,
    uniF431,
    uniF432,
    uniF433,
    uniF434,
    uniF435,
    uniF436,
    uniF437,
    uniF438,
    uniF439,
    uniF440,
    uniF441,
    uniF442,
    uniF443,
    uniF444,
    uniF445,
    uniF446,
    uniF447,
    uniF448,
    uniF449,
    uniF450,
    uniF451,
    uniF452,
    uniF453,
    uniF454,
    uniF455,
    uniF456,
    uniF457,
    uniF458,
    uniF459,
    uniF460,
    uniF461,
    uniF462,
    uniF463,
    uniF464,
    uniF465,
    uniF466,
    uniF467,
    uniF468,
    uniF469,
    uniF470,
    uniF471,
    uniF472,
    uniF473,
    uniF500,
    uniF501,
    uniF502,
    uniF503
);
}
);
date = "2013-11-13 04:43:35 +0000";
designer = "Joen Asmussen, Michael Thompson";
familyName = "Genericons-Provisions";
fontMaster = (
{
ascender = 2560;
capHeight = 2048;
customParameters = (
{

glyphs = (
{
glyphname = .notdef;
layers = (
{
layerId = "BB9D08C5-CC12-4AD2-9413-180A7C7733FD";
name = Regular;
paths = (
{
closed = 1;
nodes = (
"0 0 LINE",
"500 0 LINE",
"500 700 LINE",
"0 700 LINE"
);
},
{
closed = 1;
nodes = (
"250 395 LINE",
"80 650 LINE",
"420 650 LINE"
);
},
{
closed = 1;
nodes = (
"280 350 LINE",
"450 605 LINE",
"450 94.9999 LINE"
);
},
{
closed = 1;
nodes = (
"80 50 LINE",
"250 305 LINE",
"420 50 LINE"
);
},
{
closed = 1;
nodes = (
"50 605 LINE",
"220 350 LINE",
"50 94.9999 LINE"
);
}
);
width = 500;
}
);
},
{
glyphname = uniF100;
layers = (
{
layerId = "BB9D08C5-CC12-4AD2-9413-180A7C7733FD";
name = Regular;
paths = (
{
closed = 1;
nodes = (
"1536 1408 LINE",
"512 1408 LINE",
"512 1280 LINE",
"1536 1280 LINE"
);
},
{
closed = 1;
nodes = (
"1152 1024 LINE",
"1152 1152 LINE",
"512 1152 LINE",
"512 1024 LINE"
);
},
{
closed = 1;
nodes = (
"1280 1152 LINE",
"1280 1024 LINE",
"1536 1024 LINE",
"1536 1152 LINE"
);
},
{
closed = 1;
nodes = (
"768 768 LINE",
"768 896 LINE",
"512 896 LINE",
"512 768 LINE"
);
},
{
closed = 1;
nodes = (
"896 896 LINE",
"896 768 LINE",
"1536 768 LINE",
"1536 896 LINE"
);
},
{
closed = 1;
nodes = (
"512 640 LINE",
"512 512 LINE",
"1280 512 LINE",
"1280 640 LINE"
);
}
);
width = 2048;
}
);
unicode = F100;
},
{
glyphname = uniF101;
layers = (
{
layerId = "BB9D08C5-CC12-4AD2-9413-180A7C7733FD";
name = Regular;
paths = (
{
closed = 1;
nodes = (
"600 1792 OFFCURVE",
"256 1448 OFFCURVE",
"256 1024 CURVE SMOOTH",
"256 600 OFFCURVE",
"600 256 OFFCURVE",
"1024 256 CURVE SMOOTH",
"1448 256 OFFCURVE",
"1792 600 OFFCURVE",
"1792 1024 CURVE SMOOTH",
"1792 1448 OFFCURVE",
"1448 1792 OFFCURVE",
"1024 1792 CURVE SMOOTH"
);
},
{
closed = 1;
nodes = (
"883 768 OFFCURVE",
"768 883 OFFCURVE",
"768 1024 CURVE SMOOTH",
"768 1165 OFFCURVE",
"883 1280 OFFCURVE",
"1024 1280 CURVE SMOOTH",
"1165 1280 OFFCURVE",
"1280 1165 OFFCURVE",
"1280 1024 CURVE SMOOTH",
"1280 883 OFFCURVE",
"1165 768 OFFCURVE",
"1024 768 CURVE SMOOTH"
);
}
);
width = 2048;
}
);
unicode = F101;
},
{
glyphname = uniF102;
layers = (
{
layerId = "BB9D08C5-CC12-4AD2-9413-180A7C7733FD";
name = Regular;
paths = (
{
closed = 1;
nodes = (
"1920 1408 LINE",
"1408 1408 LINE",
"1280 1664 LINE",
"768 1664 LINE",
"640 1408 LINE",
"128 1280 LINE",
"128 384 LINE",
"1920 384 LINE"
);
},
{
closed = 1;
nodes = (
"512 1504 LINE",
"512 1600 LINE",
"256 1600 LINE",
"256 1440 LINE"
);
},
{
closed = 1;
nodes = (
"777 512 OFFCURVE",
"576 713 OFFCURVE",
"576 960 CURVE SMOOTH",
"576 1207 OFFCURVE",
"777 1408 OFFCURVE",
"1024 1408 CURVE SMOOTH",
"1272 1408 OFFCURVE",
"1472 1207 OFFCURVE",
"1472 960 CURVE SMOOTH",
"1472 713 OFFCURVE",
"1272 512 OFFCURVE",
"1024 512 CURVE SMOOTH"
);
},
{
closed = 1;
nodes = (
"847 1280 OFFCURVE",
"704 1137 OFFCURVE",
"704 960 CURVE SMOOTH",
"704 783 OFFCURVE",
"847 640 OFFCURVE",
"1024 640 CURVE SMOOTH",
"1201 640 OFFCURVE",
"1344 783 OFFCURVE",
"1344 960 CURVE SMOOTH",
"1344 1137 OFFCURVE",
"1201 1280 OFFCURVE",
"1024 1280 CURVE SMOOTH"
);
}
);
width = 2048;
}
);
unicode = F102;
},
{
glyphname = uniF103;
layers = (
{
layerId = "BB9D08C5-CC12-4AD2-9413-180A7C7733FD";
name = Regular;
paths = (
{
closed = 1;
nodes = (
"128 1408 LINE",
"128 1024 LINE",
"1024 1024 LINE",
"1024 1408 LINE"
);
},
{
closed = 1;
nodes = (
"2048 1408 LINE",
"1152 1408 LINE",
"1152 512 LINE",
"2048 512 LINE"
);
},
{
closed = 1;
nodes = (
"128 896 LINE",
"128 512 LINE",
"512 512 LINE",
"512 896 LINE"
);
},
{
closed = 1;
nodes = (
"640 896 LINE",
"640 512 LINE",
"1024 512 LINE",
"1024 896 LINE"
);
}
);
width = 2048;
}
);
unicode = F103;
},
{
glyphname = uniF104;
layers = (
{
layerId = "BB9D08C5-CC12-4AD2-9413-180A7C7733FD";
name = Regular;
paths = (
{
closed = 1;
nodes = (
"1664 1024 LINE",
"512 1664 LINE",
"512 384 LINE"
);
}
);
width = 2048;
}
);
unicode = F104;
},
{
glyphname = uniF105;
layers = (
{
layerId = "BB9D08C5-CC12-4AD2-9413-180A7C7733FD";
name = Regular;
paths = (
{
closed = 1;
nodes = (
"1408 1620 OFFCURVE",
"1236 1792 OFFCURVE",
"1024 1792 CURVE SMOOTH",
"812 1792 OFFCURVE",
"640 1620 OFFCURVE",
"640 1408 CURVE SMOOTH",
"640 1241 OFFCURVE",
"747 1100 OFFCURVE",
"896 1048 CURVE",
"896 384 LINE",
"1152 512 LINE",
"1152 1048 LINE",
"1301 1100 OFFCURVE",
"1408 1241 OFFCURVE",
"1408 1408 CURVE SMOOTH"
);
}
);
width = 2048;
}
);
unicode = F105;
},
{
glyphname = uniF106;
layers = (
{
layerId = "BB9D08C5-CC12-4AD2-9413-180A7C7733FD";
name = Regular;
paths = (
{
closed = 1;
nodes = (
"512 1408 LINE",
"384 640 LINE",
"768 640 LINE",
"1024 1408 LINE"
);
},
{
closed = 1;
nodes = (
"1792 1408 LINE",
"1280 1408 LINE",
"1152 640 LINE",
"1536 640 LINE"
);
}
);
width = 2048;
}
);
unicode = F106;
},
{
glyphname = uniF107;
layers = (
{
layerId = "BB9D08C5-CC12-4AD2-9413-180A7C7733FD";
name = Regular;
paths = (
{
closed = 1;
nodes = (
"911 1792 OFFCURVE",
"768 1649 OFFCURVE",
"768 1472 CURVE SMOOTH",
"768 1088 LINE SMOOTH",
"768 957 OFFCURVE",
"847 844 OFFCURVE",
"960 795 CURVE",
"960 946 LINE",
"921 980.999 OFFCURVE",
"896 1032 OFFCURVE",
"896 1088 CURVE SMOOTH",
"896 1472 LINE SMOOTH",
"896 1578 OFFCURVE",
"981.999 1664 OFFCURVE",
"1088 1664 CURVE SMOOTH",
"1194 1664 OFFCURVE",
"1280 1578 OFFCURVE",
"1280 1472 CURVE SMOOTH",
"1280 1088 LINE SMOOTH",
"1280 1032 OFFCURVE",
"1255 980.999 OFFCURVE",
"1216 946 CURVE",
"1216 795 LINE",
"1329 844 OFFCURVE",
"1408 957 OFFCURVE",
"1408 1088 CURVE SMOOTH",
"1408 1472 LINE SMOOTH",
"1408 1649 OFFCURVE",
"1265 1792 OFFCURVE",
"1088 1792 CURVE SMOOTH"
);
},
{
closed = 1;
nodes = (
"960 1230 LINE",
"998.999 1195 OFFCURVE",
"1024 1145 OFFCURVE",
"1024 1088 CURVE SMOOTH",
"1024 704 LINE SMOOTH",
"1024 598 OFFCURVE",
"938 512 OFFCURVE",
"832 512 CURVE SMOOTH",
"726 512 OFFCURVE",
"640 598 OFFCURVE",
"640 704 CURVE SMOOTH",
"640 1088 LINE SMOOTH",
"640 1145 OFFCURVE",
"665 1195 OFFCURVE",
"704 1230 CURVE",
"704 1381 LINE",
"591 1332 OFFCURVE",
"512 1219 OFFCURVE",
"512 1088 CURVE SMOOTH",
"512 704 LINE SMOOTH",
"512 527 OFFCURVE",
"655 384 OFFCURVE",
"832 384 CURVE SMOOTH",
"1009 384 OFFCURVE",
"1152 527 OFFCURVE",
"1152 704 CURVE SMOOTH",
"1152 1088 LINE SMOOTH",
"1152 1219 OFFCURVE",
"1073 1332 OFFCURVE",
"960 1381 CURVE"
);
}
);
width = 2048;
}
);
unicode = F107;
},
{
glyphname = uniF108;
layers = (
{
layerId = "BB9D08C5-CC12-4AD2-9413-180A7C7733FD";
name = Regular;
paths = (
{
closed = 1;
nodes = (
"256 1792 LINE SMOOTH",
"128 1792 OFFCURVE",
"0 1664 OFFCURVE",
"0 1536 CURVE SMOOTH",
"0 1152 LINE SMOOTH",
"0 1024 OFFCURVE",
"128 896 OFFCURVE",
"256 896 CURVE SMOOTH",
"384 896 LINE",
"384 448 LINE",
"832 896 LINE",
"1280 896 LINE SMOOTH",
"1408 896 OFFCURVE",
"1536 1024 OFFCURVE",
"1536 1152 CURVE SMOOTH",
"1536 1536 LINE SMOOTH",
"1536 1664 OFFCURVE",
"1408 1792 OFFCURVE",
"1280 1792 CURVE SMOOTH"
);
},
{
closed = 1;
nodes = (
"1664 1152 LINE SMOOTH",
"1664 928 OFFCURVE",
"1504 768 OFFCURVE",
"1280 768 CURVE SMOOTH",
"896 768 LINE",
"768 640 LINE",
"1088 640 LINE",
"1536 192 LINE",
"1536 640 LINE",
"1664 640 LINE SMOOTH",
"1792 640 OFFCURVE",
"1920 768 OFFCURVE",
"1920 896 CURVE SMOOTH",
"1920 1280 LINE SMOOTH",
"1920 1408 OFFCURVE",
"1792 1536 OFFCURVE",
"1664 1536 CURVE"
);
}
);
width = 2048;
}
);
unicode = F108;
},
{
glyphname = uniF109;
layers = (
{
layerId = "BB9D08C5-CC12-4AD2-9413-180A7C7733FD";
name = Regular;
paths = (
{
closed = 1;
nodes = (
"640 1280 LINE",
"256 1280 LINE",
"256 768 LINE",
"640 768 LINE",
"1024 384 LINE",
"1024 1664 LINE"
);
},
{
closed = 1;
nodes = (
"1386.12 1386.06 LINE",
"1478.75 1293.44 OFFCURVE",
"1536 1165.38 OFFCURVE",
"1536 1024 CURVE SMOOTH",
"1536 882.5 OFFCURVE",
"1478.75 754.5 OFFCURVE",
"1386.12 661.87 CURVE",
"1476.62 571.37 LINE",
"1592.38 687.12 OFFCURVE",
"1664 847.12 OFFCURVE",
"1664 1024 CURVE SMOOTH",
"1664 1200.75 OFFCURVE",
"1592.38 1360.75 OFFCURVE",
"1476.62 1476.62 CURVE"
);
},
{
closed = 1;
nodes = (
"1205 1205.06 LINE",
"1251.38 1158.69 OFFCURVE",
"1280 1094.69 OFFCURVE",
"1280 1024 CURVE SMOOTH",
"1280 953.25 OFFCURVE",
"1251.38 889.25 OFFCURVE",
"1205 843 CURVE",
"1295.5 752.5 LINE",
"1365 821.87 OFFCURVE",
"1408 917.87 OFFCURVE",
"1408 1024 CURVE SMOOTH",
"1408 1130.06 OFFCURVE",
"1365 1226.06 OFFCURVE",
"1295.5 1295.56 CURVE"
);
}
);
width = 2048;
}
);
unicode = F109;
},
{
glyphname = uniF200;
layers = (
{
layerId = "BB9D08C5-CC12-4AD2-9413-180A7C7733FD";
name = Regular;
paths = (
{
closed = 1;
nodes = (
"459 2048 OFFCURVE",
"0 1590 OFFCURVE",
"0 1024 CURVE SMOOTH",
"0 572 OFFCURVE",
"293 188 OFFCURVE",
"700 52 CURVE",
"752 43 OFFCURVE",
"770 75 OFFCURVE",
"770 102 CURVE SMOOTH",
"770 126 OFFCURVE",
"769 191 OFFCURVE",
"769 276 CURVE",
"484 214 OFFCURVE",
"424 413 OFFCURVE",
"424 413 CURVE",
"377 532 OFFCURVE",
"310 563 OFFCURVE",
"310 563 CURVE",
"217 627 OFFCURVE",
"317 625 OFFCURVE",
"317 625 CURVE",
"420 618 OFFCURVE",
"474 520 OFFCURVE",
"474 520 CURVE",
"565 363 OFFCURVE",
"714 408 OFFCURVE",
"772 435 CURVE",
"781 501 OFFCURVE",
"808 546 OFFCURVE",
"837 572 CURVE",
"610 597 OFFCURVE",
"371 685 OFFCURVE",
"371 1078 CURVE SMOOTH",
"371 1189 OFFCURVE",
"411 1281 OFFCURVE",
"476 1352 CURVE",
"466 1378 OFFCURVE",
"430 1482 OFFCURVE",
"486 1623 CURVE",
"486 1623 OFFCURVE",
"572 1651 OFFCURVE",
"768 1518 CURVE",
"849 1541 OFFCURVE",
"937 1552 OFFCURVE",
"1024 1553 CURVE SMOOTH",
"1111 1552 OFFCURVE",
"1199 1541 OFFCURVE",
"1280 1518 CURVE",
"1476 1651 OFFCURVE",
"1562 1623 OFFCURVE",
"1562 1623 CURVE",
"1618 1482 OFFCURVE",
"1583 1378 OFFCURVE",
"1572 1352 CURVE",
"1638 1281 OFFCURVE",
"1677 1189 OFFCURVE",
"1677 1078 CURVE SMOOTH",
"1677 684 OFFCURVE",
"1438 598 OFFCURVE",
"1210 572 CURVE",
"1246 541 OFFCURVE",
"1279 478 OFFCURVE",
"1279 383 CURVE SMOOTH",
"1279 246 OFFCURVE",
"1278 135 OFFCURVE",
"1278 102 CURVE SMOOTH",
"1278 74 OFFCURVE",
"1296 43 OFFCURVE",
"1348 53 CURVE",
"1755 188 OFFCURVE",
"2048 572 OFFCURVE",
"2048 1024 CURVE SMOOTH",
"2048 1590 OFFCURVE",
"1590 2048 OFFCURVE",
"1024 2048 CURVE SMOOTH"
);
}
);
width = 2048;
}
);
unicode = F200;
},
{
glyphname = uniF201;
layers = (
{
layerId = "BB9D08C5-CC12-4AD2-9413-180A7C7733FD";
name = Regular;
paths = (
{
closed = 1;
nodes = (
"464 2048 OFFCURVE",
"0 1584 OFFCURVE",
"0 1024 CURVE SMOOTH",
"0 464 OFFCURVE",
"464 0 OFFCURVE",
"1024 0 CURVE SMOOTH",
"1584 0 OFFCURVE",
"2048 464 OFFCURVE",
"2048 1024 CURVE SMOOTH",
"2048 1584 OFFCURVE",
"1584 2048 OFFCURVE",
"1024 2048 CURVE SMOOTH"
);
},
{
closed = 1;
nodes = (
"1280 1920 OFFCURVE",
"1504 1808 OFFCURVE",
"1664 1648 CURVE",
"1520 1520 OFFCURVE",
"1264 1440 OFFCURVE",
"1136 1392 CURVE",
"1024 1584 OFFCURVE",
"960 1696 OFFCURVE",
"832 1904 CURVE",
"896 1904 OFFCURVE",
"960 1920 OFFCURVE",
"1024 1920 CURVE SMOOTH"
);
},
{
closed = 1;
nodes = (
"800 1680 OFFCURVE",
"896 1520 OFFCURVE",
"991.999 1328 CURVE",
"848 1280 OFFCURVE",
"448 1200 OFFCURVE",
"160 1232 CURVE",
"224 1520 OFFCURVE",
"416 1744 OFFCURVE",
"672 1856 CURVE"
);
},
{
closed = 1;
nodes = (
"1856 1408 OFFCURVE",
"1904 1248 OFFCURVE",
"1920 1072 CURVE",
"1776 1104 OFFCURVE",
"1504 1120 OFFCURVE",
"1296 1072 CURVE",
"1264 1136 OFFCURVE",
"1248 1184 OFFCURVE",
"1200 1248 CURVE",
"1392 1344 OFFCURVE",
"1600 1408 OFFCURVE",
"1760 1536 CURVE"
);
},
{
closed = 1;
nodes = (
"128 1088 LINE",
"464 1056 OFFCURVE",
"688 1088 OFFCURVE",
"1056 1200 CURVE",
"1088 1136 OFFCURVE",
"1120 1072 OFFCURVE",
"1136 1024 CURVE",
"848 928 OFFCURVE",
"528 720 OFFCURVE",
"352 432 CURVE",
"208 592 OFFCURVE",
"128 800 OFFCURVE",
"128 1024 CURVE SMOOTH"
);
},
{
closed = 1;
nodes = (
"1472 624 OFFCURVE",
"1360 896 OFFCURVE",
"1344 928 CURVE",
"1552 960 OFFCURVE",
"1728 960 OFFCURVE",
"1920 928 CURVE",
"1888 672 OFFCURVE",
"1744 432 OFFCURVE",
"1536 288 CURVE"
);
},
{
closed = 1;
nodes = (
"816 128 OFFCURVE",
"624 192 OFFCURVE",
"480 320 CURVE",
"624 592 OFFCURVE",
"896 800 OFFCURVE",
"1184 896 CURVE",
"1328 576 OFFCURVE",
"1376 352 OFFCURVE",
"1392 208 CURVE",
"1280 160 OFFCURVE",
"1152 128 OFFCURVE",
"1024 128 CURVE SMOOTH"
);
}
);
width = 2048;
}
);
unicode = F201;
},
{
glyphname = uniF202;
layers = (
{
layerId = "BB9D08C5-CC12-4AD2-9413-180A7C7733FD";
name = Regular;
paths = (
{
closed = 1;
nodes = (
"1854 1555 OFFCURVE",
"1783 1535 OFFCURVE",
"1709 1526 CURVE",
"1785 1571 OFFCURVE",
"1843 1643 OFFCURVE",
"1870 1729 CURVE",
"1800 1687 OFFCURVE",
"1721 1657 OFFCURVE",
"1637 1640 CURVE",
"1570 1712 OFFCURVE",
"1474 1756 OFFCURVE",
"1369 1756 CURVE SMOOTH",
"1166 1756 OFFCURVE",
"1001 1592 OFFCURVE",
"1001 1389 CURVE SMOOTH",
"1001 1360 OFFCURVE",
"1004 1332 OFFCURVE",
"1011 1305 CURVE",
"705 1320 OFFCURVE",
"434 1466 OFFCURVE",
"253 1689 CURVE",
"221 1635 OFFCURVE",
"203 1571 OFFCURVE",
"203 1504 CURVE SMOOTH",
"203 1377 OFFCURVE",
"268 1264 OFFCURVE",
"367 1198 CURVE",
"306 1200 OFFCURVE",
"250 1217 OFFCURVE",
"200 1244 CURVE",
"200 1239 LINE SMOOTH",
"200 1061 OFFCURVE",
"327 913 OFFCURVE",
"495 879 CURVE",
"464 871 OFFCURVE",
"432 866 OFFCURVE",
"398 866 CURVE SMOOTH",
"374 866 OFFCURVE",
"351 869 OFFCURVE",
"329 873 CURVE",
"376 726 OFFCURVE",
"512 620 OFFCURVE",
"672 617 CURVE",
"547 519 OFFCURVE",
"388 460 OFFCURVE",
"216 460 CURVE SMOOTH",
"186 460 OFFCURVE",
"157 462 OFFCURVE",
"128 465 CURVE",
"291 361 OFFCURVE",
"484 300 OFFCURVE",
"692 300 CURVE SMOOTH",
"1368 300 OFFCURVE",
"1738 860 OFFCURVE",
"1738 1346 CURVE SMOOTH",
"1738 1362 OFFCURVE",
"1737 1378 OFFCURVE",
"1737 1393 CURVE",
"1808 1445 OFFCURVE",
"1871 1510 OFFCURVE",
"1920 1584 CURVE"
);
}
);
width = 2048;
}
);
unicode = F202;
},
{
glyphname = uniF203;
layers = (
{
layerId = "BB9D08C5-CC12-4AD2-9413-180A7C7733FD";
name = Regular;
paths = (
{
closed = 1;
nodes = (
"384 1920 LINE SMOOTH",
"243 1920 OFFCURVE",
"128 1805 OFFCURVE",
"128 1664 CURVE SMOOTH",
"128 384 LINE SMOOTH",
"128 243 OFFCURVE",
"243 128 OFFCURVE",
"384 128 CURVE SMOOTH",
"1108 128 LINE",
"1108 839 LINE",
"854 839 LINE",
"854 1099 LINE",
"1108 1099 LINE",
"1108 1335 LINE SMOOTH",
"1108 1510 OFFCURVE",
"1220 1669 OFFCURVE",
"1480 1669 CURVE SMOOTH",
"1585 1669 OFFCURVE",
"1663 1659 OFFCURVE",
"1663 1659 CURVE",
"1657 1417 LINE",
"1657 1417 OFFCURVE",
"1577 1418 OFFCURVE",
"1491 1418 CURVE SMOOTH",
"1397 1418 OFFCURVE",
"1382 1375 OFFCURVE",
"1382 1303 CURVE SMOOTH",
"1382 1291 LINE",
"1382 1099 LINE",
"1664 1099 LINE",
"1652 839 LINE",
"1382 839 LINE",
"1382 128 LINE",
"1664 128 LINE SMOOTH",
"1805 128 OFFCURVE",
"1920 243 OFFCURVE",
"1920 384 CURVE SMOOTH",
"1920 1664 LINE SMOOTH",
"1920 1805 OFFCURVE",
"1805 1920 OFFCURVE",
"1664 1920 CURVE SMOOTH"
);
}
);
width = 2048;
}
);
unicode = F203;
},
{
glyphname = uniF204;
layers = (
{
layerId = "BB9D08C5-CC12-4AD2-9413-180A7C7733FD";
name = Regular;
paths = (
{
closed = 1;
nodes = (
"1511 1272 LINE",
"1182 1272 LINE",
"1182 1479 LINE",
"1182 1493 LINE SMOOTH",
"1182 1576 OFFCURVE",
"1200 1626 OFFCURVE",
"1309 1626 CURVE SMOOTH",
"1502 1626 LINE",
"1509 1908 LINE",
"1509 1908 OFFCURVE",
"1419 1920 OFFCURVE",
"1296 1920 CURVE SMOOTH",
"993.999 1920 OFFCURVE",
"862 1733 OFFCURVE",
"862 1530 CURVE SMOOTH",
"862 1272 LINE",
"640 1272 LINE",
"640 968.999 LINE",
"862 968.999 LINE",
"862 128 LINE",
"1182 128 LINE",
"1182 968.999 LINE",
"1497 968.999 LINE"
);
}
);
width = 2048;
}
);
unicode = F204;
},
{
glyphname = uniF205;
layers = (
{
layerId = "BB9D08C5-CC12-4AD2-9413-180A7C7733FD";
name = Regular;
paths = (
{
closed = 1;
nodes = (
"529.94 1920 OFFCURVE",
"128 1518.06 OFFCURVE",
"128 1024 CURVE SMOOTH",
"128 530 OFFCURVE",
"529.94 128 OFFCURVE",
"1024 128 CURVE SMOOTH",
"1518 128 OFFCURVE",
"1920 530 OFFCURVE",
"1920 1024 CURVE SMOOTH",
"1920 1518.06 OFFCURVE",
"1518 1920 OFFCURVE",
"1024 1920 CURVE SMOOTH"
);
},
{
closed = 1;
nodes = (
"1426.12 535.75 LINE",
"1135 1401.75 LINE",
"1183.62 1404.31 OFFCURVE",
"1227.25 1409.44 OFFCURVE",
"1227.25 1409.44 CURVE",
"1270.62 1414.56 OFFCURVE",
"1265.5 1478.38 OFFCURVE",
"1222.12 1475.81 CURVE",
"1222.12 1475.81 OFFCURVE",
"1091.62 1465.56 OFFCURVE",
"1007.38 1465.56 CURVE SMOOTH",
"928.19 1465.56 OFFCURVE",
"795.19 1475.81 OFFCURVE",
"795.19 1475.81 CURVE",
"751.75 1478.38 OFFCURVE",
"746.75 1411.94 OFFCURVE",
"790.12 1409.44 CURVE",
"790.12 1409.44 OFFCURVE",
"831.19 1404.31 OFFCURVE",
"874.62 1401.75 CURVE",
"1000.12 1057.88 LINE",
"823.87 529.25 LINE",
"530.5 1401.75 LINE",
"578.94 1404.31 OFFCURVE",
"622.62 1409.44 OFFCURVE",
"622.62 1409.44 CURVE",
"666 1414.56 OFFCURVE",
"660.87 1478.38 OFFCURVE",
"617.44 1475.81 CURVE",
"617.44 1475.81 OFFCURVE",
"487.06 1465.56 OFFCURVE",
"402.75 1465.56 CURVE SMOOTH",
"350.88 1466.5 LINE",
"494.94 1685.19 OFFCURVE",
"742.57 1829.56 OFFCURVE",
"1024.01 1829.56 CURVE SMOOTH",
"1233.76 1829.56 OFFCURVE",
"1424.63 1749.38 OFFCURVE",
"1568.01 1618.12 CURVE",
"1557.51 1618.75 LINE",
"1478.51 1618.75 OFFCURVE",
"1422.39 1549.88 OFFCURVE",
"1422.39 1475.81 CURVE SMOOTH",
"1422.39 1409.44 OFFCURVE",
"1460.63 1353.25 OFFCURVE",
"1501.39 1286.81 CURVE SMOOTH",
"1532.01 1233.25 OFFCURVE",
"1567.76 1164.31 OFFCURVE",
"1567.76 1064.69 CURVE SMOOTH",
"1567.76 995.75 OFFCURVE",
"1541.39 915.75 OFFCURVE",
"1506.51 804.25 CURVE SMOOTH"
);
},
{
closed = 1;
nodes = (
"1793.76 1295.81 OFFCURVE",
"1829.51 1164.12 OFFCURVE",
"1829.51 1024 CURVE SMOOTH",
"1829.51 726.87 OFFCURVE",
"1668.51 467.37 OFFCURVE",
"1429.01 327.75 CURVE",
"1675.13 1039.19 LINE",
"1721.01 1154.06 OFFCURVE",
"1736.39 1245.94 OFFCURVE",
"1736.39 1327.75 CURVE SMOOTH",
"1736.39 1357.38 OFFCURVE",
"1734.39 1384.81 OFFCURVE",
"1730.89 1410.5 CURVE"
);
},
{
closed = 1;
nodes = (
"218.45 1140.81 OFFCURVE",
"243.51 1251.75 OFFCURVE",
"288.26 1351.88 CURVE",
"672.51 299 LINE",
"403.76 429.62 OFFCURVE",
"218.45 705.12 OFFCURVE",
"218.45 1024 CURVE SMOOTH"
);
},
{
closed = 1;
nodes = (
"944.95 218.5 OFFCURVE",
"868.57 230 OFFCURVE",
"796.39 251.25 CURVE",
"1038.26 953.56 LINE",
"1285.76 275.25 LINE SMOOTH",
"1287.39 271.12 OFFCURVE",
"1289.39 267.5 OFFCURVE",
"1291.51 264 CURVE",
"1207.76 234.62 OFFCURVE",
"1117.89 218.5 OFFCURVE",
"1024.01 218.5 CURVE SMOOTH"
);
}
);
width = 2048;
}
);
unicode = F205;
},
{
glyphname = uniF206;
layers = (
{
layerId = "BB9D08C5-CC12-4AD2-9413-180A7C7733FD";
name = Regular;
paths = (
{
closed = 1;
nodes = (
"1664 1536 LINE",
"1920 1536 LINE",
"1920 1664 LINE SMOOTH",
"1920 1805 OFFCURVE",
"1805 1920 OFFCURVE",
"1664 1920 CURVE SMOOTH",
"384 1920 LINE SMOOTH",
"243 1920 OFFCURVE",
"128 1805 OFFCURVE",
"128 1664 CURVE SMOOTH",
"128 1599 LINE",
"232 1707 OFFCURVE",
"390 1780 OFFCURVE",
"564 1780 CURVE SMOOTH",
"1171 1780 LINE",
"1036 1638 LINE",
"876 1638 LINE",
"988.999 1573 OFFCURVE",
"1049 1441 OFFCURVE",
"1049 1294 CURVE SMOOTH",
"1049 1160 OFFCURVE",
"973.999 1052 OFFCURVE",
"869 969.999 CURVE SMOOTH",
"767 890 OFFCURVE",
"747 857 OFFCURVE",
"747 789 CURVE SMOOTH",
"747 730 OFFCURVE",
"870 644 OFFCURVE",
"926 602 CURVE SMOOTH",
"1122 455 OFFCURVE",
"1162 362 OFFCURVE",
"1162 178 CURVE SMOOTH",
"1162 162 OFFCURVE",
"1160 145 OFFCURVE",
"1157 128 CURVE",
"1664 128 LINE SMOOTH",
"1805 128 OFFCURVE",
"1920 243 OFFCURVE",
"1920 384 CURVE SMOOTH",
"1920 1408 LINE",
"1664 1408 LINE",
"1664 1152 LINE",
"1536 1152 LINE",
"1536 1408 LINE",
"1280 1408 LINE",
"1280 1536 LINE",
"1536 1536 LINE",
"1536 1792 LINE",
"1664 1792 LINE"
);
},
{
closed = 1;
nodes = (
"739 932 OFFCURVE",
"833 1071 OFFCURVE",
"805 1285 CURVE SMOOTH",
"776 1500 OFFCURVE",
"637 1676 OFFCURVE",
"473 1681 CURVE SMOOTH",
"309 1686 OFFCURVE",
"200 1522 OFFCURVE",
"228 1307 CURVE SMOOTH",
"256 1092 OFFCURVE",
"412 942 OFFCURVE",
"575 937 CURVE SMOOTH"
);
},
{
closed = 1;
nodes = (
"524 617 OFFCURVE",
"485 658 OFFCURVE",
"485 729 CURVE SMOOTH",
"485 771 OFFCURVE",
"498 811 OFFCURVE",
"517 847 CURVE",
"498 845 OFFCURVE",
"478 844 OFFCURVE",
"458 844 CURVE SMOOTH",
"318 844 OFFCURVE",
"206 892 OFFCURVE",
"128 970.999 CURVE",
"128 486 LINE",
"221 537 OFFCURVE",
"334 569 OFFCURVE",
"462 569 CURVE SMOOTH",
"500 569 OFFCURVE",
"535 570 OFFCURVE",
"572 570 CURVE"
);
},
{
closed = 1;
nodes = (
"939 323 OFFCURVE",
"832 380 OFFCURVE",
"700 472 CURVE",
"652 488 OFFCURVE",
"599 497 OFFCURVE",
"542 498 CURVE SMOOTH",
"368 499 OFFCURVE",
"214 420 OFFCURVE",
"139 309 CURVE",
"171 204 OFFCURVE",
"269 128 OFFCURVE",
"384 128 CURVE SMOOTH",
"971.999 128 LINE",
"972.999 136 OFFCURVE",
"972.999 144 OFFCURVE",
"972.999 152 CURVE SMOOTH",
"972.999 175 OFFCURVE",
"970.999 197 OFFCURVE",
"966 218 CURVE SMOOTH"
);
}
);
width = 2048;
}
);
unicode = F206;
},
{
glyphname = uniF207;
layers = (
{
layerId = "BB9D08C5-CC12-4AD2-9413-180A7C7733FD";
name = Regular;
paths = (
{
closed = 1;
nodes = (
"530 1285 LINE SMOOTH",
"441 1285 OFFCURVE",
"384 1346 OFFCURVE",
"384 1422 CURVE SMOOTH",
"384 1500 OFFCURVE",
"443 1559 OFFCURVE",
"533 1559 CURVE SMOOTH",
"623 1559 OFFCURVE",
"679 1500 OFFCURVE",
"681 1422 CURVE SMOOTH",
"681 1346 OFFCURVE",
"623 1285 OFFCURVE",
"531 1285 CURVE SMOOTH"
);
},
{
closed = 1;
nodes = (
"1614 384 LINE",
"1350 384 LINE",
"1350 808 LINE SMOOTH",
"1350 915 OFFCURVE",
"1312 986.999 OFFCURVE",
"1217 986.999 CURVE SMOOTH",
"1144 986.999 OFFCURVE",
"1100 938 OFFCURVE",
"1081 891 CURVE SMOOTH",
"1074 874 OFFCURVE",
"1073 850 OFFCURVE",
"1073 827 CURVE SMOOTH",
"1073 384 LINE",
"809 384 LINE SMOOTH",
"809 384 OFFCURVE",
"812 1103 OFFCURVE",
"809 1177 CURVE",
"1073 1177 LINE",
"1073 1065 LINE",
"1108 1119 OFFCURVE",
"1170 1196 OFFCURVE",
"1310 1196 CURVE SMOOTH",
"1484 1196 OFFCURVE",
"1614 1082 OFFCURVE",
"1614 839 CURVE SMOOTH"
);
},
{
closed = 1;
nodes = (
"663 1177 LINE",
"663 384 LINE",
"400 384 LINE",
"400 1177 LINE"
);
}
);
width = 2048;
}
);
unicode = F207;
},
{
glyphname = uniF208;
layers = (
{
layerId = "BB9D08C5-CC12-4AD2-9413-180A7C7733FD";
name = Regular;
paths = (
{
closed = 1;
nodes = (
"384 1920 LINE SMOOTH",
"243 1920 OFFCURVE",
"128 1805 OFFCURVE",
"128 1664 CURVE SMOOTH",
"128 384 LINE SMOOTH",
"128 243 OFFCURVE",
"243 128 OFFCURVE",
"384 128 CURVE SMOOTH",
"1664 128 LINE SMOOTH",
"1805 128 OFFCURVE",
"1920 243 OFFCURVE",
"1920 384 CURVE SMOOTH",
"1920 1664 LINE SMOOTH",
"1920 1805 OFFCURVE",
"1805 1920 OFFCURVE",
"1664 1920 CURVE SMOOTH"
);
},
{
closed = 1;
nodes = (
"530 1285 LINE SMOOTH",
"441 1285 OFFCURVE",
"384 1346 OFFCURVE",
"384 1422 CURVE SMOOTH",
"384 1500 OFFCURVE",
"443 1559 OFFCURVE",
"533 1559 CURVE SMOOTH",
"623 1559 OFFCURVE",
"679 1500 OFFCURVE",
"681 1422 CURVE SMOOTH",
"681 1346 OFFCURVE",
"623 1285 OFFCURVE",
"531 1285 CURVE SMOOTH"
);
},
{
closed = 1;
nodes = (
"1614 384 LINE",
"1350 384 LINE",
"1350 808 LINE SMOOTH",
"1350 915 OFFCURVE",
"1312 986.999 OFFCURVE",
"1217 986.999 CURVE SMOOTH",
"1144 986.999 OFFCURVE",
"1100 938 OFFCURVE",
"1081 891 CURVE SMOOTH",
"1074 874 OFFCURVE",
"1073 850 OFFCURVE",
"1073 827 CURVE SMOOTH",
"1073 384 LINE",
"809 384 LINE SMOOTH",
"809 384 OFFCURVE",
"812 1103 OFFCURVE",
"809 1177 CURVE",
"1073 1177 LINE",
"1073 1065 LINE",
"1108 1119 OFFCURVE",
"1170 1196 OFFCURVE",
"1310 1196 CURVE SMOOTH",
"1484 1196 OFFCURVE",
"1614 1082 OFFCURVE",
"1614 839 CURVE SMOOTH"
);
},
{
closed = 1;
nodes = (
"663 1177 LINE",
"663 384 LINE",
"400 384 LINE",
"400 1177 LINE"
);
}
);
width = 2048;
}
);
unicode = F208;
},
{
glyphname = uniF209;
layers = (
{
layerId = "BB9D08C5-CC12-4AD2-9413-180A7C7733FD";
name = Regular;
paths = (
{
closed = 1;
nodes = (
"473 2048 OFFCURVE",
"171 1618 OFFCURVE",
"171 1260 CURVE SMOOTH",
"171 1043 OFFCURVE",
"253 849 OFFCURVE",
"429 778 CURVE SMOOTH",
"458 766 OFFCURVE",
"484 777 OFFCURVE",
"493 809 CURVE",
"498 831 OFFCURVE",
"512 887 OFFCURVE",
"518 910 CURVE SMOOTH",
"527 942 OFFCURVE",
"524 953 OFFCURVE",
"500 980.999 CURVE SMOOTH",
"450 1041 OFFCURVE",
"417 1118 OFFCURVE",
"417 1228 CURVE SMOOTH",
"417 1547 OFFCURVE",
"656 1833 OFFCURVE",
"1038 1833 CURVE SMOOTH",
"1377 1833 OFFCURVE",
"1564 1626 OFFCURVE",
"1564 1349 CURVE SMOOTH",
"1564 984.999 OFFCURVE",
"1403 678 OFFCURVE",
"1163 678 CURVE SMOOTH",
"1031 678 OFFCURVE",
"933 787 OFFCURVE",
"964 921 CURVE SMOOTH",
"1002 1081 OFFCURVE",
"1076 1254 OFFCURVE",
"1076 1369 CURVE SMOOTH",
"1076 1472 OFFCURVE",
"1020 1558 OFFCURVE",
"905 1558 CURVE SMOOTH",
"770 1558 OFFCURVE",
"662 1419 OFFCURVE",
"662 1232 CURVE SMOOTH",
"662 1113 OFFCURVE",
"702 1032 OFFCURVE",
"702 1032 CURVE",
"540 344 LINE SMOOTH",
"517 248 OFFCURVE",
"514 143 OFFCURVE",
"518 54 CURVE",
"667 0 LINE",
"715 76 OFFCURVE",
"767 173 OFFCURVE",
"794 270 CURVE SMOOTH",
"810 327 OFFCURVE",
"883 617 OFFCURVE",
"883 617 CURVE",
"927 534 OFFCURVE",
"1055 460 OFFCURVE",
"1191 460 CURVE SMOOTH",
"1597 460 OFFCURVE",
"1872 830 OFFCURVE",
"1872 1325 CURVE SMOOTH",
"1872 1699 OFFCURVE",
"1555 2048 OFFCURVE",
"1073 2048 CURVE SMOOTH"
);
}
);
width = 2048;
}
);
unicode = F209;
},
{
glyphname = uniF210;
lastChange = "2013-11-13 04:15:47 -0500";
layers = (
{
layerId = "BB9D08C5-CC12-4AD2-9413-180A7C7733FD";
name = Regular;
paths = (
{
closed = 1;
nodes = (
"459 2048 OFFCURVE",
"0 1590 OFFCURVE",
"0 1024 CURVE SMOOTH",
"0 605 OFFCURVE",
"252 244 OFFCURVE",
"613 86 CURVE",
"610 158 OFFCURVE",
"612 243 OFFCURVE",
"631 321 CURVE SMOOTH",
"650 404 OFFCURVE",
"763 879 OFFCURVE",
"763 879 CURVE SMOOTH",
"763 879 OFFCURVE",
"730 945 OFFCURVE",
"730 1041 CURVE SMOOTH",
"730 1193 OFFCURVE",
"818 1306 OFFCURVE",
"927 1306 CURVE SMOOTH",
"1020 1306 OFFCURVE",
"1065 1236 OFFCURVE",
"1065 1153 CURVE SMOOTH",
"1065 1059 OFFCURVE",
"1006 919 OFFCURVE",
"974.999 789 CURVE SMOOTH",
"949 681 OFFCURVE",
"1030 592 OFFCURVE",
"1137 592 CURVE SMOOTH",
"1331 592 OFFCURVE",
"1461 841 OFFCURVE",
"1461 1136 CURVE SMOOTH",
"1461 1361 OFFCURVE",
"1310 1529 OFFCURVE",
"1035 1529 CURVE SMOOTH",
"725 1529 OFFCURVE",
"531 1297 OFFCURVE",
"531 1038 CURVE SMOOTH",
"531 949 OFFCURVE",
"557 886 OFFCURVE",
"599 838 CURVE SMOOTH",
"618 815 OFFCURVE",
"620 806 OFFCURVE",
"613 780 CURVE SMOOTH",
"608 762 OFFCURVE",
"597 716 OFFCURVE",
"592 698 CURVE",
"586 672 OFFCURVE",
"565 663 OFFCURVE",
"541 673 CURVE SMOOTH",
"398 731 OFFCURVE",
"332 888 OFFCURVE",
"332 1064 CURVE SMOOTH",
"332 1355 OFFCURVE",
"577 1704 OFFCURVE",
"1063 1704 CURVE SMOOTH",
"1454 1704 OFFCURVE",
"1712 1421 OFFCURVE",
"1712 1117 CURVE SMOOTH",
"1712 715 OFFCURVE",
"1488 415 OFFCURVE",
"1159 415 CURVE SMOOTH",
"1049 415 OFFCURVE",
"945 475 OFFCURVE",
"909 543 CURVE",
"909 543 OFFCURVE",
"850 307 OFFCURVE",
"837 261 CURVE SMOOTH",
"815 182 OFFCURVE",
"773 103 OFFCURVE",
"734 42 CURVE",
"826 15 OFFCURVE",
"923 0 OFFCURVE",
"1024 0 CURVE SMOOTH",
"1590 0 OFFCURVE",
"2048 458 OFFCURVE",
"2048 1024 CURVE SMOOTH",
"2048 1590 OFFCURVE",
"1590 2048 OFFCURVE",
"1024 2048 CURVE SMOOTH"
);
}
);
width = 2048;
}
);
unicode = F210;
},
{
glyphname = uniF211;
layers = (
{
layerId = "BB9D08C5-CC12-4AD2-9413-180A7C7733FD";
name = Regular;
paths = (
{
closed = 1;
nodes = (
"991.999 794 OFFCURVE",
"806 608 OFFCURVE",
"576 608 CURVE SMOOTH",
"346 608 OFFCURVE",
"160 794 OFFCURVE",
"160 1024 CURVE SMOOTH",
"160 1254 OFFCURVE",
"346 1440 OFFCURVE",
"576 1440 CURVE SMOOTH",
"806 1440 OFFCURVE",
"991.999 1254 OFFCURVE",
"991.999 1024 CURVE SMOOTH"
);
},
{
closed = 1;
nodes = (
"1888 794 OFFCURVE",
"1702 608 OFFCURVE",
"1472 608 CURVE SMOOTH",
"1242 608 OFFCURVE",
"1056 794 OFFCURVE",
"1056 1024 CURVE SMOOTH",
"1056 1254 OFFCURVE",
"1242 1440 OFFCURVE",
"1472 1440 CURVE SMOOTH",
"1702 1440 OFFCURVE",
"1888 1254 OFFCURVE",
"1888 1024 CURVE SMOOTH"
);
}
);
width = 2048;
}
);
unicode = F211;
},
{
glyphname = uniF212;
layers = (
{
layerId = "BB9D08C5-CC12-4AD2-9413-180A7C7733FD";
name = Regular;
paths = (
{
closed = 1;
nodes = (
"1911.12 1263.88 OFFCURVE",
"1789.25 1027.25 OFFCURVE",
"1553.62 726.75 CURVE SMOOTH",
"1310 413 OFFCURVE",
"1103.88 256 OFFCURVE",
"935.25 256 CURVE SMOOTH",
"830.81 256 OFFCURVE",
"742.37 351.62 OFFCURVE",
"670.19 542.75 CURVE",
"525.56 1068.38 LINE SMOOTH",
"471.94 1259.38 OFFCURVE",
"414.44 1355 OFFCURVE",
"352.94 1355 CURVE SMOOTH",
"339.5 1355 OFFCURVE",
"292.62 1327.12 OFFCURVE",
"212.31 1271.38 CURVE",
"128 1379 LINE",
"216.44 1456 OFFCURVE",
"303.62 1533 OFFCURVE",
"389.5 1610.12 CURVE SMOOTH",
"507.44 1711.12 OFFCURVE",
"596 1764.25 OFFCURVE",
"655 1769.62 CURVE SMOOTH",
"794.5 1782.88 OFFCURVE",
"880.31 1688.38 OFFCURVE",
"912.56 1486.25 CURVE SMOOTH",
"947.37 1268 OFFCURVE",
"971.439 1132.25 OFFCURVE",
"984.999 1079.12 CURVE SMOOTH",
"1025.25 898.12 OFFCURVE",
"1069.5 807.75 OFFCURVE",
"1117.75 807.75 CURVE SMOOTH",
"1155.25 807.75 OFFCURVE",
"1211.5 866.5 OFFCURVE",
"1286.75 983.869 CURVE SMOOTH",
"1361.75 1101.25 OFFCURVE",
"1402 1190.62 OFFCURVE",
"1407.38 1252 CURVE SMOOTH",
"1418 1353.38 OFFCURVE",
"1377.88 1404.25 OFFCURVE",
"1286.75 1404.25 CURVE SMOOTH",
"1243.75 1404.25 OFFCURVE",
"1199.5 1394.38 OFFCURVE",
"1154 1375.12 CURVE",
"1242.12 1661 OFFCURVE",
"1410.5 1799.75 OFFCURVE",
"1658.75 1791.88 CURVE SMOOTH",
"1843 1786.5 OFFCURVE",
"1929.75 1668.12 OFFCURVE",
"1919.12 1436.75 CURVE SMOOTH"
);
}
);
width = 2048;
}
);
unicode = F212;
},
{
glyphname = uniF213;
layers = (
{
layerId = "BB9D08C5-CC12-4AD2-9413-180A7C7733FD";
name = Regular;
paths = (
{
closed = 1;
nodes = (
"512 1664 LINE SMOOTH",
"299.94 1664 OFFCURVE",
"128 1492.12 OFFCURVE",
"128 1280 CURVE SMOOTH",
"128 768 LINE SMOOTH",
"128 555.87 OFFCURVE",
"299.94 384 OFFCURVE",
"512 384 CURVE SMOOTH",
"1536 384 LINE SMOOTH",
"1748 384 OFFCURVE",
"1920 555.87 OFFCURVE",
"1920 768 CURVE SMOOTH",
"1920 1280 LINE SMOOTH",
"1920 1492.12 OFFCURVE",
"1748 1664 OFFCURVE",
"1536 1664 CURVE SMOOTH"
);
},
{
closed = 1;
nodes = (
"1408 1024 LINE",
"768 640 LINE",
"768 1408 LINE"
);
}
);
width = 2048;
}
);
unicode = F213;
},
{
glyphname = uniF214;
layers = (
{
layerId = "BB9D08C5-CC12-4AD2-9413-180A7C7733FD";
name = Regular;
paths = (
{
closed = 1;
nodes = (
"1091 1920 LINE",
"1091 1467 LINE",
"1517 1467 LINE",
"1517 1186 LINE",
"1091 1186 LINE",
"1091 726 LINE SMOOTH",
"1091 622 OFFCURVE",
"1097 556 OFFCURVE",
"1108 526 CURVE SMOOTH",
"1119 497 OFFCURVE",
"1139 473 OFFCURVE",
"1169 456 CURVE SMOOTH",
"1209 432 OFFCURVE",
"1254 420 OFFCURVE",
"1305 420 CURVE SMOOTH",
"1396 420 OFFCURVE",
"1486 449 OFFCURVE",
"1576 508 CURVE",
"1576 226 LINE",
"1499 190 OFFCURVE",
"1430 164 OFFCURVE",
"1368 150 CURVE SMOOTH",
"1306 135 OFFCURVE",
"1239 128 OFFCURVE",
"1167 128 CURVE SMOOTH",
"1085 128 OFFCURVE",
"1012 138 OFFCURVE",
"949 159 CURVE SMOOTH",
"886 180 OFFCURVE",
"833 209 OFFCURVE",
"788 248 CURVE SMOOTH",
"744 286 OFFCURVE",
"713 327 OFFCURVE",
"696 370 CURVE SMOOTH",
"679 413 OFFCURVE",
"670 475 OFFCURVE",
"670 557 CURVE SMOOTH",
"670 1186 LINE",
"472 1186 LINE",
"472 1439 LINE",
"542 1462 OFFCURVE",
"603 1495 OFFCURVE",
"653 1538 CURVE SMOOTH",
"703 1580 OFFCURVE",
"743 1632 OFFCURVE",
"774 1692 CURVE SMOOTH",
"804 1751 OFFCURVE",
"825 1828 OFFCURVE",
"836 1920 CURVE"
);
}
);
width = 2048;
}
);
unicode = F214;
},
{
glyphname = uniF215;
layers = (
{
layerId = "BB9D08C5-CC12-4AD2-9413-180A7C7733FD";
name = Regular;
paths = (
{
closed = 1;
nodes = (
"384 1920 LINE SMOOTH",
"243 1920 OFFCURVE",
"128 1805 OFFCURVE",
"128 1664 CURVE SMOOTH",
"128 384 LINE SMOOTH",
"128 243 OFFCURVE",
"243 128 OFFCURVE",
"384 128 CURVE SMOOTH",
"1664 128 LINE SMOOTH",
"1805 128 OFFCURVE",
"1920 243 OFFCURVE",
"1920 384 CURVE SMOOTH",
"1920 1664 LINE SMOOTH",
"1920 1805 OFFCURVE",
"1805 1920 OFFCURVE",
"1664 1920 CURVE SMOOTH"
);
},
{
closed = 1;
nodes = (
"1792 1536 LINE SMOOTH",
"1792 1465 OFFCURVE",
"1735 1408 OFFCURVE",
"1664 1408 CURVE SMOOTH",
"1536 1408 LINE SMOOTH",
"1465 1408 OFFCURVE",
"1408 1465 OFFCURVE",
"1408 1536 CURVE SMOOTH",
"1408 1664 LINE SMOOTH",
"1408 1735 OFFCURVE",
"1465 1792 OFFCURVE",
"1536 1792 CURVE SMOOTH",
"1664 1792 LINE SMOOTH",
"1735 1792 OFFCURVE",
"1792 1735 OFFCURVE",
"1792 1664 CURVE SMOOTH"
);
},
{
closed = 1;
nodes = (
"1236 1408 OFFCURVE",
"1408 1236 OFFCURVE",
"1408 1024 CURVE SMOOTH",
"1408 812 OFFCURVE",
"1236 640 OFFCURVE",
"1024 640 CURVE SMOOTH",
"812 640 OFFCURVE",
"640 812 OFFCURVE",
"640 1024 CURVE SMOOTH",
"640 1236 OFFCURVE",
"812 1408 OFFCURVE",
"1024 1408 CURVE SMOOTH"
);
},
{
closed = 1;
nodes = (
"1792 1152 LINE",
"1792 384 LINE SMOOTH",
"1792 313 OFFCURVE",
"1735 256 OFFCURVE",
"1664 256 CURVE SMOOTH",
"384 256 LINE SMOOTH",
"313 256 OFFCURVE",
"256 313 OFFCURVE",
"256 384 CURVE SMOOTH",
"256 1152 LINE",
"528 1152 LINE",
"518 1111 OFFCURVE",
"512 1068 OFFCURVE",
"512 1024 CURVE SMOOTH",
"512 741 OFFCURVE",
"741 512 OFFCURVE",
"1024 512 CURVE SMOOTH",
"1307 512 OFFCURVE",
"1536 741 OFFCURVE",
"1536 1024 CURVE SMOOTH",
"1536 1068 OFFCURVE",
"1530 1111 OFFCURVE",
"1520 1152 CURVE"
);
}
);
width = 2048;
}
);
unicode = F215;
},
{
glyphname = uniF216;
layers = (
{
layerId = "BB9D08C5-CC12-4AD2-9413-180A7C7733FD";
name = Regular;
paths = (
{
closed = 1;
nodes = (
"1061 1779 LINE SMOOTH",
"1050 1786 OFFCURVE",
"1037 1790 OFFCURVE",
"1024 1790 CURVE SMOOTH",
"1011 1790 OFFCURVE",
"997.999 1786 OFFCURVE",
"986.999 1779 CURVE SMOOTH",
"285 1312 LINE",
"268 1298 OFFCURVE",
"256 1280 OFFCURVE",
"256 1257 CURVE SMOOTH",
"256 790 LINE SMOOTH",
"256 767 OFFCURVE",
"268 749 OFFCURVE",
"285 736 CURVE",
"986.999 268 LINE",
"998.999 261 OFFCURVE",
"1011 257 OFFCURVE",
"1024 257 CURVE SMOOTH",
"1037 257 OFFCURVE",
"1050 261 OFFCURVE",
"1061 268 CURVE SMOOTH",
"1763 736 LINE",
"1780 749 OFFCURVE",
"1792 767 OFFCURVE",
"1792 790 CURVE SMOOTH",
"1792 1257 LINE SMOOTH",
"1792 1280 OFFCURVE",
"1780 1298 OFFCURVE",
"1763 1312 CURVE"
);
},
{
closed = 1;
nodes = (
"441 1257 LINE",
"958 1601 LINE",
"958 1294 LINE",
"672 1103 LINE"
);
},
{
closed = 1;
nodes = (
"1090 1294 LINE",
"1090 1601 LINE",
"1607 1257 LINE",
"1376 1103 LINE"
);
},
{
closed = 1;
nodes = (
"1258 1024 LINE",
"1024 868 LINE",
"791 1024 LINE",
"1024 1180 LINE"
);
},
{
closed = 1;
nodes = (
"388 914 LINE",
"388 1134 LINE",
"553 1024 LINE"
);
},
{
closed = 1;
nodes = (
"1660 1134 LINE",
"1660 914 LINE",
"1495 1024 LINE"
);
},
{
closed = 1;
nodes = (
"958 754 LINE",
"958 446 LINE",
"441 790 LINE",
"672 945 LINE"
);
},
{
closed = 1;
nodes = (
"1607 790 LINE",
"1090 446 LINE",
"1090 754 LINE",
"1376 945 LINE"
);
}
);
width = 2048;
}
);
unicode = F216;
},
{
glyphname = uniF217;
layers = (
{
layerId = "BB9D08C5-CC12-4AD2-9413-180A7C7733FD";
name = Regular;
paths = (
{
closed = 1;
nodes = (
"530 1920 OFFCURVE",
"128 1518 OFFCURVE",
"128 1024 CURVE SMOOTH",
"128 530 OFFCURVE",
"530 128 OFFCURVE",
"1024 128 CURVE SMOOTH",
"1518 128 OFFCURVE",
"1920 530 OFFCURVE",
"1920 1024 CURVE SMOOTH",
"1920 1518 OFFCURVE",
"1518 1920 OFFCURVE",
"1024 1920 CURVE SMOOTH"
);
},
{
closed = 1;
nodes = (
"574 208 OFFCURVE",
"208 574 OFFCURVE",
"208 1024 CURVE SMOOTH",
"208 1453 OFFCURVE",
"540 1806 OFFCURVE",
"961 1838 CURVE",
"949 1836 OFFCURVE",
"938 1835 OFFCURVE",
"926 1832 CURVE",
"689 1792 OFFCURVE",
"476 1644 OFFCURVE",
"359 1437 CURVE SMOOTH",
"242 1231 OFFCURVE",
"235 971.999 OFFCURVE",
"333 763 CURVE SMOOTH",
"427 553 OFFCURVE",
"624 391 OFFCURVE",
"850 355 CURVE SMOOTH",
"1074 316 OFFCURVE",
"1310 398 OFFCURVE",
"1458 561 CURVE SMOOTH",
"1612 722 OFFCURVE",
"1661 967 OFFCURVE",
"1591 1170 CURVE SMOOTH",
"1539 1332 OFFCURVE",
"1414 1469 OFFCURVE",
"1260 1533 CURVE",
"1566 1480 OFFCURVE",
"1813 1244 OFFCURVE",
"1813 925 CURVE SMOOTH",
"1813 835 OFFCURVE",
"1791 744 OFFCURVE",
"1754 659 CURVE",
"1620 392 OFFCURVE",
"1343 208 OFFCURVE",
"1024 208 CURVE SMOOTH"
);
},
{
closed = 1;
nodes = (
"1325 1762 OFFCURVE",
"1530 1657 OFFCURVE",
"1668 1489 CURVE SMOOTH",
"1694 1459 OFFCURVE",
"1717 1426 OFFCURVE",
"1738 1393 CURVE",
"1610 1553 OFFCURVE",
"1413 1656 OFFCURVE",
"1191 1656 CURVE SMOOTH",
"979.999 1656 OFFCURVE",
"791 1563 OFFCURVE",
"663 1414 CURVE",
"662 1413 LINE SMOOTH",
"657 1408 OFFCURVE",
"653 1403 OFFCURVE",
"648 1399 CURVE",
"645 1396 LINE",
"555 1298 OFFCURVE",
"499 1167 OFFCURVE",
"499 1023 CURVE SMOOTH",
"499 719 OFFCURVE",
"746 472 OFFCURVE",
"1049 472 CURVE SMOOTH",
"1101 472 OFFCURVE",
"1150 480 OFFCURVE",
"1197 493 CURVE",
"1032 418 OFFCURVE",
"827 426 OFFCURVE",
"666 522 CURVE SMOOTH",
"501 619 OFFCURVE",
"382 800 OFFCURVE",
"359 997.999 CURVE SMOOTH",
"332 1195 OFFCURVE",
"402 1405 OFFCURVE",
"548 1549 CURVE SMOOTH",
"692 1696 OFFCURVE",
"902 1780 OFFCURVE",
"1113 1770 CURVE SMOOTH"
);
},
{
closed = 1;
nodes = (
"1411 1188 OFFCURVE",
"1273 1355 OFFCURVE",
"1097 1380 CURVE",
"925 1411 OFFCURVE",
"746 1304 OFFCURVE",
"699 1142 CURVE SMOOTH",
"674 1063 OFFCURVE",
"682 975.999 OFFCURVE",
"716 904 CURVE SMOOTH",
"751 832 OFFCURVE",
"812 774 OFFCURVE",
"886 746 CURVE SMOOTH",
"1035 688 OFFCURVE",
"1211 771 OFFCURVE",
"1260 913 CURVE SMOOTH",
"1313 1055 OFFCURVE",
"1225 1220 OFFCURVE",
"1086 1252 CURVE SMOOTH",
"950 1288 OFFCURVE",
"803 1184 OFFCURVE",
"799 1051 CURVE SMOOTH",
"795 986.999 OFFCURVE",
"822 923 OFFCURVE",
"867 882 CURVE SMOOTH",
"912 840 OFFCURVE",
"976.999 823 OFFCURVE",
"1034 835 CURVE SMOOTH",
"1092 846 OFFCURVE",
"1142 885 OFFCURVE",
"1166 937 CURVE SMOOTH",
"1190 987.999 OFFCURVE",
"1186 1049 OFFCURVE",
"1158 1095 CURVE SMOOTH",
"1132 1141 OFFCURVE",
"1081 1172 OFFCURVE",
"1030 1174 CURVE SMOOTH",
"978.999 1177 OFFCURVE",
"930 1152 OFFCURVE",
"901 1113 CURVE SMOOTH",
"872 1074 OFFCURVE",
"867 1021 OFFCURVE",
"885 979.999 CURVE",
"887 976.999 LINE",
"904 920 OFFCURVE",
"956 879 OFFCURVE",
"1018 877 CURVE",
"988.999 874 OFFCURVE",
"958 879 OFFCURVE",
"931 893 CURVE SMOOTH",
"890 915 OFFCURVE",
"859 960 OFFCURVE",
"851 1009 CURVE SMOOTH",
"844 1058 OFFCURVE",
"859 1111 OFFCURVE",
"896 1147 CURVE SMOOTH",
"932 1184 OFFCURVE",
"984.999 1205 OFFCURVE",
"1038 1201 CURVE SMOOTH",
"1091 1198 OFFCURVE",
"1141 1170 OFFCURVE",
"1174 1124 CURVE SMOOTH",
"1206 1080 OFFCURVE",
"1219 1021 OFFCURVE",
"1208 965 CURVE SMOOTH",
"1197 910 OFFCURVE",
"1160 860 OFFCURVE",
"1110 830 CURVE SMOOTH",
"1060 799 OFFCURVE",
"996.999 789 OFFCURVE",
"938 804 CURVE SMOOTH",
"880 819 OFFCURVE",
"828 858 OFFCURVE",
"796 912 CURVE SMOOTH",
"764 965 OFFCURVE",
"753 1032 OFFCURVE",
"766 1094 CURVE SMOOTH",
"779 1157 OFFCURVE",
"817 1212 OFFCURVE",
"871 1251 CURVE SMOOTH",
"977.999 1330 OFFCURVE",
"1145 1318 OFFCURVE",
"1239 1214 CURVE",
"1338 1116 OFFCURVE",
"1358 943 OFFCURVE",
"1275 823 CURVE",
"1197 699 OFFCURVE",
"1030 636 OFFCURVE",
"883 680 CURVE SMOOTH",
"737 720 OFFCURVE",
"623 866 OFFCURVE",
"612 1025 CURVE SMOOTH",
"606 1104 OFFCURVE",
"624 1186 OFFCURVE",
"664 1256 CURVE SMOOTH",
"704 1325 OFFCURVE",
"768 1384 OFFCURVE",
"841 1423 CURVE SMOOTH",
"987.999 1501 OFFCURVE",
"1183 1489 OFFCURVE",
"1320 1385 CURVE SMOOTH",
"1432 1302 OFFCURVE",
"1507 1168 OFFCURVE",
"1521 1025 CURVE",
"1521 1023 LINE SMOOTH",
"1521 763 OFFCURVE",
"1309 551 OFFCURVE",
"1049 551 CURVE SMOOTH",
"987.999 551 OFFCURVE",
"929 563 OFFCURVE",
"875 585 CURVE",
"953 567 OFFCURVE",
"1034 569 OFFCURVE",
"1109 592 CURVE SMOOTH",
"1199 619 OFFCURVE",
"1279 675 OFFCURVE",
"1334 749 CURVE SMOOTH",
"1390 823 OFFCURVE",
"1419 916 OFFCURVE",
"1415 1006 CURVE SMOOTH"
);
}
);
width = 2048;
}
);
unicode = F217;
},
{
glyphname = uniF218;
layers = (
{
layerId = "BB9D08C5-CC12-4AD2-9413-180A7C7733FD";
name = Regular;
paths = (
{
closed = 1;
nodes = (
"1151 1835.31 LINE",
"1005.25 1835.31 LINE",
"1059.25 1790.62 OFFCURVE",
"1172.25 1696.62 OFFCURVE",
"1172.25 1517.81 CURVE SMOOTH",
"1172.25 1343.81 OFFCURVE",
"1073.44 1261.56 OFFCURVE",
"974.689 1183.88 CURVE",
"944.119 1153.38 OFFCURVE",
"908.809 1120.38 OFFCURVE",
"908.809 1068.62 CURVE SMOOTH",
"908.809 1017 OFFCURVE",
"944.119 988.75 OFFCURVE",
"969.939 967.5 CURVE SMOOTH",
"1054.62 901.75 LINE",
"1158 814.75 OFFCURVE",
"1252 734.75 OFFCURVE",
"1252 572.5 CURVE SMOOTH",
"1252 351.37 OFFCURVE",
"1038.12 128 OFFCURVE",
"633.69 128 CURVE SMOOTH",
"292.62 128 OFFCURVE",
"128 290.25 OFFCURVE",
"128 464.37 CURVE SMOOTH",
"128 549 OFFCURVE",
"170.31 668.87 OFFCURVE",
"309.12 751.25 CURVE SMOOTH",
"454.94 840.62 OFFCURVE",
"652.5 852.37 OFFCURVE",
"758.249 859.37 CURVE",
"725.37 901.75 OFFCURVE",
"687.75 946.37 OFFCURVE",
"687.75 1019.12 CURVE SMOOTH",
"687.75 1059.38 OFFCURVE",
"699.5 1082.88 OFFCURVE",
"711.25 1110.88 CURVE",
"685.31 1108.75 OFFCURVE",
"659.56 1106.25 OFFCURVE",
"636 1106.25 CURVE SMOOTH",
"386.75 1106.25 OFFCURVE",
"245.62 1292.19 OFFCURVE",
"245.62 1475.56 CURVE SMOOTH",
"245.62 1583.69 OFFCURVE",
"295 1703.62 OFFCURVE",
"396.12 1790.62 CURVE SMOOTH",
"530.25 1901.19 OFFCURVE",
"690.12 1920 OFFCURVE",
"817.059 1920 CURVE SMOOTH",
"1301.5 1920 LINE"
);
},
{
closed = 1;
nodes = (
"960.559 1292.19 OFFCURVE",
"965.249 1367.38 OFFCURVE",
"965.249 1409.62 CURVE SMOOTH",
"965.249 1579.06 OFFCURVE",
"864.119 1842.44 OFFCURVE",
"669 1842.44 CURVE SMOOTH",
"607.75 1842.44 OFFCURVE",
"542 1811.81 OFFCURVE",
"504.31 1764.81 CURVE SMOOTH",
"464.31 1715.44 OFFCURVE",
"452.56 1651.88 OFFCURVE",
"452.56 1590.75 CURVE SMOOTH",
"452.56 1433.19 OFFCURVE",
"544.25 1172.25 OFFCURVE",
"746.559 1172.25 CURVE SMOOTH",
"805.309 1172.25 OFFCURVE",
"868.809 1200.5 OFFCURVE",
"906.499 1238 CURVE SMOOTH"
);
},
{
closed = 1;
nodes = (
"2048 1152 LINE",
"1792 1152 LINE",
"1792 1408 LINE",
"1664 1408 LINE",
"1664 1152 LINE",
"1408 1152 LINE",
"1408 1024 LINE",
"1664 1024 LINE",
"1664 768 LINE",
"1792 768 LINE",
"1792 1024 LINE",
"2048 1024 LINE"
);
},
{
closed = 1;
nodes = (
"819.369 793.5 OFFCURVE",
"807.619 793.5 OFFCURVE",
"784.189 793.5 CURVE SMOOTH",
"763.059 793.5 OFFCURVE",
"636 788.87 OFFCURVE",
"537.25 755.87 CURVE SMOOTH",
"485.44 737.12 OFFCURVE",
"334.94 680.75 OFFCURVE",
"334.94 513.62 CURVE SMOOTH",
"334.94 346.87 OFFCURVE",
"497.25 226.75 OFFCURVE",
"748.879 226.75 CURVE SMOOTH",
"974.689 226.75 OFFCURVE",
"1094.56 335 OFFCURVE",
"1094.56 480.75 CURVE SMOOTH",
"1094.56 600.62 OFFCURVE",
"1017 664.25 OFFCURVE",
"838.249 791.25 CURVE"
);
}
);
width = 2048;
}
);
unicode = F218;
},
{
glyphname = uniF219;
layers = (
{
layerId = "BB9D08C5-CC12-4AD2-9413-180A7C7733FD";
name = Regular;
paths = (
{
closed = 1;
nodes = (
"1438.12 1832.75 LINE",
"1438.12 1832.75 OFFCURVE",
"709.18 2125.75 OFFCURVE",
"278.37 1638.06 CURVE",
"-53 1184.94 OFFCURVE",
"285.81 766.5 OFFCURVE",
"285.81 766.5 CURVE",
"511.12 967 LINE",
"511.12 967 OFFCURVE",
"342.75 1167.62 OFFCURVE",
"474 1390.44 CURVE SMOOTH",
"647.25 1670.19 OFFCURVE",
"996.439 1647.94 OFFCURVE",
"996.439 1647.94 CURVE SMOOTH",
"996.439 1647.94 OFFCURVE",
"1553.25 1650.44 OFFCURVE",
"1543.37 1175.06 CURVE",
"1481.37 746.75 OFFCURVE",
"1021.06 885.25 OFFCURVE",
"1021.06 885.25 CURVE",
"1021.06 1422.69 LINE",
"709.19 1422.69 LINE",
"709.19 476.75 LINE",
"664.75 352.5 OFFCURVE",
"552.69 401.25 OFFCURVE",
"469 486.75 CURVE",
"469 207 LINE",
"469 207 OFFCURVE",
"637.31 80.7501 OFFCURVE",
"820.62 147.5 CURVE SMOOTH",
"1003.8 214.5 OFFCURVE",
"1023.55 367.75 OFFCURVE",
"1023.55 367.75 CURVE",
"1023.55 645.25 LINE",
"1023.55 645.25 OFFCURVE",
"1540.86 439.75 OFFCURVE",
"1808.24 994.25 CURVE",
"2001.49 1603.37 OFFCURVE",
"1438.11 1832.75 OFFCURVE",
"1438.11 1832.75 CURVE"
);
}
);
width = 2048;
}
);
unicode = F219;
},
{
glyphname = uniF220;
layers = (
{
layerId = "BB9D08C5-CC12-4AD2-9413-180A7C7733FD";
name = Regular;
paths = (
{
closed = 1;
nodes = (
"1870 892 OFFCURVE",
"1876 953 OFFCURVE",
"1876 1015 CURVE SMOOTH",
"1876 1480 OFFCURVE",
"1499 1857 OFFCURVE",
"1034 1857 CURVE SMOOTH",
"984.999 1857 OFFCURVE",
"936 1853 OFFCURVE",
"890 1845 CURVE",
"814 1893 OFFCURVE",
"725 1920 OFFCURVE",
"630 1920 CURVE SMOOTH",
"360 1920 OFFCURVE",
"141 1701 OFFCURVE",
"141 1431 CURVE SMOOTH",
"141 1341 OFFCURVE",
"166 1257 OFFCURVE",
"208 1184 CURVE",
"197 1130 OFFCURVE",
"191 1073 OFFCURVE",
"191 1015 CURVE SMOOTH",
"191 550 OFFCURVE",
"568 172 OFFCURVE",
"1033 172 CURVE SMOOTH",
"1086 172 OFFCURVE",
"1137 177 OFFCURVE",
"1188 186 CURVE",
"1257 149 OFFCURVE",
"1335 128 OFFCURVE",
"1419 128 CURVE SMOOTH",
"1688 128 OFFCURVE",
"1907 347 OFFCURVE",
"1907 617 CURVE SMOOTH",
"1908 695 OFFCURVE",
"1889 768 OFFCURVE",
"1857 834 CURVE"
);
},
{
closed = 1;
nodes = (
"1427 557 OFFCURVE",
"1370 513 OFFCURVE",
"1295 482 CURVE SMOOTH",
"1221 452 OFFCURVE",
"1132 436 OFFCURVE",
"1032 436 CURVE SMOOTH",
"911 436 OFFCURVE",
"809 457 OFFCURVE",
"730 499 CURVE SMOOTH",
"673 530 OFFCURVE",
"626 571 OFFCURVE",
"591 622 CURVE SMOOTH",
"555 674 OFFCURVE",
"537 726 OFFCURVE",
"537 775 CURVE SMOOTH",
"537 806 OFFCURVE",
"549 832 OFFCURVE",
"573 854 CURVE SMOOTH",
"596 876 OFFCURVE",
"625 887 OFFCURVE",
"660 887 CURVE SMOOTH",
"689 887 OFFCURVE",
"714 878 OFFCURVE",
"735 861 CURVE SMOOTH",
"755 845 OFFCURVE",
"771 820 OFFCURVE",
"784 789 CURVE SMOOTH",
"799 754 OFFCURVE",
"815 726 OFFCURVE",
"833 703 CURVE",
"849 681 OFFCURVE",
"873 663 OFFCURVE",
"903 649 CURVE SMOOTH",
"934 634 OFFCURVE",
"974.999 627 OFFCURVE",
"1026 627 CURVE SMOOTH",
"1095 627 OFFCURVE",
"1153 642 OFFCURVE",
"1196 671 CURVE SMOOTH",
"1238 699 OFFCURVE",
"1258 734 OFFCURVE",
"1258 776 CURVE SMOOTH",
"1258 809 OFFCURVE",
"1247 836 OFFCURVE",
"1225 856 CURVE SMOOTH",
"1202 878 OFFCURVE",
"1172 894 OFFCURVE",
"1135 906 CURVE SMOOTH",
"1097 917 OFFCURVE",
"1045 930 OFFCURVE",
"980.999 944 CURVE SMOOTH",
"893 962 OFFCURVE",
"819 984.999 OFFCURVE",
"760 1010 CURVE SMOOTH",
"700 1036 OFFCURVE",
"651 1071 OFFCURVE",
"616 1115 CURVE SMOOTH",
"579 1161 OFFCURVE",
"561 1217 OFFCURVE",
"561 1285 CURVE SMOOTH",
"561 1348 OFFCURVE",
"580 1406 OFFCURVE",
"618 1455 CURVE SMOOTH",
"656 1504 OFFCURVE",
"711 1542 OFFCURVE",
"782 1568 CURVE SMOOTH",
"852 1594 OFFCURVE",
"935 1608 OFFCURVE",
"1029 1608 CURVE SMOOTH",
"1104 1608 OFFCURVE",
"1170 1599 OFFCURVE",
"1226 1582 CURVE SMOOTH",
"1281 1565 OFFCURVE",
"1328 1541 OFFCURVE",
"1365 1512 CURVE SMOOTH",
"1402 1483 OFFCURVE",
"1430 1453 OFFCURVE",
"1447 1420 CURVE SMOOTH",
"1463 1388 OFFCURVE",
"1472 1356 OFFCURVE",
"1472 1324 CURVE SMOOTH",
"1472 1294 OFFCURVE",
"1461 1267 OFFCURVE",
"1438 1243 CURVE SMOOTH",
"1415 1219 OFFCURVE",
"1386 1207 OFFCURVE",
"1351 1207 CURVE SMOOTH",
"1319 1207 OFFCURVE",
"1295 1215 OFFCURVE",
"1279 1229 CURVE SMOOTH",
"1263 1243 OFFCURVE",
"1247 1265 OFFCURVE",
"1228 1296 CURVE",
"1207 1336 OFFCURVE",
"1182 1368 OFFCURVE",
"1153 1390 CURVE SMOOTH",
"1124 1411 OFFCURVE",
"1077 1422 OFFCURVE",
"1012 1422 CURVE SMOOTH",
"952 1422 OFFCURVE",
"902 1410 OFFCURVE",
"866 1386 CURVE SMOOTH",
"831 1363 OFFCURVE",
"814 1337 OFFCURVE",
"814 1306 CURVE SMOOTH",
"814 1287 OFFCURVE",
"819 1271 OFFCURVE",
"831 1257 CURVE",
"842 1242 OFFCURVE",
"859 1229 OFFCURVE",
"881 1219 CURVE",
"903 1207 OFFCURVE",
"926 1198 OFFCURVE",
"949 1192 CURVE",
"971.999 1185 OFFCURVE",
"1011 1176 OFFCURVE",
"1065 1164 CURVE SMOOTH",
"1133 1149 OFFCURVE",
"1196 1133 OFFCURVE",
"1252 1115 CURVE SMOOTH",
"1308 1097 OFFCURVE",
"1356 1075 OFFCURVE",
"1395 1049 CURVE SMOOTH",
"1436 1023 OFFCURVE",
"1468 988.999 OFFCURVE",
"1491 949 CURVE SMOOTH",
"1514 908 OFFCURVE",
"1525 859 OFFCURVE",
"1525 800 CURVE SMOOTH",
"1525 731 OFFCURVE",
"1505 668 OFFCURVE",
"1466 612 CURVE SMOOTH"
);
}
);
width = 2048;
}
);
unicode = F220;
},
{
glyphname = uniF221;
layers = (
{
layerId = "BB9D08C5-CC12-4AD2-9413-180A7C7733FD";
name = Regular;
paths = (
{
closed = 1;
nodes = (
"1664 1095 OFFCURVE",
"1607 1152 OFFCURVE",
"1536 1152 CURVE SMOOTH",
"1120 1152 LINE SMOOTH",
"1120 1152 OFFCURVE",
"1152 1280 OFFCURVE",
"1152 1472 CURVE SMOOTH",
"1152 1648 OFFCURVE",
"1024 1792 OFFCURVE",
"960 1792 CURVE SMOOTH",
"896 1792 OFFCURVE",
"896 1664 OFFCURVE",
"896 1664 CURVE",
"896 1280 OFFCURVE",
"704 1024 OFFCURVE",
"576 1024 CURVE SMOOTH",
"384 1024 LINE",
"384 384 LINE",
"512 384 LINE SMOOTH",
"640 384 OFFCURVE",
"704 256 OFFCURVE",
"896 256 CURVE SMOOTH",
"1344 256 LINE SMOOTH",
"1415 256 OFFCURVE",
"1472 313 OFFCURVE",
"1472 384 CURVE SMOOTH",
"1472 455 OFFCURVE",
"1415 512 OFFCURVE",
"1344 512 CURVE",
"1408 512 LINE SMOOTH",
"1479 512 OFFCURVE",
"1536 569 OFFCURVE",
"1536 640 CURVE SMOOTH",
"1536 667 OFFCURVE",
"1528 691 OFFCURVE",
"1514 712 CURVE",
"1564 729 OFFCURVE",
"1600 776 OFFCURVE",
"1600 832 CURVE SMOOTH",
"1600 859 OFFCURVE",
"1592 883 OFFCURVE",
"1578 904 CURVE",
"1628 921 OFFCURVE",
"1664 967.999 OFFCURVE",
"1664 1024 CURVE SMOOTH"
);
}
);
width = 2048;
}
);
unicode = F221;
},
{
glyphname = uniF222;
layers = (
{
layerId = "BB9D08C5-CC12-4AD2-9413-180A7C7733FD";
name = Regular;
paths = (
{
closed = 1;
nodes = (
"1843 1279 OFFCURVE",
"1753 1369 OFFCURVE",
"1643 1369 CURVE SMOOTH",
"1575 1369 OFFCURVE",
"1516 1335 OFFCURVE",
"1480 1283 CURVE",
"1369 1344 OFFCURVE",
"1232 1383 OFFCURVE",
"1083 1391 CURVE",
"1160 1777 LINE",
"1422 1717 LINE",
"1428 1623 OFFCURVE",
"1505 1549 OFFCURVE",
"1600 1549 CURVE SMOOTH",
"1699 1549 OFFCURVE",
"1779 1629 OFFCURVE",
"1779 1728 CURVE SMOOTH",
"1779 1827 OFFCURVE",
"1699 1907 OFFCURVE",
"1600 1907 CURVE SMOOTH",
"1534 1907 OFFCURVE",
"1476 1870 OFFCURVE",
"1445 1817 CURVE",
"1132 1889 LINE SMOOTH",
"1119 1892 OFFCURVE",
"1105 1890 OFFCURVE",
"1093 1882 CURVE",
"1081 1875 OFFCURVE",
"1073 1863 OFFCURVE",
"1070 1849 CURVE SMOOTH",
"977.999 1392 LINE",
"823 1386 OFFCURVE",
"681 1347 OFFCURVE",
"566 1286 CURVE",
"530 1336 OFFCURVE",
"472 1369 OFFCURVE",
"406 1369 CURVE SMOOTH",
"295 1369 OFFCURVE",
"205 1279 OFFCURVE",
"205 1168 CURVE SMOOTH",
"205 1096 OFFCURVE",
"244 1034 OFFCURVE",
"302 998.999 CURVE",
"292 965 OFFCURVE",
"286 931 OFFCURVE",
"286 895 CURVE SMOOTH",
"286 621 OFFCURVE",
"616 398 OFFCURVE",
"1021 398 CURVE SMOOTH",
"1426 398 OFFCURVE",
"1755 621 OFFCURVE",
"1755 896 CURVE SMOOTH",
"1755 930 OFFCURVE",
"1750 963 OFFCURVE",
"1741 994.999 CURVE",
"1801 1030 OFFCURVE",
"1843 1093 OFFCURVE",
"1843 1168 CURVE SMOOTH"
);
},
{
closed = 1;
nodes = (
"1642 1805 OFFCURVE",
"1677 1770 OFFCURVE",
"1677 1728 CURVE SMOOTH",
"1677 1686 OFFCURVE",
"1642 1651 OFFCURVE",
"1600 1651 CURVE SMOOTH",
"1558 1651 OFFCURVE",
"1523 1686 OFFCURVE",
"1523 1728 CURVE SMOOTH",
"1523 1770 OFFCURVE",
"1558 1805 OFFCURVE",
"1600 1805 CURVE SMOOTH"
);
},
{
closed = 1;
nodes = (
"672 501 OFFCURVE",
"388 678 OFFCURVE",
"388 896 CURVE SMOOTH",
"388 1114 OFFCURVE",
"672 1291 OFFCURVE",
"1021 1291 CURVE SMOOTH",
"1369 1291 OFFCURVE",
"1653 1114 OFFCURVE",
"1653 895 CURVE SMOOTH",
"1653 678 OFFCURVE",
"1369 501 OFFCURVE",
"1021 501 CURVE SMOOTH"
);
},
{
closed = 1;
nodes = (
"307 1222 OFFCURVE",
"351 1266 OFFCURVE",
"406 1266 CURVE SMOOTH",
"436 1266 OFFCURVE",
"461 1252 OFFCURVE",
"479 1230 CURVE",
"424 1190 OFFCURVE",
"379 1144 OFFCURVE",
"347 1093 CURVE",
"323 1110 OFFCURVE",
"307 1137 OFFCURVE",
"307 1168 CURVE SMOOTH"
);
},
{
closed = 1;
nodes = (
"1666 1140 OFFCURVE",
"1621 1187 OFFCURVE",
"1567 1227 CURVE",
"1585 1250 OFFCURVE",
"1611 1266 OFFCURVE",
"1643 1266 CURVE SMOOTH",
"1697 1266 OFFCURVE",
"1741 1222 OFFCURVE",
"1741 1168 CURVE SMOOTH",
"1741 1135 OFFCURVE",
"1723 1107 OFFCURVE",
"1698 1089 CURVE"
);
},
{
closed = 1;
nodes = (
"895 1044 OFFCURVE",
"845 1094 OFFCURVE",
"783 1094 CURVE SMOOTH",
"722 1094 OFFCURVE",
"672 1044 OFFCURVE",
"672 981.999 CURVE SMOOTH",
"672 921 OFFCURVE",
"722 870 OFFCURVE",
"783 870 CURVE SMOOTH",
"845 870 OFFCURVE",
"895 921 OFFCURVE",
"895 981.999 CURVE SMOOTH"
);
},
{
closed = 1;
nodes = (
"1203 1094 OFFCURVE",
"1153 1044 OFFCURVE",
"1153 981.999 CURVE SMOOTH",
"1153 921 OFFCURVE",
"1203 870 OFFCURVE",
"1265 870 CURVE SMOOTH",
"1327 870 OFFCURVE",
"1377 921 OFFCURVE",
"1377 981.999 CURVE SMOOTH",
"1377 1044 OFFCURVE",
"1327 1094 OFFCURVE",
"1265 1094 CURVE SMOOTH"
);
},
{
closed = 1;
nodes = (
"1186 738 OFFCURVE",
"1121 720 OFFCURVE",
"1023 720 CURVE SMOOTH",
"927 720 OFFCURVE",
"862 738 OFFCURVE",
"824 776 CURVE SMOOTH",
"804 796 OFFCURVE",
"772 796 OFFCURVE",
"752 776 CURVE SMOOTH",
"732 756 OFFCURVE",
"732 723 OFFCURVE",
"752 703 CURVE SMOOTH",
"809 646 OFFCURVE",
"898 617 OFFCURVE",
"1025 617 CURVE SMOOTH",
"1150 617 OFFCURVE",
"1239 646 OFFCURVE",
"1296 703 CURVE SMOOTH",
"1316 723 OFFCURVE",
"1316 756 OFFCURVE",
"1296 776 CURVE SMOOTH",
"1276 796 OFFCURVE",
"1244 796 OFFCURVE",
"1224 776 CURVE SMOOTH"
);
}
);
width = 2048;
}
);
unicode = F222;
},
{
glyphname = uniF223;
layers = (
{
layerId = "BB9D08C5-CC12-4AD2-9413-180A7C7733FD";
name = Regular;
paths = (
{
closed = 1;
nodes = (
"1105 1233 LINE",
"1210 1185 LINE",
"1367 1230 LINE",
"1367 1337 LINE",
"1361 1518 OFFCURVE",
"1210 1664 OFFCURVE",
"1024 1664 CURVE SMOOTH",
"839 1664 OFFCURVE",
"688 1520 OFFCURVE",
"681 1339 CURVE",
"681 852 LINE SMOOTH",
"681 808 OFFCURVE",
"645 772 OFFCURVE",
"600 772 CURVE SMOOTH",
"555 772 OFFCURVE",
"519 808 OFFCURVE",
"519 852 CURVE SMOOTH",
"519 1058 LINE",
"256 1058 LINE",
"256 849 LINE SMOOTH",
"256 663 OFFCURVE",
"410 512 OFFCURVE",
"599 512 CURVE SMOOTH",
"787 512 OFFCURVE",
"940 660 OFFCURVE",
"942 844 CURVE SMOOTH",
"943 1325 LINE SMOOTH",
"943 1370 OFFCURVE",
"978.999 1405 OFFCURVE",
"1024 1405 CURVE SMOOTH",
"1069 1405 OFFCURVE",
"1105 1370 OFFCURVE",
"1105 1325 CURVE SMOOTH"
);
},
{
closed = 1;
nodes = (
"1792 1058 LINE",
"1529 1058 LINE",
"1529 842 LINE SMOOTH",
"1529 798 OFFCURVE",
"1493 762 OFFCURVE",
"1448 762 CURVE SMOOTH",
"1403 762 OFFCURVE",
"1367 798 OFFCURVE",
"1367 842 CURVE SMOOTH",
"1367 1054 LINE",
"1210 1008 LINE",
"1105 1056 LINE",
"1105 846 LINE SMOOTH",
"1107 661 OFFCURVE",
"1260 512 OFFCURVE",
"1449 512 CURVE SMOOTH",
"1638 512 OFFCURVE",
"1792 663 OFFCURVE",
"1792 849 CURVE SMOOTH"
);
}
);
width = 2048;
}
);
unicode = F223;
},
{
glyphname = uniF224;
layers = (
{
layerId = "BB9D08C5-CC12-4AD2-9413-180A7C7733FD";
name = Regular;
paths = (
{
closed = 1;
nodes = (
"512 1792 LINE SMOOTH",
"371 1792 OFFCURVE",
"256 1677 OFFCURVE",
"256 1536 CURVE SMOOTH",
"256 1152 LINE SMOOTH",
"256 728 OFFCURVE",
"600 384 OFFCURVE",
"1024 384 CURVE SMOOTH",
"1448 384 OFFCURVE",
"1792 728 OFFCURVE",
"1792 1152 CURVE SMOOTH",
"1792 1536 LINE SMOOTH",
"1792 1677 OFFCURVE",
"1677 1792 OFFCURVE",
"1536 1792 CURVE SMOOTH"
);
},
{
closed = 1;
nodes = (
"1024 1077 LINE",
"1318 1371 LINE SMOOTH",
"1343 1396 OFFCURVE",
"1375 1408 OFFCURVE",
"1408 1408 CURVE SMOOTH",
"1441 1408 OFFCURVE",
"1474 1396 OFFCURVE",
"1499 1371 CURVE SMOOTH",
"1549 1321 OFFCURVE",
"1549 1240 OFFCURVE",
"1499 1190 CURVE SMOOTH",
"1137 828 LINE",
"1132 832 LINE",
"1110 794 OFFCURVE",
"1071 768 OFFCURVE",
"1024 768 CURVE SMOOTH",
"976.999 768 OFFCURVE",
"938 794 OFFCURVE",
"916 832 CURVE",
"912 828 LINE",
"550 1190 LINE SMOOTH",
"500 1240 OFFCURVE",
"500 1321 OFFCURVE",
"550 1371 CURVE SMOOTH",
"574 1396 OFFCURVE",
"607 1408 OFFCURVE",
"640 1408 CURVE SMOOTH",
"673 1408 OFFCURVE",
"706 1396 OFFCURVE",
"731 1371 CURVE SMOOTH"
);
}
);
width = 2048;
}
);
unicode = F224;
},
{
glyphname = uniF299;
lastChange = "2013-11-13 04:21:53 -0500";
layers = (
{
layerId = "BB9D08C5-CC12-4AD2-9413-180A7C7733FD";
name = Regular;
paths = (
{
closed = 1;
nodes = (
"433 926 OFFCURVE",
"471 888 OFFCURVE",
"517 888 CURVE SMOOTH",
"564 888 OFFCURVE",
"601 926 OFFCURVE",
"601 972 CURVE SMOOTH",
"601 1019 OFFCURVE",
"564 1056 OFFCURVE",
"517 1056 CURVE SMOOTH",
"471 1056 OFFCURVE",
"433 1019 OFFCURVE",
"433 972 CURVE SMOOTH"
);
},
{
closed = 1;
nodes = (
"1447 926 OFFCURVE",
"1484 888 OFFCURVE",
"1531 888 CURVE SMOOTH",
"1577 888 OFFCURVE",
"1615 926 OFFCURVE",
"1615 972 CURVE SMOOTH",
"1615 1019 OFFCURVE",
"1577 1056 OFFCURVE",
"1531 1056 CURVE SMOOTH",
"1484 1056 OFFCURVE",
"1447 1019 OFFCURVE",
"1447 972 CURVE SMOOTH"
);
},
{
closed = 1;
nodes = (
"295 1101 OFFCURVE",
"269 1038 OFFCURVE",
"269 972 CURVE SMOOTH",
"269 906 OFFCURVE",
"295 843 OFFCURVE",
"341 796 CURVE SMOOTH",
"388 749 OFFCURVE",
"451 724 OFFCURVE",
"517 724 CURVE SMOOTH",
"654 724 OFFCURVE",
"766 835 OFFCURVE",
"766 972 CURVE SMOOTH",
"766 1109 OFFCURVE",
"654 1221 OFFCURVE",
"517 1221 CURVE SMOOTH",
"451 1221 OFFCURVE",
"388 1195 OFFCURVE",
"341 1148 CURVE SMOOTH"
);
},
{
closed = 1;
nodes = (
"363 883 OFFCURVE",
"345 926 OFFCURVE",
"345 972 CURVE SMOOTH",
"345 1018 OFFCURVE",
"363 1061 OFFCURVE",
"395 1094 CURVE SMOOTH",
"428 1127 OFFCURVE",
"471 1144 OFFCURVE",
"517 1144 CURVE SMOOTH",
"612 1144 OFFCURVE",
"690 1067 OFFCURVE",
"690 972 CURVE SMOOTH",
"690 877 OFFCURVE",
"612 800 OFFCURVE",
"517 800 CURVE SMOOTH",
"471 800 OFFCURVE",
"428 818 OFFCURVE",
"395 850 CURVE SMOOTH"
);
},
{
closed = 1;
nodes = (
"1308 1101 OFFCURVE",
"1282 1038 OFFCURVE",
"1282 972 CURVE SMOOTH",
"1282 906 OFFCURVE",
"1308 843 OFFCURVE",
"1355 796 CURVE SMOOTH",
"1402 749 OFFCURVE",
"1464 724 OFFCURVE",
"1531 724 CURVE SMOOTH",
"1668 724 OFFCURVE",
"1779 835 OFFCURVE",
"1779 972 CURVE SMOOTH",
"1779 1109 OFFCURVE",
"1668 1221 OFFCURVE",
"1531 1221 CURVE SMOOTH",
"1464 1221 OFFCURVE",
"1402 1195 OFFCURVE",
"1355 1148 CURVE SMOOTH"
);
},
{
closed = 1;
nodes = (
"1376 883 OFFCURVE",
"1358 926 OFFCURVE",
"1358 972 CURVE SMOOTH",
"1358 1018 OFFCURVE",
"1376 1061 OFFCURVE",
"1409 1094 CURVE SMOOTH",
"1441 1127 OFFCURVE",
"1485 1144 OFFCURVE",
"1531 1144 CURVE SMOOTH",
"1626 1144 OFFCURVE",
"1703 1067 OFFCURVE",
"1703 972 CURVE SMOOTH",
"1703 877 OFFCURVE",
"1626 800 OFFCURVE",
"1531 800 CURVE SMOOTH",
"1485 800 OFFCURVE",
"1441 818 OFFCURVE",
"1409 850 CURVE SMOOTH"
);
},
{
closed = 1;
nodes = (
"1951 1357 OFFCURVE",
"1981 1425 OFFCURVE",
"2022 1467 CURVE",
"1682 1467 LINE",
"1677 1468 OFFCURVE",
"1671 1469 OFFCURVE",
"1665 1471 CURVE",
"1646 1500 OFFCURVE",
"1520 1691 OFFCURVE",
"1015 1691 CURVE SMOOTH",
"461 1691 OFFCURVE",
"363 1467 OFFCURVE",
"363 1467 CURVE SMOOTH",
"9 1467 LINE",
"54 1421 OFFCURVE",
"85 1344 OFFCURVE",
"105 1283 CURVE",
"39 1196 OFFCURVE",
"0 1089 OFFCURVE",
"0 972 CURVE SMOOTH",
"0 687 OFFCURVE",
"232 455 OFFCURVE",
"517 455 CURVE SMOOTH",
"675 455 OFFCURVE",
"817 526 OFFCURVE",
"912 638 CURVE",
"1029 474 LINE",
"1131 645 LINE",
"1226 529 OFFCURVE",
"1370 455 OFFCURVE",
"1531 455 CURVE SMOOTH",
"1816 455 OFFCURVE",
"2048 687 OFFCURVE",
"2048 972 CURVE SMOOTH",
"2048 1096 OFFCURVE",
"2004 1210 OFFCURVE",
"1931 1299 CURVE"
);
},
{
closed = 1;
nodes = (
"288 556 OFFCURVE",
"102 743 OFFCURVE",
"102 972 CURVE SMOOTH",
"102 1201 OFFCURVE",
"288 1388 OFFCURVE",
"517 1388 CURVE SMOOTH",
"746 1388 OFFCURVE",
"933 1201 OFFCURVE",
"933 972 CURVE SMOOTH",
"933 743 OFFCURVE",
"746 556 OFFCURVE",
"517 556 CURVE SMOOTH"
);
},
{
closed = 1;
nodes = (
"524 1456 OFFCURVE",
"658 1590 OFFCURVE",
"1012 1590 CURVE SMOOTH",
"1047 1590 LINE SMOOTH",
"1401 1590 OFFCURVE",
"1534 1456 OFFCURVE",
"1534 1456 CURVE SMOOTH",
"1534 1456 OFFCURVE",
"1156 1519 OFFCURVE",
"1029 1053 CURVE",
"903 1519 OFFCURVE",
"524 1456 OFFCURVE",
"524 1456 CURVE SMOOTH"
);
},
{
closed = 1;
nodes = (
"1302 556 OFFCURVE",
"1115 743 OFFCURVE",
"1115 972 CURVE SMOOTH",
"1115 1201 OFFCURVE",
"1302 1388 OFFCURVE",
"1531 1388 CURVE SMOOTH",
"1760 1388 OFFCURVE",
"1946 1201 OFFCURVE",
"1946 972 CURVE SMOOTH",
"1946 743 OFFCURVE",
"1760 556 OFFCURVE",
"1531 556 CURVE SMOOTH"
);
}
);
width = 2048;
}
);
unicode = F299;
},
{
glyphname = uniF300;
layers = (
{
layerId = "BB9D08C5-CC12-4AD2-9413-180A7C7733FD";
name = Regular;
paths = (
{
closed = 1;
nodes = (
"512 1536 LINE SMOOTH",
"371 1536 OFFCURVE",
"256 1421 OFFCURVE",
"256 1280 CURVE SMOOTH",
"256 896 LINE SMOOTH",
"256 755 OFFCURVE",
"371 640 OFFCURVE",
"512 640 CURVE SMOOTH",
"640 640 LINE",
"640 192 LINE",
"1088 640 LINE",
"1536 640 LINE SMOOTH",
"1677 640 OFFCURVE",
"1792 755 OFFCURVE",
"1792 896 CURVE SMOOTH",
"1792 1280 LINE SMOOTH",
"1792 1421 OFFCURVE",
"1677 1536 OFFCURVE",
"1536 1536 CURVE SMOOTH"
);
}
);
width = 2048;
}
);
unicode = F300;
},
{
glyphname = uniF301;
layers = (
{
layerId = "BB9D08C5-CC12-4AD2-9413-180A7C7733FD";
name = Regular;
paths = (
{
closed = 1;
nodes = (
"1664 1152 LINE",
"704 1152 LINE",
"640 1024 LINE",
"512 1024 LINE",
"640 1280 LINE",
"1280 1280 LINE",
"1280 1408 LINE",
"832 1408 LINE",
"768 1536 LINE",
"384 1536 LINE",
"384 512 LINE",
"1408 512 LINE"
);
}
);
width = 2048;
}
);
unicode = F301;
},
{
glyphname = uniF302;
layers = (
{
layerId = "BB9D08C5-CC12-4AD2-9413-180A7C7733FD";
name = Regular;
paths = (
{
closed = 1;
nodes = (
"1536 1536 LINE",
"1024 1536 LINE",
"256 768 LINE",
"768 256 LINE",
"1536 1024 LINE"
);
},
{
closed = 1;
nodes = (
"1209 1152 OFFCURVE",
"1152 1209 OFFCURVE",
"1152 1280 CURVE SMOOTH",
"1152 1351 OFFCURVE",
"1209 1408 OFFCURVE",
"1280 1408 CURVE SMOOTH",
"1351 1408 OFFCURVE",
"1408 1351 OFFCURVE",
"1408 1280 CURVE SMOOTH",
"1408 1209 OFFCURVE",
"1351 1152 OFFCURVE",
"1280 1152 CURVE SMOOTH"
);
}
);
width = 2048;
}
);
unicode = F302;
},
{
glyphname = uniF303;
layers = (
{
layerId = "BB9D08C5-CC12-4AD2-9413-180A7C7733FD";
name = Regular;
paths = (
{
closed = 1;
nodes = (
"571 1792 OFFCURVE",
"256 1477 OFFCURVE",
"256 1088 CURVE SMOOTH",
"256 699 OFFCURVE",
"571 384 OFFCURVE",
"960 384 CURVE SMOOTH",
"1349 384 OFFCURVE",
"1664 699 OFFCURVE",
"1664 1088 CURVE SMOOTH",
"1664 1477 OFFCURVE",
"1349 1792 OFFCURVE",
"960 1792 CURVE SMOOTH"
);
},
{
closed = 1;
nodes = (
"642 512 OFFCURVE",
"384 770 OFFCURVE",
"384 1088 CURVE SMOOTH",
"384 1406 OFFCURVE",
"642 1664 OFFCURVE",
"960 1664 CURVE SMOOTH",
"1278 1664 OFFCURVE",
"1536 1406 OFFCURVE",
"1536 1088 CURVE SMOOTH",
"1536 770 OFFCURVE",
"1278 512 OFFCURVE",
"960 512 CURVE SMOOTH"
);
},
{
closed = 1;
nodes = (
"1024 1115 LINE",
"1024 1536 LINE",
"896 1536 LINE",
"896 1062 LINE",
"1232 726 LINE",
"1322 817 LINE"
);
}
);
width = 2048;
}
);
unicode = F303;
},
{
glyphname = uniF304;
layers = (
{
layerId = "BB9D08C5-CC12-4AD2-9413-180A7C7733FD";
name = Regular;
paths = (
{
closed = 1;
nodes = (
"1165 1152 OFFCURVE",
"1280 1267 OFFCURVE",
"1280 1408 CURVE SMOOTH",
"1280 1549 OFFCURVE",
"1165 1664 OFFCURVE",
"1024 1664 CURVE SMOOTH",
"883 1664 OFFCURVE",
"768 1549 OFFCURVE",
"768 1408 CURVE SMOOTH",
"768 1267 OFFCURVE",
"883 1152 OFFCURVE",
"1024 1152 CURVE SMOOTH"
);
},
{
closed = 1;
nodes = (
"896 1024 LINE SMOOTH",
"684 1024 OFFCURVE",
"512 852 OFFCURVE",
"512 640 CURVE SMOOTH",
"512 384 LINE",
"1536 384 LINE",
"1536 640 LINE SMOOTH",
"1536 852 OFFCURVE",
"1364 1024 OFFCURVE",
"1152 1024 CURVE SMOOTH"
);
}
);
width = 2048;
}
);
unicode = F304;
},
{
glyphname = uniF305;
layers = (
{
layerId = "BB9D08C5-CC12-4AD2-9413-180A7C7733FD";
name = Regular;
paths = (
{
closed = 1;
nodes = (
"1664 1664 LINE",
"1408 1664 LINE",
"1408 1792 LINE",
"1280 1792 LINE",
"1280 1664 LINE",
"640 1664 LINE",
"640 1792 LINE",
"512 1792 LINE",
"512 1664 LINE",
"256 1664 LINE",
"256 384 LINE",
"1664 384 LINE"
);
},
{
closed = 1;
nodes = (
"1536 640 LINE SMOOTH",
"1536 569 OFFCURVE",
"1479 512 OFFCURVE",
"1408 512 CURVE SMOOTH",
"512 512 LINE SMOOTH",
"441 512 OFFCURVE",
"384 569 OFFCURVE",
"384 640 CURVE SMOOTH",
"384 1280 LINE SMOOTH",
"384 1351 OFFCURVE",
"441 1408 OFFCURVE",
"512 1408 CURVE SMOOTH",
"1408 1408 LINE SMOOTH",
"1479 1408 OFFCURVE",
"1536 1351 OFFCURVE",
"1536 1280 CURVE SMOOTH"
);
},
{
closed = 1;
nodes = (
"832 1280 LINE SMOOTH",
"797 1280 OFFCURVE",
"768 1251 OFFCURVE",
"768 1216 CURVE SMOOTH",
"768 1181 OFFCURVE",
"797 1152 OFFCURVE",
"832 1152 CURVE SMOOTH",
"896 1152 LINE",
"896 704 LINE SMOOTH",
"896 669 OFFCURVE",
"925 640 OFFCURVE",
"960 640 CURVE SMOOTH",
"994.999 640 OFFCURVE",
"1024 669 OFFCURVE",
"1024 704 CURVE SMOOTH",
"1024 1216 LINE SMOOTH",
"1024 1251 OFFCURVE",
"994.999 1280 OFFCURVE",
"960 1280 CURVE SMOOTH"
);
}
);
width = 2048;
}
);
unicode = F305;
},
{
glyphname = uniF306;
layers = (
{
layerId = "BB9D08C5-CC12-4AD2-9413-180A7C7733FD";
name = Regular;
paths = (
{
closed = 1;
nodes = (
"1664 1664 LINE",
"1408 1664 LINE",
"1408 1792 LINE",
"1280 1792 LINE",
"1280 1664 LINE",
"640 1664 LINE",
"640 1792 LINE",
"512 1792 LINE",
"512 1664 LINE",
"256 1664 LINE",
"256 384 LINE",
"1664 384 LINE"
);
},
{
closed = 1;
nodes = (
"1536 640 LINE SMOOTH",
"1536 569 OFFCURVE",
"1479 512 OFFCURVE",
"1408 512 CURVE SMOOTH",
"512 512 LINE SMOOTH",
"441 512 OFFCURVE",
"384 569 OFFCURVE",
"384 640 CURVE SMOOTH",
"384 1280 LINE SMOOTH",
"384 1351 OFFCURVE",
"441 1408 OFFCURVE",
"512 1408 CURVE SMOOTH",
"1408 1408 LINE SMOOTH",
"1479 1408 OFFCURVE",
"1536 1351 OFFCURVE",
"1536 1280 CURVE SMOOTH"
);
},
{
closed = 1;
nodes = (
"1088 1280 LINE",
"832 1280 LINE SMOOTH",
"797 1280 OFFCURVE",
"768 1251 OFFCURVE",
"768 1216 CURVE SMOOTH",
"768 1181 OFFCURVE",
"797 1152 OFFCURVE",
"832 1152 CURVE SMOOTH",
"1006 1152 LINE",
"898 719 LINE SMOOTH",
"889 685 OFFCURVE",
"910 650 OFFCURVE",
"945 642 CURVE SMOOTH",
"978.999 633 OFFCURVE",
"1014 654 OFFCURVE",
"1022 689 CURVE SMOOTH",
"1150 1201 LINE",
"1151 1206 OFFCURVE",
"1152 1211 OFFCURVE",
"1152 1216 CURVE SMOOTH",
"1152 1217 OFFCURVE",
"1152 1217 OFFCURVE",
"1152 1218 CURVE SMOOTH",
"1152 1219 LINE SMOOTH",
"1152 1220 OFFCURVE",
"1152 1220 OFFCURVE",
"1152 1221 CURVE SMOOTH",
"1152 1223 LINE",
"1148 1253 OFFCURVE",
"1124 1277 OFFCURVE",
"1094 1280 CURVE",
"1091 1280 LINE SMOOTH",
"1090 1280 OFFCURVE",
"1090 1280 OFFCURVE",
"1090 1280 CURVE SMOOTH"
);
}
);
width = 2048;
}
);
unicode = F306;
},
{
glyphname = uniF307;
layers = (
{
layerId = "BB9D08C5-CC12-4AD2-9413-180A7C7733FD";
name = Regular;
paths = (
{
closed = 1;
nodes = (
"1664 1664 LINE",
"1408 1664 LINE",
"1408 1792 LINE",
"1280 1792 LINE",
"1280 1664 LINE",
"640 1664 LINE",
"640 1792 LINE",
"512 1792 LINE",
"512 1664 LINE",
"256 1664 LINE",
"256 384 LINE",
"1664 384 LINE"
);
},
{
closed = 1;
nodes = (
"1536 640 LINE SMOOTH",
"1536 569 OFFCURVE",
"1479 512 OFFCURVE",
"1408 512 CURVE SMOOTH",
"512 512 LINE SMOOTH",
"441 512 OFFCURVE",
"384 569 OFFCURVE",
"384 640 CURVE SMOOTH",
"384 1280 LINE SMOOTH",
"384 1351 OFFCURVE",
"441 1408 OFFCURVE",
"512 1408 CURVE SMOOTH",
"1408 1408 LINE SMOOTH",
"1479 1408 OFFCURVE",
"1536 1351 OFFCURVE",
"1536 1280 CURVE SMOOTH"
);
},
{
closed = 1;
nodes = (
"768 1280 LINE",
"768 1152 LINE",
"896 1152 LINE",
"896 1280 LINE"
);
},
{
closed = 1;
nodes = (
"1024 1280 LINE",
"1024 1152 LINE",
"1152 1152 LINE",
"1152 1280 LINE"
);
},
{
closed = 1;
nodes = (
"1280 1280 LINE",
"1280 1152 LINE",
"1408 1152 LINE",
"1408 1280 LINE"
);
},
{
closed = 1;
nodes = (
"512 1024 LINE",
"512 896 LINE",
"640 896 LINE",
"640 1024 LINE"
);
},
{
closed = 1;
nodes = (
"768 1024 LINE",
"768 896 LINE",
"896 896 LINE",
"896 1024 LINE"
);
},
{
closed = 1;
nodes = (
"1024 1024 LINE",
"1024 896 LINE",
"1152 896 LINE",
"1152 1024 LINE"
);
},
{
closed = 1;
nodes = (
"1280 1024 LINE",
"1280 896 LINE",
"1408 896 LINE",
"1408 1024 LINE"
);
},
{
closed = 1;
nodes = (
"512 768 LINE",
"512 640 LINE",
"640 640 LINE",
"640 768 LINE"
);
},
{
closed = 1;
nodes = (
"768 768 LINE",
"768 640 LINE",
"896 640 LINE",
"896 768 LINE"
);
},
{
closed = 1;
nodes = (
"1024 768 LINE",
"1024 640 LINE",
"1152 640 LINE",
"1152 768 LINE"
);
}
);
width = 2048;
}
);
unicode = F307;
},
{
glyphname = uniF308;
layers = (
{
layerId = "BB9D08C5-CC12-4AD2-9413-180A7C7733FD";
name = Regular;
paths = (
{
closed = 1;
nodes = (
"1914 1371 LINE",
"1371 1914 LINE",
"1190 1733 LINE",
"1240 1683 OFFCURVE",
"1240 1602 OFFCURVE",
"1190 1552 CURVE SMOOTH",
"1009 1371 LINE SMOOTH",
"958 1321 OFFCURVE",
"877 1321 OFFCURVE",
"827 1371 CURVE",
"646 1190 LINE",
"873.21 963.21 LINE",
"478 568 LINE SMOOTH",
"378 468 OFFCURVE",
"362 416 OFFCURVE",
"342 342 CURVE",
"416 362 OFFCURVE",
"468 378 OFFCURVE",
"568 478 CURVE SMOOTH",
"963.289 873.289 LINE",
"1190 647 LINE",
"1371 828 LINE",
"1321 878 OFFCURVE",
"1321 959 OFFCURVE",
"1371 1009 CURVE SMOOTH",
"1552 1190 LINE SMOOTH",
"1602 1240 OFFCURVE",
"1683 1240 OFFCURVE",
"1733 1190 CURVE"
);
}
);
width = 2048;
}
);
unicode = F308;
},
{
glyphname = uniF400;
layers = (
{
layerId = "BB9D08C5-CC12-4AD2-9413-180A7C7733FD";
name = Regular;
paths = (
{
closed = 1;
nodes = (
"1792 384 LINE",
"1297 879 LINE",
"1366 973.999 OFFCURVE",
"1408 1090 OFFCURVE",
"1408 1216 CURVE SMOOTH",
"1408 1534 OFFCURVE",
"1150 1792 OFFCURVE",
"832 1792 CURVE SMOOTH",
"514 1792 OFFCURVE",
"256 1534 OFFCURVE",
"256 1216 CURVE SMOOTH",
"256 898 OFFCURVE",
"514 640 OFFCURVE",
"832 640 CURVE SMOOTH",
"958 640 OFFCURVE",
"1074 682 OFFCURVE",
"1169 751 CURVE",
"1664 256 LINE"
);
},
{
closed = 1;
nodes = (
"585 768 OFFCURVE",
"384 968.999 OFFCURVE",
"384 1216 CURVE SMOOTH",
"384 1463 OFFCURVE",
"585 1664 OFFCURVE",
"832 1664 CURVE SMOOTH",
"1080 1664 OFFCURVE",
"1280 1463 OFFCURVE",
"1280 1216 CURVE SMOOTH",
"1280 968.999 OFFCURVE",
"1080 768 OFFCURVE",
"832 768 CURVE SMOOTH"
);
}
);
width = 2048;
}
);
unicode = F400;
},
{
glyphname = uniF401;
layers = (
{
layerId = "BB9D08C5-CC12-4AD2-9413-180A7C7733FD";
name = Regular;
paths = (
{
closed = 1;
nodes = (
"1792 384 LINE",
"1297 879 LINE",
"1366 973.999 OFFCURVE",
"1408 1090 OFFCURVE",
"1408 1216 CURVE SMOOTH",
"1408 1534 OFFCURVE",
"1150 1792 OFFCURVE",
"832 1792 CURVE SMOOTH",
"514 1792 OFFCURVE",
"256 1534 OFFCURVE",
"256 1216 CURVE SMOOTH",
"256 898 OFFCURVE",
"514 640 OFFCURVE",
"832 640 CURVE SMOOTH",
"958 640 OFFCURVE",
"1074 682 OFFCURVE",
"1169 751 CURVE",
"1664 256 LINE"
);
},
{
closed = 1;
nodes = (
"585 768 OFFCURVE",
"384 968.999 OFFCURVE",
"384 1216 CURVE SMOOTH",
"384 1463 OFFCURVE",
"585 1664 OFFCURVE",
"832 1664 CURVE SMOOTH",
"1080 1664 OFFCURVE",
"1280 1463 OFFCURVE",
"1280 1216 CURVE SMOOTH",
"1280 968.999 OFFCURVE",
"1080 768 OFFCURVE",
"832 768 CURVE SMOOTH"
);
},
{
closed = 1;
nodes = (
"512 1280 LINE",
"512 1152 LINE",
"1152 1152 LINE",
"1152 1280 LINE"
);
}
);
width = 2048;
}
);
unicode = F401;
},
{
glyphname = uniF402;
layers = (
{
layerId = "BB9D08C5-CC12-4AD2-9413-180A7C7733FD";
name = Regular;
paths = (
{
closed = 1;
nodes = (
"1664 256 LINE",
"1792 384 LINE",
"1297 879 LINE",
"1366 973.999 OFFCURVE",
"1408 1090 OFFCURVE",
"1408 1216 CURVE SMOOTH",
"1408 1534 OFFCURVE",
"1150 1792 OFFCURVE",
"832 1792 CURVE SMOOTH",
"514 1792 OFFCURVE",
"256 1534 OFFCURVE",
"256 1216 CURVE SMOOTH",
"256 898 OFFCURVE",
"514 640 OFFCURVE",
"832 640 CURVE SMOOTH",
"958 640 OFFCURVE",
"1074 682 OFFCURVE",
"1169 751 CURVE"
);
},
{
closed = 1;
nodes = (
"384 1463 OFFCURVE",
"585 1664 OFFCURVE",
"832 1664 CURVE SMOOTH",
"1080 1664 OFFCURVE",
"1280 1463 OFFCURVE",
"1280 1216 CURVE SMOOTH",
"1280 968.999 OFFCURVE",
"1080 768 OFFCURVE",
"832 768 CURVE SMOOTH",
"585 768 OFFCURVE",
"384 968.999 OFFCURVE",
"384 1216 CURVE SMOOTH"
);
},
{
closed = 1;
nodes = (
"1152 1152 LINE",
"1152 1280 LINE",
"896 1280 LINE",
"896 1536 LINE",
"768 1536 LINE",
"768 1280 LINE",
"512 1280 LINE",
"512 1152 LINE",
"768 1152 LINE",
"768 896 LINE",
"896 896 LINE",
"896 1152 LINE"
);
}
);
width = 2048;
}
);
unicode = F402;
},
{
glyphname = uniF403;
layers = (
{
layerId = "BB9D08C5-CC12-4AD2-9413-180A7C7733FD";
name = Regular;
paths = (
{
closed = 1;
nodes = (
"0 1024 LINE",
"507 518 LINE SMOOTH",
"638 383 OFFCURVE",
"821 300 OFFCURVE",
"1024 300 CURVE SMOOTH",
"1227 300 OFFCURVE",
"1410 383 OFFCURVE",
"1542 517 CURVE SMOOTH",
"2048 1024 LINE",
"1541 1531 LINE SMOOTH",
"1410 1665 OFFCURVE",
"1227 1748 OFFCURVE",
"1024 1748 CURVE SMOOTH",
"821 1748 OFFCURVE",
"638 1665 OFFCURVE",
"506 1530 CURVE SMOOTH"
);
},
{
closed = 1;
nodes = (
"272 1024 LINE",
"644 1396 LINE SMOOTH",
"745 1500 OFFCURVE",
"880 1556 OFFCURVE",
"1024 1556 CURVE SMOOTH",
"1168 1556 OFFCURVE",
"1303 1500 OFFCURVE",
"1406 1395 CURVE SMOOTH",
"1777 1024 LINE",
"1404 652 LINE SMOOTH",
"1303 549 OFFCURVE",
"1168 492 OFFCURVE",
"1024 492 CURVE SMOOTH",
"880 492 OFFCURVE",
"745 549 OFFCURVE",
"642 653 CURVE SMOOTH"
);
},
{
closed = 1;
nodes = (
"812 1408 OFFCURVE",
"640 1236 OFFCURVE",
"640 1024 CURVE SMOOTH",
"640 812 OFFCURVE",
"812 640 OFFCURVE",
"1024 640 CURVE SMOOTH",
"1236 640 OFFCURVE",
"1408 812 OFFCURVE",
"1408 1024 CURVE SMOOTH",
"1408 1236 OFFCURVE",
"1236 1408 OFFCURVE",
"1024 1408 CURVE SMOOTH"
);
},
{
closed = 1;
nodes = (
"1081 1024 OFFCURVE",
"1024 1081 OFFCURVE",
"1024 1152 CURVE SMOOTH",
"1024 1223 OFFCURVE",
"1081 1280 OFFCURVE",
"1152 1280 CURVE SMOOTH",
"1223 1280 OFFCURVE",
"1280 1223 OFFCURVE",
"1280 1152 CURVE SMOOTH",
"1280 1081 OFFCURVE",
"1223 1024 OFFCURVE",
"1152 1024 CURVE SMOOTH"
);
}
);
width = 2048;
}
);
unicode = F403;
},
{
glyphname = uniF404;
layers = (
{
layerId = "BB9D08C5-CC12-4AD2-9413-180A7C7733FD";
name = Regular;
paths = (
{
closed = 1;
nodes = (
"1382 1653 LINE",
"1276 1714 OFFCURVE",
"1154 1748 OFFCURVE",
"1024 1748 CURVE SMOOTH",
"821 1748 OFFCURVE",
"638 1665 OFFCURVE",
"506 1530 CURVE SMOOTH",
"0 1024 LINE",
"376 648 LINE",
"512 784 LINE",
"272 1024 LINE",
"644 1396 LINE SMOOTH",
"745 1500 OFFCURVE",
"880 1556 OFFCURVE",
"1024 1556 CURVE SMOOTH",
"1099 1556 OFFCURVE",
"1172 1540 OFFCURVE",
"1239 1510 CURVE"
);
},
{
closed = 1;
nodes = (
"1709 1619 LINE",
"429 339 LINE",
"339 429 LINE",
"1619 1709 LINE"
);
},
{
closed = 1;
nodes = (
"1122 1394 LINE",
"1091 1402 OFFCURVE",
"1058 1408 OFFCURVE",
"1024 1408 CURVE SMOOTH",
"812 1408 OFFCURVE",
"640 1236 OFFCURVE",
"640 1024 CURVE SMOOTH",
"640 989.999 OFFCURVE",
"646 957 OFFCURVE",
"654 926 CURVE"
);
},
{
closed = 1;
nodes = (
"2048 1024 LINE",
"1672 1400 LINE",
"1536 1265 LINE",
"1777 1024 LINE",
"1404 652 LINE SMOOTH",
"1303 549 OFFCURVE",
"1168 492 OFFCURVE",
"1024 492 CURVE SMOOTH",
"949 492 OFFCURVE",
"876 508 OFFCURVE",
"809 538 CURVE",
"666 395 LINE",
"772 334 OFFCURVE",
"894 300 OFFCURVE",
"1024 300 CURVE SMOOTH",
"1227 300 OFFCURVE",
"1410 383 OFFCURVE",
"1542 517 CURVE SMOOTH"
);
},
{
closed = 1;
nodes = (
"926 654 LINE",
"957 646 OFFCURVE",
"989.999 640 OFFCURVE",
"1024 640 CURVE SMOOTH",
"1236 640 OFFCURVE",
"1408 812 OFFCURVE",
"1408 1024 CURVE SMOOTH",
"1408 1058 OFFCURVE",
"1402 1091 OFFCURVE",
"1394 1122 CURVE"
);
}
);
width = 2048;
}
);
unicode = F404;
},
{
glyphname = uniF405;
layers = (
{
layerId = "BB9D08C5-CC12-4AD2-9413-180A7C7733FD";
name = Regular;
paths = (
{
closed = 1;
nodes = (
"1216 1088 LINE",
"1536 1408 LINE",
"1408 1536 LINE",
"1088 1216 LINE",
"768 1536 LINE",
"640 1408 LINE",
"960 1088 LINE",
"640 768 LINE",
"768 640 LINE",
"1088 960 LINE",
"1408 640 LINE",
"1536 768 LINE"
);
}
);
width = 2048;
}
);
unicode = F405;
},
{
glyphname = uniF406;
layers = (
{
layerId = "BB9D08C5-CC12-4AD2-9413-180A7C7733FD";
name = Regular;
paths = (
{
closed = 1;
nodes = (
"1216 1088 LINE",
"2048 1920 LINE",
"1920 2048 LINE",
"1088 1216 LINE",
"256 2048 LINE",
"128 1920 LINE",
"960 1088 LINE",
"128 256 LINE",
"256 128 LINE",
"1088 960 LINE",
"1920 128 LINE",
"2048 256 LINE"
);
}
);
width = 2048;
}
);
unicode = F406;
},
{
glyphname = uniF407;
layers = (
{
layerId = "BB9D08C5-CC12-4AD2-9413-180A7C7733FD";
name = Regular;
paths = (
{
closed = 1;
nodes = (
"1536 1408 LINE",
"1280 1536 LINE",
"1280 1607 OFFCURVE",
"1223 1664 OFFCURVE",
"1152 1664 CURVE SMOOTH",
"768 1664 LINE SMOOTH",
"697 1664 OFFCURVE",
"640 1607 OFFCURVE",
"640 1536 CURVE",
"384 1408 LINE",
"384 1280 LINE",
"1536 1280 LINE"
);
},
{
closed = 1;
nodes = (
"832 1408 LINE SMOOTH",
"797 1408 OFFCURVE",
"768 1437 OFFCURVE",
"768 1472 CURVE SMOOTH",
"768 1507 OFFCURVE",
"797 1536 OFFCURVE",
"832 1536 CURVE SMOOTH",
"1088 1536 LINE SMOOTH",
"1123 1536 OFFCURVE",
"1152 1507 OFFCURVE",
"1152 1472 CURVE SMOOTH",
"1152 1437 OFFCURVE",
"1123 1408 OFFCURVE",
"1088 1408 CURVE SMOOTH"
);
},
{
closed = 1;
nodes = (
"1408 1216 LINE",
"1280 1216 LINE",
"1280 512 LINE",
"1152 512 LINE",
"1152 1216 LINE",
"1024 1216 LINE",
"1024 512 LINE",
"896 512 LINE",
"896 1216 LINE",
"768 1216 LINE",
"768 512 LINE",
"640 512 LINE",
"640 1216 LINE",
"512 1216 LINE",
"512 512 LINE SMOOTH",
"512 441 OFFCURVE",
"569 384 OFFCURVE",
"640 384 CURVE SMOOTH",
"1280 384 LINE SMOOTH",
"1351 384 OFFCURVE",
"1408 441 OFFCURVE",
"1408 512 CURVE SMOOTH"
);
}
);
width = 2048;
}
);
unicode = F407;
},
{
glyphname = uniF408;
layers = (
{
layerId = "BB9D08C5-CC12-4AD2-9413-180A7C7733FD";
name = Regular;
paths = (
{
closed = 1;
nodes = (
"844 1150 LINE",
"1024 1685 LINE",
"1205 1150 LINE",
"1792 1151 LINE",
"1316 821 LINE",
"1499 286 LINE",
"1024 618 LINE",
"549 286 LINE",
"732 821 LINE",
"256 1151 LINE"
);
}
);
width = 2048;
}
);
unicode = F408;
},
{
glyphname = uniF409;
layers = (
{
layerId = "BB9D08C5-CC12-4AD2-9413-180A7C7733FD";
name = Regular;
paths = (
{
closed = 1;
nodes = (
"1664 1152 LINE",
"1024 1664 LINE",
"384 1152 LINE",
"512 1024 LINE",
"512 512 LINE",
"1536 512 LINE",
"1536 1024 LINE"
);
},
{
closed = 1;
nodes = (
"1152 1024 LINE",
"1152 576 LINE",
"896 576 LINE",
"896 1024 LINE"
);
}
);
width = 2048;
}
);
unicode = F409;
},
{
glyphname = uniF410;
layers = (
{
layerId = "BB9D08C5-CC12-4AD2-9413-180A7C7733FD";
name = Regular;
paths = (
{
closed = 1;
nodes = (
"1792 1536 LINE",
"256 1536 LINE",
"256 1408 LINE",
"1024 1024 LINE",
"1792 1408 LINE"
);
},
{
closed = 1;
nodes = (
"1024 832 LINE",
"256 1216 LINE",
"256 512 LINE",
"1792 512 LINE",
"1792 1216 LINE"
);
}
);
width = 2048;
}
);
unicode = F410;
},
{
glyphname = uniF411;
layers = (
{
layerId = "BB9D08C5-CC12-4AD2-9413-180A7C7733FD";
name = Regular;
paths = (
{
closed = 1;
nodes = (
"1728 1280 LINE",
"1280 1728 LINE",
"384 832 LINE",
"384 384 LINE",
"832 384 LINE"
);
},
{
closed = 1;
nodes = (
"685 941 LINE",
"1280 1536 LINE",
"1376 1440 LINE",
"781 845 LINE"
);
},
{
closed = 1;
nodes = (
"1440 1376 LINE",
"1536 1280 LINE",
"941 685 LINE",
"845 781 LINE"
);
},
{
closed = 1;
nodes = (
"896 640 LINE",
"768 512 LINE",
"512 768 LINE",
"640 896 LINE"
);
}
);
width = 2048;
}
);
unicode = F411;
},
{
glyphname = uniF412;
layers = (
{
layerId = "BB9D08C5-CC12-4AD2-9413-180A7C7733FD";
name = Regular;
paths = (
{
closed = 1;
nodes = (
"1280 192 LINE",
"1920 832 LINE",
"1280 1472 LINE",
"1280 1024 LINE",
"640 1024 LINE",
"640 1728 LINE",
"256 1344 LINE",
"256 640 LINE",
"1280 640 LINE"
);
}
);
width = 2048;
}
);
unicode = F412;
},
{
glyphname = uniF413;
layers = (
{
layerId = "BB9D08C5-CC12-4AD2-9413-180A7C7733FD";
name = Regular;
paths = (
{
closed = 1;
nodes = (
"256 1536 LINE",
"962 1536 OFFCURVE",
"1536 962 OFFCURVE",
"1536 256 CURVE",
"1792 256 LINE",
"1792 1104 OFFCURVE",
"1104 1792 OFFCURVE",
"256 1792 CURVE"
);
},
{
closed = 1;
nodes = (
"256 1024 LINE",
"680 1024 OFFCURVE",
"1024 680 OFFCURVE",
"1024 256 CURVE",
"1280 256 LINE",
"1280 822 OFFCURVE",
"822 1280 OFFCURVE",
"256 1280 CURVE"
);
},
{
closed = 1;
nodes = (
"640 342 OFFCURVE",
"554 256 OFFCURVE",
"448 256 CURVE SMOOTH",
"342 256 OFFCURVE",
"256 342 OFFCURVE",
"256 448 CURVE SMOOTH",
"256 554 OFFCURVE",
"342 640 OFFCURVE",
"448 640 CURVE SMOOTH",
"554 640 OFFCURVE",
"640 554 OFFCURVE",
"640 448 CURVE SMOOTH"
);
}
);
width = 2048;
}
);
unicode = F413;
},
{
glyphname = uniF414;
layers = (
{
layerId = "BB9D08C5-CC12-4AD2-9413-180A7C7733FD";
name = Regular;
paths = (
{
closed = 1;
nodes = (
"1237 1711 LINE SMOOTH",
"1120 1901 OFFCURVE",
"928 1901 OFFCURVE",
"812 1711 CURVE SMOOTH",
"52 474 LINE SMOOTH",
"-65 284 OFFCURVE",
"22 128 OFFCURVE",
"246 128 CURVE SMOOTH",
"1803 128 LINE SMOOTH",
"2026 128 OFFCURVE",
"2113 284 OFFCURVE",
"1996 474 CURVE SMOOTH"
);
},
{
closed = 1;
nodes = (
"1152 896 LINE SMOOTH",
"1152 825 OFFCURVE",
"1095 768 OFFCURVE",
"1024 768 CURVE SMOOTH",
"953 768 OFFCURVE",
"896 825 OFFCURVE",
"896 896 CURVE SMOOTH",
"896 1280 LINE SMOOTH",
"896 1351 OFFCURVE",
"953 1408 OFFCURVE",
"1024 1408 CURVE SMOOTH",
"1095 1408 OFFCURVE",
"1152 1351 OFFCURVE",
"1152 1280 CURVE SMOOTH"
);
},
{
closed = 1;
nodes = (
"953 384 OFFCURVE",
"896 441 OFFCURVE",
"896 512 CURVE SMOOTH",
"896 583 OFFCURVE",
"953 640 OFFCURVE",
"1024 640 CURVE SMOOTH",
"1095 640 OFFCURVE",
"1152 583 OFFCURVE",
"1152 512 CURVE SMOOTH",
"1152 441 OFFCURVE",
"1095 384 OFFCURVE",
"1024 384 CURVE SMOOTH"
);
}
);
width = 2048;
}
);
unicode = F414;
},
{
glyphname = uniF415;
layers = (
{
layerId = "BB9D08C5-CC12-4AD2-9413-180A7C7733FD";
name = Regular;
paths = (
{
closed = 1;
nodes = (
"128 1024 LINE",
"128 1280 LINE",
"437 1280 LINE",
"536 1506 OFFCURVE",
"762 1664 OFFCURVE",
"1024 1664 CURVE SMOOTH",
"1201 1664 OFFCURVE",
"1360 1591 OFFCURVE",
"1475 1475 CURVE SMOOTH",
"1525 1425 OFFCURVE",
"1525 1344 OFFCURVE",
"1475 1294 CURVE SMOOTH",
"1425 1244 OFFCURVE",
"1344 1243 OFFCURVE",
"1294 1294 CURVE SMOOTH",
"1224 1363 OFFCURVE",
"1130 1408 OFFCURVE",
"1024 1408 CURVE SMOOTH",
"846 1408 OFFCURVE",
"696 1286 OFFCURVE",
"652 1121 CURVE SMOOTH",
"639 1065 OFFCURVE",
"588 1024 OFFCURVE",
"528 1024 CURVE SMOOTH"
);
},
{
closed = 1;
nodes = (
"1280 883 OFFCURVE",
"1166 768 OFFCURVE",
"1024 768 CURVE SMOOTH",
"883 768 OFFCURVE",
"768 883 OFFCURVE",
"768 1024 CURVE SMOOTH",
"768 1166 OFFCURVE",
"883 1280 OFFCURVE",
"1024 1280 CURVE SMOOTH",
"1166 1280 OFFCURVE",
"1280 1166 OFFCURVE",
"1280 1024 CURVE SMOOTH"
);
},
{
closed = 1;
nodes = (
"1920 1024 LINE",
"1920 768 LINE",
"1611 768 LINE",
"1512 542 OFFCURVE",
"1286 384 OFFCURVE",
"1024 384 CURVE SMOOTH",
"847 384 OFFCURVE",
"689 457 OFFCURVE",
"573 573 CURVE SMOOTH",
"523 623 OFFCURVE",
"523 704 OFFCURVE",
"573 754 CURVE SMOOTH",
"623 804 OFFCURVE",
"705 805 OFFCURVE",
"755 755 CURVE SMOOTH",
"824 685 OFFCURVE",
"918 640 OFFCURVE",
"1024 640 CURVE SMOOTH",
"1202 640 OFFCURVE",
"1352 762 OFFCURVE",
"1396 927 CURVE SMOOTH",
"1409 982.999 OFFCURVE",
"1460 1024 OFFCURVE",
"1520 1024 CURVE SMOOTH"
);
}
);
width = 2048;
}
);
unicode = F415;
},
{
glyphname = uniF416;
layers = (
{
layerId = "BB9D08C5-CC12-4AD2-9413-180A7C7733FD";
name = Regular;
paths = (
{
closed = 1;
nodes = (
"911 1792 OFFCURVE",
"768 1649 OFFCURVE",
"768 1472 CURVE SMOOTH",
"768 960 LINE SMOOTH",
"768 854 OFFCURVE",
"854 768 OFFCURVE",
"960 768 CURVE SMOOTH",
"1066 768 OFFCURVE",
"1152 854 OFFCURVE",
"1152 960 CURVE SMOOTH",
"1152 1412 LINE",
"1024 1412 LINE",
"1024 960 LINE SMOOTH",
"1024 925 OFFCURVE",
"994.999 896 OFFCURVE",
"960 896 CURVE SMOOTH",
"925 896 OFFCURVE",
"896 925 OFFCURVE",
"896 960 CURVE SMOOTH",
"896 1472 LINE SMOOTH",
"896 1578 OFFCURVE",
"981.999 1664 OFFCURVE",
"1088 1664 CURVE SMOOTH",
"1194 1664 OFFCURVE",
"1280 1578 OFFCURVE",
"1280 1472 CURVE SMOOTH",
"1280 832 LINE SMOOTH",
"1280 655 OFFCURVE",
"1137 512 OFFCURVE",
"960 512 CURVE SMOOTH",
"783 512 OFFCURVE",
"640 655 OFFCURVE",
"640 832 CURVE SMOOTH",
"640 1152 LINE",
"512 1152 LINE",
"512 832 LINE SMOOTH",
"512 585 OFFCURVE",
"713 384 OFFCURVE",
"960 384 CURVE SMOOTH",
"1207 384 OFFCURVE",
"1408 585 OFFCURVE",
"1408 832 CURVE SMOOTH",
"1408 1472 LINE SMOOTH",
"1408 1649 OFFCURVE",
"1265 1792 OFFCURVE",
"1088 1792 CURVE SMOOTH"
);
}
);
width = 2048;
}
);
unicode = F416;
},
{
glyphname = uniF417;
layers = (
{
layerId = "BB9D08C5-CC12-4AD2-9413-180A7C7733FD";
name = Regular;
paths = (
{
closed = 1;
nodes = (
"1536 1534 OFFCURVE",
"1278 1792 OFFCURVE",
"960 1792 CURVE SMOOTH",
"642 1792 OFFCURVE",
"384 1534 OFFCURVE",
"384 1216 CURVE SMOOTH",
"384 1057 OFFCURVE",
"449 912 OFFCURVE",
"553 808 CURVE SMOOTH",
"960 402 LINE",
"1367 808 LINE SMOOTH",
"1471 912 OFFCURVE",
"1536 1057 OFFCURVE",
"1536 1216 CURVE SMOOTH"
);
},
{
closed = 1;
nodes = (
"783 896 OFFCURVE",
"640 1039 OFFCURVE",
"640 1216 CURVE SMOOTH",
"640 1393 OFFCURVE",
"783 1536 OFFCURVE",
"960 1536 CURVE SMOOTH",
"1137 1536 OFFCURVE",
"1280 1393 OFFCURVE",
"1280 1216 CURVE SMOOTH",
"1280 1039 OFFCURVE",
"1137 896 OFFCURVE",
"960 896 CURVE SMOOTH"
);
}
);
width = 2048;
}
);
unicode = F417;
},
{
glyphname = uniF418;
layers = (
{
layerId = "BB9D08C5-CC12-4AD2-9413-180A7C7733FD";
name = Regular;
paths = (
{
closed = 1;
nodes = (
"1536 1408 LINE",
"1408 1504 LINE",
"960 991.999 LINE",
"736 1184 LINE",
"608 1056 LINE",
"896 640 LINE",
"1024 640 LINE"
);
}
);
width = 2048;
}
);
unicode = F418;
},
{
glyphname = uniF419;
layers = (
{
layerId = "BB9D08C5-CC12-4AD2-9413-180A7C7733FD";
name = Regular;
paths = (
{
closed = 1;
nodes = (
"2048 1792 LINE",
"0 1792 LINE",
"0 1536 LINE",
"2048 1536 LINE"
);
},
{
closed = 1;
nodes = (
"0 1152 LINE",
"0 896 LINE",
"2048 896 LINE",
"2048 1152 LINE"
);
},
{
closed = 1;
nodes = (
"0 512 LINE",
"0 256 LINE",
"2048 256 LINE",
"2048 512 LINE"
);
}
);
width = 2048;
}
);
unicode = F419;
},
{
glyphname = uniF420;
layers = (
{
layerId = "BB9D08C5-CC12-4AD2-9413-180A7C7733FD";
name = Regular;
paths = (
{
closed = 1;
nodes = (
"256 1792 LINE",
"483 1565 LINE",
"344 1426 OFFCURVE",
"256 1236 OFFCURVE",
"256 1024 CURVE SMOOTH",
"256 644 OFFCURVE",
"533 329 OFFCURVE",
"896 268 CURVE",
"896 530 LINE",
"676 587 OFFCURVE",
"512 786 OFFCURVE",
"512 1024 CURVE SMOOTH",
"512 1166 OFFCURVE",
"571 1292 OFFCURVE",
"664 1384 CURVE",
"896 1152 LINE",
"896 1792 LINE"
);
},
{
closed = 1;
nodes = (
"1792 1404 OFFCURVE",
"1515 1719 OFFCURVE",
"1152 1781 CURVE",
"1152 1518 LINE",
"1372 1461 OFFCURVE",
"1536 1262 OFFCURVE",
"1536 1024 CURVE SMOOTH",
"1536 883 OFFCURVE",
"1477 756 OFFCURVE",
"1384 664 CURVE",
"1290 758 OFFCURVE",
"1206 842 OFFCURVE",
"1171 877 CURVE SMOOTH",
"1152 896 LINE",
"1152 256 LINE",
"1792 256 LINE",
"1565 483 LINE",
"1704 622 OFFCURVE",
"1792 812 OFFCURVE",
"1792 1024 CURVE SMOOTH"
);
}
);
width = 2048;
}
);
unicode = F420;
},
{
glyphname = uniF421;
layers = (
{
layerId = "BB9D08C5-CC12-4AD2-9413-180A7C7733FD";
name = Regular;
paths = (
{
closed = 1;
nodes = (
"1536 1152 LINE",
"384 1152 LINE",
"384 896 LINE",
"1536 896 LINE"
);
}
);
width = 2048;
}
);
unicode = F421;
},
{
glyphname = uniF422;
layers = (
{
layerId = "BB9D08C5-CC12-4AD2-9413-180A7C7733FD";
name = Regular;
paths = (
{
closed = 1;
nodes = (
"1536 1536 LINE",
"384 1536 LINE",
"384 512 LINE",
"1536 512 LINE"
);
},
{
closed = 1;
nodes = (
"1408 1280 LINE",
"1408 640 LINE",
"512 640 LINE",
"512 1280 LINE"
);
}
);
width = 2048;
}
);
unicode = F422;
},
{
glyphname = uniF423;
layers = (
{
layerId = "BB9D08C5-CC12-4AD2-9413-180A7C7733FD";
name = Regular;
paths = (
{
closed = 1;
nodes = (
"300.78 960 LINE",
"567.93 1440.91 LINE",
"456.06 1503.09 LINE",
"83.2099 832 LINE",
"575.99 832 LINE",
"575.99 576 LINE",
"703.99 576 LINE",
"703.99 960 LINE"
);
},
{
closed = 1;
nodes = (
"2047.99 960 LINE",
"1644.74 960 LINE",
"1911.93 1440.91 LINE",
"1800.05 1503.09 LINE",
"1427.24 832 LINE",
"1919.99 832 LINE",
"1919.99 576 LINE",
"2047.99 576 LINE"
);
},
{
closed = 1;
nodes = (
"911.24 1344 OFFCURVE",
"767.99 1200.72 OFFCURVE",
"767.99 1024 CURVE SMOOTH",
"767.99 847.25 OFFCURVE",
"911.24 704 OFFCURVE",
"1087.99 704 CURVE SMOOTH",
"1264.74 704 OFFCURVE",
"1407.99 847.25 OFFCURVE",
"1407.99 1024 CURVE SMOOTH",
"1407.99 1200.72 OFFCURVE",
"1264.74 1344 OFFCURVE",
"1087.99 1344 CURVE SMOOTH"
);
},
{
closed = 1;
nodes = (
"982.119 832 OFFCURVE",
"895.99 918.12 OFFCURVE",
"895.99 1024 CURVE SMOOTH",
"895.99 1129.88 OFFCURVE",
"982.119 1216 OFFCURVE",
"1087.99 1216 CURVE SMOOTH",
"1193.87 1216 OFFCURVE",
"1279.99 1129.88 OFFCURVE",
"1279.99 1024 CURVE SMOOTH",
"1279.99 918.12 OFFCURVE",
"1193.87 832 OFFCURVE",
"1087.99 832 CURVE SMOOTH"
);
}
);
width = 2048;
}
);
unicode = F423;
},
{
glyphname = uniF424;
layers = (
{
layerId = "BB9D08C5-CC12-4AD2-9413-180A7C7733FD";
name = Regular;
paths = (
{
closed = 1;
nodes = (
"1792 1408 LINE",
"1408 1792 LINE",
"640 1792 LINE",
"256 1408 LINE",
"256 640 LINE",
"640 256 LINE",
"1408 256 LINE",
"1792 640 LINE"
);
},
{
closed = 1;
nodes = (
"1152 1024 LINE SMOOTH",
"1152 953 OFFCURVE",
"1095 896 OFFCURVE",
"1024 896 CURVE SMOOTH",
"953 896 OFFCURVE",
"896 953 OFFCURVE",
"896 1024 CURVE SMOOTH",
"896 1408 LINE SMOOTH",
"896 1479 OFFCURVE",
"953 1536 OFFCURVE",
"1024 1536 CURVE SMOOTH",
"1095 1536 OFFCURVE",
"1152 1479 OFFCURVE",
"1152 1408 CURVE SMOOTH"
);
},
{
closed = 1;
nodes = (
"953 512 OFFCURVE",
"896 569 OFFCURVE",
"896 640 CURVE SMOOTH",
"896 711 OFFCURVE",
"953 768 OFFCURVE",
"1024 768 CURVE SMOOTH",
"1095 768 OFFCURVE",
"1152 711 OFFCURVE",
"1152 640 CURVE SMOOTH",
"1152 569 OFFCURVE",
"1095 512 OFFCURVE",
"1024 512 CURVE SMOOTH"
);
}
);
width = 2048;
}
);
unicode = F424;
},
{
glyphname = uniF425;
layers = (
{
layerId = "BB9D08C5-CC12-4AD2-9413-180A7C7733FD";
name = Regular;
paths = (
{
closed = 1;
nodes = (
"1536 1664 LINE",
"1280 1664 LINE",
"1280 1735 OFFCURVE",
"1223 1792 OFFCURVE",
"1152 1792 CURVE SMOOTH",
"768 1792 LINE SMOOTH",
"697 1792 OFFCURVE",
"640 1735 OFFCURVE",
"640 1664 CURVE",
"384 1664 LINE",
"384 384 LINE",
"1536 384 LINE"
);
},
{
closed = 1;
nodes = (
"1088 1664 LINE SMOOTH",
"1123 1664 OFFCURVE",
"1152 1635 OFFCURVE",
"1152 1600 CURVE SMOOTH",
"1152 1565 OFFCURVE",
"1123 1536 OFFCURVE",
"1088 1536 CURVE SMOOTH",
"832 1536 LINE SMOOTH",
"797 1536 OFFCURVE",
"768 1565 OFFCURVE",
"768 1600 CURVE SMOOTH",
"768 1635 OFFCURVE",
"797 1664 OFFCURVE",
"832 1664 CURVE SMOOTH"
);
},
{
closed = 1;
nodes = (
"1408 1536 LINE",
"1408 512 LINE",
"512 512 LINE",
"512 1536 LINE",
"640 1536 LINE",
"640 1408 LINE",
"1280 1408 LINE",
"1280 1536 LINE"
);
},
{
closed = 1;
nodes = (
"669 1280 OFFCURVE",
"640 1251 OFFCURVE",
"640 1216 CURVE SMOOTH",
"640 1181 OFFCURVE",
"669 1152 OFFCURVE",
"704 1152 CURVE SMOOTH",
"739 1152 OFFCURVE",
"768 1181 OFFCURVE",
"768 1216 CURVE SMOOTH",
"768 1251 OFFCURVE",
"739 1280 OFFCURVE",
"704 1280 CURVE SMOOTH"
);
},
{
closed = 1;
nodes = (
"896 1280 LINE",
"896 1152 LINE",
"1280 1152 LINE",
"1280 1280 LINE"
);
},
{
closed = 1;
nodes = (
"669 1024 OFFCURVE",
"640 994.999 OFFCURVE",
"640 960 CURVE SMOOTH",
"640 925 OFFCURVE",
"669 896 OFFCURVE",
"704 896 CURVE SMOOTH",
"739 896 OFFCURVE",
"768 925 OFFCURVE",
"768 960 CURVE SMOOTH",
"768 994.999 OFFCURVE",
"739 1024 OFFCURVE",
"704 1024 CURVE SMOOTH"
);
},
{
closed = 1;
nodes = (
"896 1024 LINE",
"896 896 LINE",
"1280 896 LINE",
"1280 1024 LINE"
);
},
{
closed = 1;
nodes = (
"669 768 OFFCURVE",
"640 739 OFFCURVE",
"640 704 CURVE SMOOTH",
"640 669 OFFCURVE",
"669 640 OFFCURVE",
"704 640 CURVE SMOOTH",
"739 640 OFFCURVE",
"768 669 OFFCURVE",
"768 704 CURVE SMOOTH",
"768 739 OFFCURVE",
"739 768 OFFCURVE",
"704 768 CURVE SMOOTH"
);
},
{
closed = 1;
nodes = (
"896 768 LINE",
"896 640 LINE",
"1280 640 LINE",
"1280 768 LINE"
);
}
);
width = 2048;
}
);
unicode = F425;
},
{
glyphname = uniF426;
layers = (
{
layerId = "BB9D08C5-CC12-4AD2-9413-180A7C7733FD";
name = Regular;
paths = (
{
closed = 1;
nodes = (
"1641 1024 LINE",
"1655 1064 OFFCURVE",
"1664 1107 OFFCURVE",
"1664 1152 CURVE SMOOTH",
"1664 1364 OFFCURVE",
"1492 1536 OFFCURVE",
"1280 1536 CURVE SMOOTH",
"1125 1536 OFFCURVE",
"992.999 1444 OFFCURVE",
"932 1312 CURVE",
"874 1371 OFFCURVE",
"793 1408 OFFCURVE",
"704 1408 CURVE SMOOTH",
"527 1408 OFFCURVE",
"384 1265 OFFCURVE",
"384 1088 CURVE SMOOTH",
"384 1066 OFFCURVE",
"386 1045 OFFCURVE",
"391 1024 CURVE",
"384 1024 LINE SMOOTH",
"243 1024 OFFCURVE",
"128 909 OFFCURVE",
"128 768 CURVE SMOOTH",
"128 627 OFFCURVE",
"243 512 OFFCURVE",
"384 512 CURVE SMOOTH",
"1664 512 LINE SMOOTH",
"1805 512 OFFCURVE",
"1920 627 OFFCURVE",
"1920 768 CURVE SMOOTH",
"1920 909 OFFCURVE",
"1805 1024 OFFCURVE",
"1664 1024 CURVE SMOOTH"
);
}
);
width = 2048;
}
);
unicode = F426;
},
{
glyphname = uniF427;
layers = (
{
layerId = "BB9D08C5-CC12-4AD2-9413-180A7C7733FD";
name = Regular;
paths = (
{
closed = 1;
nodes = (
"1432 1722 LINE SMOOTH",
"1333 1821 OFFCURVE",
"1171 1821 OFFCURVE",
"1071 1722 CURVE SMOOTH",
"838 1489 LINE SMOOTH",
"739 1389 OFFCURVE",
"739 1227 OFFCURVE",
"838 1128 CURVE SMOOTH",
"839 1127 LINE",
"384 672 LINE",
"384 384 LINE",
"672 384 LINE",
"1127 839 LINE",
"1227 743 OFFCURVE",
"1386 744 OFFCURVE",
"1485 842 CURVE SMOOTH",
"1718 1075 LINE SMOOTH",
"1817 1175 OFFCURVE",
"1817 1336 OFFCURVE",
"1718 1436 CURVE SMOOTH"
);
},
{
closed = 1;
nodes = (
"1504 1264 LINE",
"1344 1104 LINE",
"1088 1360 LINE",
"1248 1520 LINE"
);
}
);
width = 2048;
}
);
unicode = F427;
},
{
glyphname = uniF428;
layers = (
{
layerId = "BB9D08C5-CC12-4AD2-9413-180A7C7733FD";
name = Regular;
paths = (
{
closed = 1;
nodes = (
"883 1280 OFFCURVE",
"768 1165 OFFCURVE",
"768 1024 CURVE SMOOTH",
"768 883 OFFCURVE",
"883 768 OFFCURVE",
"1024 768 CURVE SMOOTH",
"1165 768 OFFCURVE",
"1280 883 OFFCURVE",
"1280 1024 CURVE SMOOTH",
"1280 1165 OFFCURVE",
"1165 1280 OFFCURVE",
"1024 1280 CURVE SMOOTH"
);
}
);
width = 2048;
}
);
unicode = F428;
},
{
glyphname = uniF429;
layers = (
{
layerId = "BB9D08C5-CC12-4AD2-9413-180A7C7733FD";
name = Regular;
paths = (
{
closed = 1;
nodes = (
"1517 960 LINE",
"1024 1453 LINE",
"937 1367 LINE",
"1280 1024 LINE",
"384 1024 LINE",
"384 896 LINE",
"1280 896 LINE",
"937 553 LINE",
"1024 467 LINE"
);
}
);
width = 2048;
}
);
unicode = F429;
},
{
glyphname = uniF430;
layers = (
{
layerId = "BB9D08C5-CC12-4AD2-9413-180A7C7733FD";
name = Regular;
paths = (
{
closed = 1;
nodes = (
"531 960 LINE",
"1024 1453 LINE",
"1111 1367 LINE",
"768 1024 LINE",
"1664 1024 LINE",
"1664 896 LINE",
"768 896 LINE",
"1111 553 LINE",
"1024 467 LINE"
);
}
);
width = 2048;
}
);
unicode = F430;
},
{
glyphname = uniF431;
layers = (
{
layerId = "BB9D08C5-CC12-4AD2-9413-180A7C7733FD";
name = Regular;
paths = (
{
closed = 1;
nodes = (
"1536 1152 LINE",
"1408 1280 LINE",
"960 832 LINE",
"512 1280 LINE",
"384 1152 LINE",
"960 576 LINE"
);
}
);
width = 2048;
}
);
unicode = F431;
},
{
glyphname = uniF432;
layers = (
{
layerId = "BB9D08C5-CC12-4AD2-9413-180A7C7733FD";
name = Regular;
paths = (
{
closed = 1;
nodes = (
"1536 768 LINE",
"960 1344 LINE",
"384 768 LINE",
"512 640 LINE",
"960 1088 LINE",
"1408 640 LINE"
);
}
);
width = 2048;
}
);
unicode = F432;
},
{
glyphname = uniF433;
layers = (
{
layerId = "BB9D08C5-CC12-4AD2-9413-180A7C7733FD";
name = Regular;
paths = (
{
closed = 1;
nodes = (
"896 0 LINE",
"0 896 LINE",
"0 0 LINE"
);
}
);
width = 2048;
}
);
unicode = F433;
},
{
glyphname = uniF434;
layers = (
{
layerId = "BB9D08C5-CC12-4AD2-9413-180A7C7733FD";
name = Regular;
paths = (
{
closed = 1;
nodes = (
"2048 896 LINE",
"1152 0 LINE",
"2048 0 LINE"
);
}
);
width = 2048;
}
);
unicode = F434;
},
{
glyphname = uniF435;
layers = (
{
layerId = "BB9D08C5-CC12-4AD2-9413-180A7C7733FD";
name = Regular;
paths = (
{
closed = 1;
nodes = (
"1664 1408 LINE",
"384 1408 LINE",
"384 1280 LINE",
"1664 1280 LINE"
);
},
{
closed = 1;
nodes = (
"1024 1152 LINE",
"384 512 LINE",
"1664 512 LINE"
);
}
);
width = 2048;
}
);
unicode = F435;
},
{
glyphname = uniF436;
layers = (
{
layerId = "BB9D08C5-CC12-4AD2-9413-180A7C7733FD";
name = Regular;
paths = (
{
closed = 1;
nodes = (
"512 1536 LINE",
"512 1408 LINE",
"640 1408 LINE",
"640 1536 LINE"
);
},
{
closed = 1;
nodes = (
"768 1536 LINE",
"768 1408 LINE",
"896 1408 LINE",
"896 1536 LINE"
);
},
{
closed = 1;
nodes = (
"1024 1536 LINE",
"1024 1408 LINE",
"1152 1408 LINE",
"1152 1536 LINE"
);
},
{
closed = 1;
nodes = (
"1408 1536 LINE",
"1280 1536 LINE",
"1280 1408 LINE",
"1408 1408 LINE"
);
},
{
closed = 1;
nodes = (
"512 1280 LINE",
"512 1152 LINE",
"640 1152 LINE",
"640 1280 LINE"
);
},
{
closed = 1;
nodes = (
"768 1280 LINE",
"768 1152 LINE",
"896 1152 LINE",
"896 1280 LINE"
);
},
{
closed = 1;
nodes = (
"1024 1280 LINE",
"1024 1152 LINE",
"1152 1152 LINE",
"1152 1280 LINE"
);
},
{
closed = 1;
nodes = (
"1280 1280 LINE",
"1280 1152 LINE",
"1408 1152 LINE",
"1408 1280 LINE"
);
},
{
closed = 1;
nodes = (
"512 1024 LINE",
"512 896 LINE",
"640 896 LINE",
"640 1024 LINE"
);
},
{
closed = 1;
nodes = (
"768 1024 LINE",
"768 896 LINE",
"896 896 LINE",
"896 1024 LINE"
);
},
{
closed = 1;
nodes = (
"1024 1024 LINE",
"1024 896 LINE",
"1152 896 LINE",
"1152 1024 LINE"
);
},
{
closed = 1;
nodes = (
"1280 1024 LINE",
"1280 896 LINE",
"1408 896 LINE",
"1408 1024 LINE"
);
},
{
closed = 1;
nodes = (
"512 768 LINE",
"512 640 LINE",
"640 640 LINE",
"640 768 LINE"
);
},
{
closed = 1;
nodes = (
"768 768 LINE",
"768 640 LINE",
"896 640 LINE",
"896 768 LINE"
);
},
{
closed = 1;
nodes = (
"1024 768 LINE",
"1024 640 LINE",
"1152 640 LINE",
"1152 768 LINE"
);
},
{
closed = 1;
nodes = (
"1280 768 LINE",
"1280 640 LINE",
"1408 640 LINE",
"1408 768 LINE"
);
}
);
width = 2048;
}
);
unicode = F436;
},
{
glyphname = uniF437;
layers = (
{
layerId = "BB9D08C5-CC12-4AD2-9413-180A7C7733FD";
name = Regular;
paths = (
{
closed = 1;
nodes = (
"768 1792 LINE SMOOTH",
"627 1792 OFFCURVE",
"512 1677 OFFCURVE",
"512 1536 CURVE SMOOTH",
"512 512 LINE SMOOTH",
"512 371 OFFCURVE",
"627 256 OFFCURVE",
"768 256 CURVE SMOOTH",
"1280 256 LINE SMOOTH",
"1421 256 OFFCURVE",
"1536 371 OFFCURVE",
"1536 512 CURVE SMOOTH",
"1536 1536 LINE SMOOTH",
"1536 1677 OFFCURVE",
"1421 1792 OFFCURVE",
"1280 1792 CURVE SMOOTH"
);
},
{
closed = 1;
nodes = (
"1408 1536 LINE",
"1408 768 LINE",
"640 768 LINE",
"640 1536 LINE"
);
},
{
closed = 1;
nodes = (
"953 384 OFFCURVE",
"896 441 OFFCURVE",
"896 512 CURVE SMOOTH",
"896 583 OFFCURVE",
"953 640 OFFCURVE",
"1024 640 CURVE SMOOTH",
"1095 640 OFFCURVE",
"1152 583 OFFCURVE",
"1152 512 CURVE SMOOTH",
"1152 441 OFFCURVE",
"1095 384 OFFCURVE",
"1024 384 CURVE SMOOTH"
);
}
);
width = 2048;
}
);
unicode = F437;
},
{
glyphname = uniF438;
layers = (
{
layerId = "BB9D08C5-CC12-4AD2-9413-180A7C7733FD";
name = Regular;
paths = (
{
closed = 1;
nodes = (
"768 1792 LINE SMOOTH",
"627 1792 OFFCURVE",
"512 1677 OFFCURVE",
"512 1536 CURVE SMOOTH",
"512 1408 LINE",
"640 1408 LINE",
"640 1536 LINE",
"1408 1536 LINE",
"1408 768 LINE",
"640 768 LINE",
"640 896 LINE",
"512 896 LINE",
"512 512 LINE SMOOTH",
"512 371 OFFCURVE",
"627 256 OFFCURVE",
"768 256 CURVE SMOOTH",
"1280 256 LINE SMOOTH",
"1421 256 OFFCURVE",
"1536 371 OFFCURVE",
"1536 512 CURVE SMOOTH",
"1536 1536 LINE SMOOTH",
"1536 1677 OFFCURVE",
"1421 1792 OFFCURVE",
"1280 1792 CURVE SMOOTH"
);
},
{
closed = 1;
nodes = (
"768 1024 LINE",
"768 896 LINE",
"1152 1152 LINE",
"768 1408 LINE",
"768 1280 LINE",
"256 1280 LINE",
"256 1024 LINE"
);
},
{
closed = 1;
nodes = (
"953 384 OFFCURVE",
"896 441 OFFCURVE",
"896 512 CURVE SMOOTH",
"896 583 OFFCURVE",
"953 640 OFFCURVE",
"1024 640 CURVE SMOOTH",
"1095 640 OFFCURVE",
"1152 583 OFFCURVE",
"1152 512 CURVE SMOOTH",
"1152 441 OFFCURVE",
"1095 384 OFFCURVE",
"1024 384 CURVE SMOOTH"
);
}
);
width = 2048;
}
);
unicode = F438;
},
{
glyphname = uniF439;
layers = (
{
layerId = "BB9D08C5-CC12-4AD2-9413-180A7C7733FD";
name = Regular;
paths = (
{
closed = 1;
nodes = (
"896 1280 LINE",
"896 1664 LINE SMOOTH",
"896 1735 OFFCURVE",
"839 1792 OFFCURVE",
"768 1792 CURVE SMOOTH",
"697 1792 OFFCURVE",
"640 1735 OFFCURVE",
"640 1664 CURVE SMOOTH",
"640 1280 LINE"
);
},
{
closed = 1;
nodes = (
"1408 1280 LINE",
"1408 1664 LINE SMOOTH",
"1408 1735 OFFCURVE",
"1351 1792 OFFCURVE",
"1280 1792 CURVE SMOOTH",
"1209 1792 OFFCURVE",
"1152 1735 OFFCURVE",
"1152 1664 CURVE SMOOTH",
"1152 1280 LINE"
);
},
{
closed = 1;
nodes = (
"384 1152 LINE",
"384 842 OFFCURVE",
"604 584 OFFCURVE",
"896 525 CURVE",
"896 256 LINE",
"1152 256 LINE",
"1152 525 LINE",
"1444 584 OFFCURVE",
"1664 842 OFFCURVE",
"1664 1152 CURVE"
);
}
);
width = 2048;
}
);
unicode = F439;
},
{
glyphname = uniF440;
layers = (
{
layerId = "BB9D08C5-CC12-4AD2-9413-180A7C7733FD";
name = Regular;
paths = (
{
closed = 1;
nodes = (
"1641 1024 LINE",
"1655 1064 OFFCURVE",
"1664 1107 OFFCURVE",
"1664 1152 CURVE SMOOTH",
"1664 1364 OFFCURVE",
"1492 1536 OFFCURVE",
"1280 1536 CURVE SMOOTH",
"1125 1536 OFFCURVE",
"992.999 1444 OFFCURVE",
"932 1312 CURVE",
"874 1371 OFFCURVE",
"793 1408 OFFCURVE",
"704 1408 CURVE SMOOTH",
"527 1408 OFFCURVE",
"384 1265 OFFCURVE",
"384 1088 CURVE SMOOTH",
"384 1066 OFFCURVE",
"386 1045 OFFCURVE",
"390 1024 CURVE",
"384 1024 LINE SMOOTH",
"243 1024 OFFCURVE",
"128 909 OFFCURVE",
"128 768 CURVE SMOOTH",
"128 627 OFFCURVE",
"243 512 OFFCURVE",
"384 512 CURVE SMOOTH",
"768 512 LINE",
"768 768 LINE",
"1280 768 LINE",
"1280 512 LINE",
"1664 512 LINE SMOOTH",
"1805 512 OFFCURVE",
"1920 627 OFFCURVE",
"1920 768 CURVE SMOOTH",
"1920 909 OFFCURVE",
"1805 1024 OFFCURVE",
"1664 1024 CURVE SMOOTH"
);
},
{
closed = 1;
nodes = (
"1152 384 LINE",
"1152 640 LINE",
"896 640 LINE",
"896 384 LINE",
"640 384 LINE",
"1024 0 LINE",
"1408 384 LINE"
);
}
);
width = 2048;
}
);
unicode = F440;
},
{
glyphname = uniF441;
layers = (
{
layerId = "BB9D08C5-CC12-4AD2-9413-180A7C7733FD";
name = Regular;
paths = (
{
closed = 1;
nodes = (
"1641 1024 LINE",
"1655 1064 OFFCURVE",
"1664 1107 OFFCURVE",
"1664 1152 CURVE SMOOTH",
"1664 1364 OFFCURVE",
"1492 1536 OFFCURVE",
"1280 1536 CURVE SMOOTH",
"1125 1536 OFFCURVE",
"992.999 1444 OFFCURVE",
"932 1312 CURVE",
"874 1371 OFFCURVE",
"793 1408 OFFCURVE",
"704 1408 CURVE SMOOTH",
"527 1408 OFFCURVE",
"384 1265 OFFCURVE",
"384 1088 CURVE SMOOTH",
"384 1066 OFFCURVE",
"386 1045 OFFCURVE",
"390 1024 CURVE",
"384 1024 LINE SMOOTH",
"243 1024 OFFCURVE",
"128 909 OFFCURVE",
"128 768 CURVE SMOOTH",
"128 627 OFFCURVE",
"243 512 OFFCURVE",
"384 512 CURVE SMOOTH",
"896 512 LINE",
"896 768 LINE",
"640 768 LINE",
"1024 1152 LINE",
"1408 768 LINE",
"1152 768 LINE",
"1152 512 LINE",
"1664 512 LINE SMOOTH",
"1805 512 OFFCURVE",
"1920 627 OFFCURVE",
"1920 768 CURVE SMOOTH",
"1920 909 OFFCURVE",
"1805 1024 OFFCURVE",
"1664 1024 CURVE SMOOTH"
);
}
);
width = 2048;
}
);
unicode = F441;
},
{
glyphname = uniF442;
layers = (
{
layerId = "BB9D08C5-CC12-4AD2-9413-180A7C7733FD";
name = Regular;
paths = (
{
closed = 1;
nodes = (
"1664 1664 LINE",
"1024 1664 LINE",
"1024 1536 LINE",
"1446 1536 LINE",
"896 986.999 LINE",
"985.999 896 LINE",
"1536 1446 LINE",
"1536 1024 LINE",
"1664 1024 LINE"
);
},
{
closed = 1;
nodes = (
"1280 896 LINE",
"1280 640 LINE",
"640 640 LINE",
"640 1280 LINE",
"896 1280 LINE",
"1024 1408 LINE",
"512 1408 LINE",
"512 512 LINE",
"1408 512 LINE",
"1408 1024 LINE"
);
}
);
width = 2048;
}
);
unicode = F442;
},
{
glyphname = uniF443;
layers = (
{
layerId = "BB9D08C5-CC12-4AD2-9413-180A7C7733FD";
name = Regular;
paths = (
{
closed = 1;
nodes = (
"1536 1280 LINE",
"1152 1664 LINE",
"512 1664 LINE",
"512 384 LINE",
"1536 384 LINE"
);
},
{
closed = 1;
nodes = (
"1408 1152 LINE",
"1408 512 LINE",
"640 512 LINE",
"640 1536 LINE",
"1024 1536 LINE",
"1024 1152 LINE"
);
}
);
width = 2048;
}
);
unicode = F443;
},
{
glyphname = uniF444;
layers = (
{
layerId = "BB9D08C5-CC12-4AD2-9413-180A7C7733FD";
name = Regular;
paths = (
{
closed = 1;
nodes = (
"1664 640 LINE",
"1664 1792 LINE",
"640 1792 LINE SMOOTH",
"499 1792 OFFCURVE",
"384 1677 OFFCURVE",
"384 1536 CURVE SMOOTH",
"384 512 LINE SMOOTH",
"384 371 OFFCURVE",
"499 256 OFFCURVE",
"640 256 CURVE SMOOTH",
"1664 256 LINE",
"1664 384 LINE",
"1600 384 LINE SMOOTH",
"1529 384 OFFCURVE",
"1472 441 OFFCURVE",
"1472 512 CURVE SMOOTH",
"1472 583 OFFCURVE",
"1529 640 OFFCURVE",
"1600 640 CURVE SMOOTH"
);
},
{
closed = 1;
nodes = (
"640 384 LINE SMOOTH",
"569 384 OFFCURVE",
"512 441 OFFCURVE",
"512 512 CURVE SMOOTH",
"512 583 OFFCURVE",
"569 640 OFFCURVE",
"640 640 CURVE SMOOTH",
"1458 640 LINE",
"1427 606 OFFCURVE",
"1408 561 OFFCURVE",
"1408 512 CURVE SMOOTH",
"1408 463 OFFCURVE",
"1427 418 OFFCURVE",
"1458 384 CURVE"
);
}
);
width = 2048;
}
);
unicode = F444;
},
{
glyphname = uniF445;
layers = (
{
layerId = "BB9D08C5-CC12-4AD2-9413-180A7C7733FD";
name = Regular;
paths = (
{
closed = 1;
nodes = (
"1888 748 LINE",
"1656 949 LINE",
"1659 973.999 OFFCURVE",
"1664 997.999 OFFCURVE",
"1664 1024 CURVE SMOOTH",
"1664 1050 OFFCURVE",
"1659 1075 OFFCURVE",
"1656 1100 CURVE",
"1888 1301 LINE",
"1830 1440 LINE",
"1525 1418 LINE",
"1493 1458 OFFCURVE",
"1458 1494 OFFCURVE",
"1418 1525 CURVE",
"1440 1830 LINE",
"1300 1888 LINE",
"1099 1656 LINE",
"1074 1659 OFFCURVE",
"1050 1664 OFFCURVE",
"1024 1664 CURVE SMOOTH",
"997.999 1664 OFFCURVE",
"973.999 1659 OFFCURVE",
"949 1656 CURVE",
"748 1888 LINE",
"609 1830 LINE",
"630 1525 LINE",
"590 1494 OFFCURVE",
"554 1458 OFFCURVE",
"523 1418 CURVE",
"218 1439 LINE",
"160 1300 LINE",
"392 1099 LINE",
"389 1074 OFFCURVE",
"384 1050 OFFCURVE",
"384 1024 CURVE SMOOTH",
"384 997.999 OFFCURVE",
"389 972.999 OFFCURVE",
"392 948 CURVE",
"160 747 LINE",
"218 608 LINE",
"523 630 LINE",
"555 590 OFFCURVE",
"590 554 OFFCURVE",
"630 523 CURVE",
"609 218 LINE",
"748 160 LINE",
"949 392 LINE",
"973.999 389 OFFCURVE",
"997.999 384 OFFCURVE",
"1024 384 CURVE SMOOTH",
"1050 384 OFFCURVE",
"1075 389 OFFCURVE",
"1100 392 CURVE",
"1301 160 LINE",
"1440 218 LINE",
"1418 523 LINE",
"1458 555 OFFCURVE",
"1494 590 OFFCURVE",
"1525 630 CURVE",
"1830 608 LINE"
);
},
{
closed = 1;
nodes = (
"883 768 OFFCURVE",
"768 883 OFFCURVE",
"768 1024 CURVE SMOOTH",
"768 1165 OFFCURVE",
"883 1280 OFFCURVE",
"1024 1280 CURVE SMOOTH",
"1165 1280 OFFCURVE",
"1280 1165 OFFCURVE",
"1280 1024 CURVE SMOOTH",
"1280 883 OFFCURVE",
"1165 768 OFFCURVE",
"1024 768 CURVE SMOOTH"
);
}
);
width = 2048;
}
);
unicode = F445;
},
{
glyphname = uniF446;
layers = (
{
layerId = "BB9D08C5-CC12-4AD2-9413-180A7C7733FD";
name = Regular;
paths = (
{
closed = 1;
nodes = (
"600 1792 OFFCURVE",
"256 1448 OFFCURVE",
"256 1024 CURVE SMOOTH",
"256 600 OFFCURVE",
"600 256 OFFCURVE",
"1024 256 CURVE SMOOTH",
"1448 256 OFFCURVE",
"1792 600 OFFCURVE",
"1792 1024 CURVE SMOOTH",
"1792 1448 OFFCURVE",
"1448 1792 OFFCURVE",
"1024 1792 CURVE SMOOTH"
);
},
{
closed = 1;
nodes = (
"1536 929 OFFCURVE",
"1509 842 OFFCURVE",
"1464 765 CURVE",
"765 1464 LINE",
"842 1509 OFFCURVE",
"929 1536 OFFCURVE",
"1024 1536 CURVE SMOOTH",
"1307 1536 OFFCURVE",
"1536 1307 OFFCURVE",
"1536 1024 CURVE SMOOTH"
);
},
{
closed = 1;
nodes = (
"512 1119 OFFCURVE",
"540 1206 OFFCURVE",
"584 1283 CURVE",
"1283 584 LINE",
"1207 540 OFFCURVE",
"1119 512 OFFCURVE",
"1024 512 CURVE SMOOTH",
"741 512 OFFCURVE",
"512 741 OFFCURVE",
"512 1024 CURVE SMOOTH"
);
}
);
width = 2048;
}
);
unicode = F446;
},
{
glyphname = uniF447;
layers = (
{
layerId = "BB9D08C5-CC12-4AD2-9413-180A7C7733FD";
name = Regular;
paths = (
{
closed = 1;
nodes = (
"640 896 LINE",
"1536 896 LINE",
"1792 1536 LINE",
"640 1536 LINE",
"640 1792 LINE",
"256 1792 LINE",
"256 1664 LINE",
"512 1664 LINE",
"512 640 LINE",
"1536 640 LINE",
"1536 768 LINE",
"640 768 LINE"
);
},
{
closed = 1;
nodes = (
"569 512 OFFCURVE",
"512 455 OFFCURVE",
"512 384 CURVE SMOOTH",
"512 313 OFFCURVE",
"569 256 OFFCURVE",
"640 256 CURVE SMOOTH",
"711 256 OFFCURVE",
"768 313 OFFCURVE",
"768 384 CURVE SMOOTH",
"768 455 OFFCURVE",
"711 512 OFFCURVE",
"640 512 CURVE SMOOTH"
);
},
{
closed = 1;
nodes = (
"1337 512 OFFCURVE",
"1280 455 OFFCURVE",
"1280 384 CURVE SMOOTH",
"1280 313 OFFCURVE",
"1337 256 OFFCURVE",
"1408 256 CURVE SMOOTH",
"1479 256 OFFCURVE",
"1536 313 OFFCURVE",
"1536 384 CURVE SMOOTH",
"1536 455 OFFCURVE",
"1479 512 OFFCURVE",
"1408 512 CURVE SMOOTH"
);
}
);
width = 2048;
}
);
unicode = F447;
},
{
glyphname = uniF448;
layers = (
{
layerId = "BB9D08C5-CC12-4AD2-9413-180A7C7733FD";
name = Regular;
paths = (
{
closed = 1;
nodes = (
"896 1664 LINE",
"512 1664 LINE",
"512 384 LINE",
"896 384 LINE"
);
},
{
closed = 1;
nodes = (
"1536 1664 LINE",
"1152 1664 LINE",
"1152 384 LINE",
"1536 384 LINE"
);
}
);
width = 2048;
}
);
unicode = F448;
},
{
glyphname = uniF449;
layers = (
{
layerId = "BB9D08C5-CC12-4AD2-9413-180A7C7733FD";
name = Regular;
paths = (
{
closed = 1;
nodes = (
"1536 1536 LINE",
"512 1536 LINE",
"512 512 LINE",
"1536 512 LINE"
);
}
);
width = 2048;
}
);
unicode = F449;
},
{
glyphname = uniF450;
layers = (
{
layerId = "BB9D08C5-CC12-4AD2-9413-180A7C7733FD";
name = Regular;
paths = (
{
closed = 1;
nodes = (
"640 1664 LINE",
"256 1664 LINE",
"256 384 LINE",
"640 384 LINE"
);
},
{
closed = 1;
nodes = (
"1792 1664 LINE",
"768 1024 LINE",
"1792 384 LINE"
);
}
);
width = 2048;
}
);
unicode = F450;
},
{
glyphname = uniF451;
layers = (
{
layerId = "BB9D08C5-CC12-4AD2-9413-180A7C7733FD";
name = Regular;
paths = (
{
closed = 1;
nodes = (
"1280 1024 LINE",
"256 1664 LINE",
"256 384 LINE"
);
},
{
closed = 1;
nodes = (
"1792 1664 LINE",
"1408 1664 LINE",
"1408 384 LINE",
"1792 384 LINE"
);
}
);
width = 2048;
}
);
unicode = F451;
},
{
glyphname = uniF452;
layers = (
{
layerId = "BB9D08C5-CC12-4AD2-9413-180A7C7733FD";
name = Regular;
paths = (
{
closed = 1;
nodes = (
"1536 1024 LINE",
"512 1664 LINE",
"512 384 LINE"
);
}
);
width = 2048;
}
);
unicode = F452;
},
{
glyphname = uniF453;
layers = (
{
layerId = "BB9D08C5-CC12-4AD2-9413-180A7C7733FD";
name = Regular;
paths = (
{
closed = 1;
nodes = (
"512 2048 LINE SMOOTH",
"371 2048 OFFCURVE",
"256 1933 OFFCURVE",
"256 1792 CURVE SMOOTH",
"256 256 LINE SMOOTH",
"256 115 OFFCURVE",
"371 0 OFFCURVE",
"512 0 CURVE SMOOTH",
"1536 0 LINE SMOOTH",
"1677 0 OFFCURVE",
"1792 115 OFFCURVE",
"1792 256 CURVE SMOOTH",
"1792 1792 LINE SMOOTH",
"1792 1933 OFFCURVE",
"1677 2048 OFFCURVE",
"1536 2048 CURVE SMOOTH"
);
},
{
closed = 1;
nodes = (
"1536 1792 LINE",
"1536 512 LINE",
"512 512 LINE",
"512 1792 LINE"
);
},
{
closed = 1;
nodes = (
"953 128 OFFCURVE",
"896 185 OFFCURVE",
"896 256 CURVE SMOOTH",
"896 327 OFFCURVE",
"953 384 OFFCURVE",
"1024 384 CURVE SMOOTH",
"1095 384 OFFCURVE",
"1152 327 OFFCURVE",
"1152 256 CURVE SMOOTH",
"1152 185 OFFCURVE",
"1095 128 OFFCURVE",
"1024 128 CURVE SMOOTH"
);
}
);
width = 2048;
}
);
unicode = F453;
},
{
glyphname = uniF454;
layers = (
{
layerId = "BB9D08C5-CC12-4AD2-9413-180A7C7733FD";
name = Regular;
paths = (
{
closed = 1;
nodes = (
"512 2048 LINE SMOOTH",
"371 2048 OFFCURVE",
"256 1933 OFFCURVE",
"256 1792 CURVE SMOOTH",
"256 1408 LINE",
"512 1408 LINE",
"512 1792 LINE",
"1536 1792 LINE",
"1536 512 LINE",
"512 512 LINE",
"512 896 LINE",
"256 896 LINE",
"256 256 LINE SMOOTH",
"256 115 OFFCURVE",
"371 0 OFFCURVE",
"512 0 CURVE SMOOTH",
"1536 0 LINE SMOOTH",
"1677 0 OFFCURVE",
"1792 115 OFFCURVE",
"1792 256 CURVE SMOOTH",
"1792 1792 LINE SMOOTH",
"1792 1933 OFFCURVE",
"1677 2048 OFFCURVE",
"1536 2048 CURVE SMOOTH"
);
},
{
closed = 1;
nodes = (
"640 1024 LINE",
"640 896 LINE",
"1024 1152 LINE",
"640 1408 LINE",
"640 1280 LINE",
"128 1280 LINE",
"128 1024 LINE"
);
},
{
closed = 1;
nodes = (
"953 128 OFFCURVE",
"896 185 OFFCURVE",
"896 256 CURVE SMOOTH",
"896 327 OFFCURVE",
"953 384 OFFCURVE",
"1024 384 CURVE SMOOTH",
"1095 384 OFFCURVE",
"1152 327 OFFCURVE",
"1152 256 CURVE SMOOTH",
"1152 185 OFFCURVE",
"1095 128 OFFCURVE",
"1024 128 CURVE SMOOTH"
);
}
);
width = 2048;
}
);
unicode = F454;
},
{
glyphname = uniF455;
layers = (
{
layerId = "BB9D08C5-CC12-4AD2-9413-180A7C7733FD";
name = Regular;
paths = (
{
closed = 1;
nodes = (
"571 1792 OFFCURVE",
"256 1477 OFFCURVE",
"256 1088 CURVE SMOOTH",
"256 699 OFFCURVE",
"571 384 OFFCURVE",
"960 384 CURVE SMOOTH",
"1349 384 OFFCURVE",
"1664 699 OFFCURVE",
"1664 1088 CURVE SMOOTH",
"1664 1477 OFFCURVE",
"1349 1792 OFFCURVE",
"960 1792 CURVE SMOOTH"
);
},
{
closed = 1;
nodes = (
"642 512 OFFCURVE",
"384 770 OFFCURVE",
"384 1088 CURVE SMOOTH",
"384 1406 OFFCURVE",
"642 1664 OFFCURVE",
"960 1664 CURVE SMOOTH",
"1278 1664 OFFCURVE",
"1536 1406 OFFCURVE",
"1536 1088 CURVE SMOOTH",
"1536 770 OFFCURVE",
"1278 512 OFFCURVE",
"960 512 CURVE SMOOTH"
);
},
{
closed = 1;
nodes = (
"907 1440 OFFCURVE",
"864 1397 OFFCURVE",
"864 1344 CURVE SMOOTH",
"864 1291 OFFCURVE",
"907 1248 OFFCURVE",
"960 1248 CURVE SMOOTH",
"1013 1248 OFFCURVE",
"1056 1291 OFFCURVE",
"1056 1344 CURVE SMOOTH",
"1056 1397 OFFCURVE",
"1013 1440 OFFCURVE",
"960 1440 CURVE SMOOTH"
);
},
{
closed = 1;
nodes = (
"896 1184 LINE",
"896 736 LINE",
"1024 736 LINE",
"1024 1184 LINE"
);
}
);
width = 2048;
}
);
unicode = F455;
},
{
glyphname = uniF456;
layers = (
{
layerId = "BB9D08C5-CC12-4AD2-9413-180A7C7733FD";
name = Regular;
paths = (
{
closed = 1;
nodes = (
"571 1792 OFFCURVE",
"256 1477 OFFCURVE",
"256 1088 CURVE SMOOTH",
"256 699 OFFCURVE",
"571 384 OFFCURVE",
"960 384 CURVE SMOOTH",
"1349 384 OFFCURVE",
"1664 699 OFFCURVE",
"1664 1088 CURVE SMOOTH",
"1664 1477 OFFCURVE",
"1349 1792 OFFCURVE",
"960 1792 CURVE SMOOTH"
);
},
{
closed = 1;
nodes = (
"642 512 OFFCURVE",
"384 770 OFFCURVE",
"384 1088 CURVE SMOOTH",
"384 1406 OFFCURVE",
"642 1664 OFFCURVE",
"960 1664 CURVE SMOOTH",
"1278 1664 OFFCURVE",
"1536 1406 OFFCURVE",
"1536 1088 CURVE SMOOTH",
"1536 770 OFFCURVE",
"1278 512 OFFCURVE",
"960 512 CURVE SMOOTH"
);
},
{
closed = 1;
nodes = (
"888 1024 LINE",
"1032 1024 LINE",
"1055 1438 LINE",
"866 1438 LINE"
);
},
{
closed = 1;
nodes = (
"907 928 OFFCURVE",
"864 885 OFFCURVE",
"864 832 CURVE SMOOTH",
"864 779 OFFCURVE",
"907 736 OFFCURVE",
"960 736 CURVE SMOOTH",
"1013 736 OFFCURVE",
"1056 779 OFFCURVE",
"1056 832 CURVE SMOOTH",
"1056 885 OFFCURVE",
"1013 928 OFFCURVE",
"960 928 CURVE SMOOTH"
);
}
);
width = 2048;
}
);
unicode = F456;
},
{
glyphname = uniF457;
layers = (
{
layerId = "BB9D08C5-CC12-4AD2-9413-180A7C7733FD";
name = Regular;
paths = (
{
closed = 1;
nodes = (
"571 1792 OFFCURVE",
"256 1477 OFFCURVE",
"256 1088 CURVE SMOOTH",
"256 699 OFFCURVE",
"571 384 OFFCURVE",
"960 384 CURVE SMOOTH",
"1349 384 OFFCURVE",
"1664 699 OFFCURVE",
"1664 1088 CURVE SMOOTH",
"1664 1477 OFFCURVE",
"1349 1792 OFFCURVE",
"960 1792 CURVE SMOOTH"
);
},
{
closed = 1;
nodes = (
"642 512 OFFCURVE",
"384 770 OFFCURVE",
"384 1088 CURVE SMOOTH",
"384 1406 OFFCURVE",
"642 1664 OFFCURVE",
"960 1664 CURVE SMOOTH",
"1278 1664 OFFCURVE",
"1536 1406 OFFCURVE",
"1536 1088 CURVE SMOOTH",
"1536 770 OFFCURVE",
"1278 512 OFFCURVE",
"960 512 CURVE SMOOTH"
);
},
{
closed = 1;
nodes = (
"1105 1433 OFFCURVE",
"1054 1447 OFFCURVE",
"988.999 1447 CURVE SMOOTH",
"910 1447 OFFCURVE",
"834 1426 OFFCURVE",
"761 1385 CURVE",
"822 1266 LINE",
"881 1297 OFFCURVE",
"932 1313 OFFCURVE",
"975.999 1313 CURVE SMOOTH",
"993.999 1313 OFFCURVE",
"1009 1309 OFFCURVE",
"1020 1302 CURVE SMOOTH",
"1031 1295 OFFCURVE",
"1036 1285 OFFCURVE",
"1036 1273 CURVE SMOOTH",
"1036 1258 OFFCURVE",
"1031 1244 OFFCURVE",
"1021 1232 CURVE",
"1010 1220 OFFCURVE",
"992.999 1206 OFFCURVE",
"969.999 1192 CURVE SMOOTH",
"940 1173 OFFCURVE",
"919 1154 OFFCURVE",
"908 1134 CURVE",
"896 1114 OFFCURVE",
"890 1090 OFFCURVE",
"890 1062 CURVE SMOOTH",
"890 1024 LINE",
"1025 1024 LINE",
"1025 1046 LINE SMOOTH",
"1025 1059 OFFCURVE",
"1028 1070 OFFCURVE",
"1036 1079 CURVE SMOOTH",
"1044 1088 OFFCURVE",
"1063 1103 OFFCURVE",
"1094 1122 CURVE",
"1130 1146 OFFCURVE",
"1156 1170 OFFCURVE",
"1173 1196 CURVE SMOOTH",
"1189 1222 OFFCURVE",
"1197 1252 OFFCURVE",
"1197 1287 CURVE SMOOTH",
"1197 1337 OFFCURVE",
"1179 1376 OFFCURVE",
"1142 1404 CURVE SMOOTH"
);
},
{
closed = 1;
nodes = (
"907 928 OFFCURVE",
"864 885 OFFCURVE",
"864 832 CURVE SMOOTH",
"864 779 OFFCURVE",
"907 736 OFFCURVE",
"960 736 CURVE SMOOTH",
"1013 736 OFFCURVE",
"1056 779 OFFCURVE",
"1056 832 CURVE SMOOTH",
"1056 885 OFFCURVE",
"1013 928 OFFCURVE",
"960 928 CURVE SMOOTH"
);
}
);
width = 2048;
}
);
unicode = F457;
},
{
glyphname = uniF458;
layers = (
{
layerId = "BB9D08C5-CC12-4AD2-9413-180A7C7733FD";
name = Regular;
paths = (
{
closed = 1;
nodes = (
"896 384 LINE",
"1920 1024 LINE",
"896 1664 LINE",
"896 1184 LINE",
"128 1664 LINE",
"128 384 LINE",
"896 864 LINE"
);
}
);
width = 2048;
}
);
unicode = F458;
},
{
glyphname = uniF459;
layers = (
{
layerId = "BB9D08C5-CC12-4AD2-9413-180A7C7733FD";
name = Regular;
paths = (
{
closed = 1;
nodes = (
"1152 384 LINE",
"128 1024 LINE",
"1152 1664 LINE",
"1152 1184 LINE",
"1920 1664 LINE",
"1920 384 LINE",
"1152 864 LINE"
);
}
);
width = 2048;
}
);
unicode = F459;
},
{
glyphname = uniF460;
layers = (
{
layerId = "BB9D08C5-CC12-4AD2-9413-180A7C7733FD";
name = Regular;
paths = (
{
closed = 1;
nodes = (
"896 1280 LINE",
"810 1536 LINE",
"470 1536 LINE",
"384 1280 LINE",
"256 1280 LINE",
"512 512 LINE",
"640 512 LINE"
);
},
{
closed = 1;
nodes = (
"1792 1280 LINE",
"1664 1280 LINE",
"1578 1536 LINE",
"1238 1536 LINE",
"1152 1280 LINE",
"1024 1280 LINE",
"768 512 LINE",
"1536 512 LINE"
);
},
{
closed = 1;
nodes = (
"747 1280 LINE",
"533 1280 LINE",
"576 1408 LINE",
"704 1408 LINE"
);
},
{
closed = 1;
nodes = (
"1515 1280 LINE",
"1301 1280 LINE",
"1344 1408 LINE",
"1472 1408 LINE"
);
}
);
width = 2048;
}
);
unicode = F460;
},
{
glyphname = uniF461;
layers = (
{
layerId = "BB9D08C5-CC12-4AD2-9413-180A7C7733FD";
name = Regular;
paths = (
{
closed = 1;
nodes = (
"1024 384 LINE",
"376 996.999 LINE SMOOTH",
"227 1138 OFFCURVE",
"215 1380 OFFCURVE",
"349 1537 CURVE SMOOTH",
"484 1694 OFFCURVE",
"714 1707 OFFCURVE",
"863 1566 CURVE SMOOTH",
"1024 1413 LINE",
"1185 1566 LINE SMOOTH",
"1334 1707 OFFCURVE",
"1564 1694 OFFCURVE",
"1699 1537 CURVE SMOOTH",
"1833 1380 OFFCURVE",
"1821 1138 OFFCURVE",
"1672 996.999 CURVE SMOOTH"
);
}
);
width = 2048;
}
);
unicode = F461;
},
{
glyphname = uniF462;
layers = (
{
layerId = "BB9D08C5-CC12-4AD2-9413-180A7C7733FD";
name = Regular;
paths = (
{
closed = 1;
nodes = (
"1276 1505 LINE",
"1020 481 LINE",
"772 543 LINE",
"1028 1567 LINE"
);
},
{
closed = 1;
nodes = (
"619 711 LINE",
"406 569 LINE",
"102 1024 LINE",
"406 1479 LINE",
"619 1337 LINE",
"410 1024 LINE"
);
},
{
closed = 1;
nodes = (
"1946 1024 LINE",
"1643 569 LINE",
"1430 711 LINE",
"1638 1024 LINE",
"1430 1337 LINE",
"1643 1479 LINE"
);
}
);
width = 2048;
}
);
unicode = F462;
},
{
glyphname = uniF463;
layers = (
{
layerId = "BB9D08C5-CC12-4AD2-9413-180A7C7733FD";
name = Regular;
paths = (
{
closed = 1;
nodes = (
"768 1024 LINE",
"1536 1408 LINE",
"1536 1536 LINE",
"0 1536 LINE",
"0 1408 LINE"
);
},
{
closed = 1;
nodes = (
"1024 512 LINE",
"1024 960 LINE",
"768 832 LINE",
"0 1216 LINE",
"0 512 LINE"
);
},
{
closed = 1;
nodes = (
"1280 1152 LINE SMOOTH",
"1209 1152 OFFCURVE",
"1152 1095 OFFCURVE",
"1152 1024 CURVE SMOOTH",
"1152 384 LINE SMOOTH",
"1152 313 OFFCURVE",
"1209 256 OFFCURVE",
"1280 256 CURVE SMOOTH",
"1920 256 LINE SMOOTH",
"1991 256 OFFCURVE",
"2048 313 OFFCURVE",
"2048 384 CURVE SMOOTH",
"2048 1024 LINE SMOOTH",
"2048 1095 OFFCURVE",
"1991 1152 OFFCURVE",
"1920 1152 CURVE SMOOTH"
);
},
{
closed = 1;
nodes = (
"1920 768 LINE",
"1920 640 LINE",
"1664 640 LINE",
"1664 384 LINE",
"1536 384 LINE",
"1536 640 LINE",
"1280 640 LINE",
"1280 768 LINE",
"1536 768 LINE",
"1536 1024 LINE",
"1664 1024 LINE",
"1664 768 LINE"
);
}
);
width = 2048;
}
);
unicode = F463;
},
{
glyphname = uniF464;
layers = (
{
layerId = "BB9D08C5-CC12-4AD2-9413-180A7C7733FD";
name = Regular;
paths = (
{
closed = 1;
nodes = (
"768 1024 LINE",
"1536 1408 LINE",
"1536 1536 LINE",
"0 1536 LINE",
"0 1408 LINE"
);
},
{
closed = 1;
nodes = (
"1024 512 LINE",
"1024 960 LINE",
"768 832 LINE",
"0 1216 LINE",
"0 512 LINE"
);
},
{
closed = 1;
nodes = (
"1280 1152 LINE SMOOTH",
"1209 1152 OFFCURVE",
"1152 1095 OFFCURVE",
"1152 1024 CURVE SMOOTH",
"1152 384 LINE SMOOTH",
"1152 313 OFFCURVE",
"1209 256 OFFCURVE",
"1280 256 CURVE SMOOTH",
"1920 256 LINE SMOOTH",
"1991 256 OFFCURVE",
"2048 313 OFFCURVE",
"2048 384 CURVE SMOOTH",
"2048 1024 LINE SMOOTH",
"2048 1095 OFFCURVE",
"1991 1152 OFFCURVE",
"1920 1152 CURVE SMOOTH"
);
},
{
closed = 1;
nodes = (
"1920 768 LINE",
"1920 640 LINE",
"1280 640 LINE",
"1280 768 LINE"
);
}
);
width = 2048;
}
);
unicode = F464;
},
{
glyphname = uniF465;
layers = (
{
layerId = "BB9D08C5-CC12-4AD2-9413-180A7C7733FD";
name = Regular;
paths = (
{
closed = 1;
nodes = (
"768 1024 LINE",
"1536 1408 LINE",
"1536 1536 LINE",
"0 1536 LINE",
"0 1408 LINE"
);
},
{
closed = 1;
nodes = (
"768 832 LINE",
"0 1216 LINE",
"0 512 LINE",
"1024 512 LINE",
"1024 960 LINE"
);
},
{
closed = 1;
nodes = (
"1280 1152 LINE SMOOTH",
"1209 1152 OFFCURVE",
"1152 1095 OFFCURVE",
"1152 1024 CURVE SMOOTH",
"1152 384 LINE SMOOTH",
"1152 313 OFFCURVE",
"1209 256 OFFCURVE",
"1280 256 CURVE SMOOTH",
"1920 256 LINE SMOOTH",
"1991 256 OFFCURVE",
"2048 313 OFFCURVE",
"2048 384 CURVE SMOOTH",
"2048 1024 LINE SMOOTH",
"2048 1095 OFFCURVE",
"1991 1152 OFFCURVE",
"1920 1152 CURVE SMOOTH"
);
},
{
closed = 1;
nodes = (
"1984 837 LINE",
"1532 384 LINE",
"1260 656 LINE",
"1351 746 LINE",
"1532 565 LINE",
"1894 927 LINE"
);
}
);
width = 2048;
}
);
unicode = F465;
},
{
glyphname = uniF466;
layers = (
{
layerId = "BB9D08C5-CC12-4AD2-9413-180A7C7733FD";
name = Regular;
paths = (
{
closed = 1;
nodes = (
"320 1024 LINE",
"640 1344 LINE",
"640 1664 LINE",
"0 1024 LINE",
"640 384 LINE",
"640 704 LINE"
);
},
{
closed = 1;
nodes = (
"1152 1280 LINE",
"1152 1664 LINE",
"512 1024 LINE",
"1152 384 LINE",
"1152 768 LINE",
"1408 768 LINE SMOOTH",
"1539 768 OFFCURVE",
"1670 718 OFFCURVE",
"1770 618 CURVE SMOOTH",
"1920 468 LINE",
"1920 768 LINE SMOOTH",
"1920 1051 OFFCURVE",
"1691 1280 OFFCURVE",
"1408 1280 CURVE SMOOTH"
);
}
);
width = 2048;
}
);
unicode = F466;
},
{
glyphname = uniF467;
layers = (
{
layerId = "BB9D08C5-CC12-4AD2-9413-180A7C7733FD";
name = Regular;
paths = (
{
closed = 1;
nodes = (
"1024 1280 LINE",
"1024 1664 LINE",
"384 1024 LINE",
"1024 384 LINE",
"1024 768 LINE",
"1280 768 LINE SMOOTH",
"1411 768 OFFCURVE",
"1542 718 OFFCURVE",
"1642 618 CURVE SMOOTH",
"1792 468 LINE",
"1792 768 LINE SMOOTH",
"1792 1051 OFFCURVE",
"1563 1280 OFFCURVE",
"1280 1280 CURVE SMOOTH"
);
}
);
width = 2048;
}
);
unicode = F467;
},
{
glyphname = uniF468;
layers = (
{
layerId = "BB9D08C5-CC12-4AD2-9413-180A7C7733FD";
name = Regular;
paths = (
{
closed = 1;
nodes = (
"256 1792 LINE",
"256 256 LINE",
"512 256 LINE",
"512 1792 LINE"
);
},
{
closed = 1;
nodes = (
"1792 1664 LINE",
"1536 1664 LINE SMOOTH",
"1280 1664 OFFCURVE",
"1280 1792 OFFCURVE",
"1024 1792 CURVE SMOOTH",
"768 1792 OFFCURVE",
"768 1664 OFFCURVE",
"640 1664 CURVE",
"640 896 LINE",
"768 896 OFFCURVE",
"768 1024 OFFCURVE",
"1024 1024 CURVE SMOOTH",
"1280 1024 OFFCURVE",
"1280 896 OFFCURVE",
"1536 896 CURVE SMOOTH",
"1792 896 LINE"
);
}
);
width = 2048;
}
);
unicode = F468;
},
{
glyphname = uniF469;
layers = (
{
layerId = "BB9D08C5-CC12-4AD2-9413-180A7C7733FD";
name = Regular;
paths = (
{
closed = 1;
nodes = (
"1408 1664 LINE",
"1408 1408 LINE",
"640 1408 LINE",
"640 1664 LINE"
);
},
{
closed = 1;
nodes = (
"1792 1280 LINE",
"256 1280 LINE",
"256 512 LINE",
"512 512 LINE",
"512 896 LINE",
"1536 896 LINE",
"1536 512 LINE",
"1792 512 LINE"
);
},
{
closed = 1;
nodes = (
"1633 256 LINE",
"1521 369 LINE SMOOTH",
"1446 444 OFFCURVE",
"1408 542 OFFCURVE",
"1408 640 CURVE SMOOTH",
"1408 768 LINE",
"640 768 LINE",
"640 640 LINE SMOOTH",
"640 542 OFFCURVE",
"678 444 OFFCURVE",
"753 369 CURVE SMOOTH",
"865 256 LINE"
);
}
);
width = 2048;
}
);
unicode = F469;
},
{
glyphname = uniF470;
layers = (
{
layerId = "BB9D08C5-CC12-4AD2-9413-180A7C7733FD";
name = Regular;
paths = (
{
closed = 1;
nodes = (
"1536 1280 LINE SMOOTH",
"1536 1563 OFFCURVE",
"1307 1792 OFFCURVE",
"1024 1792 CURVE SMOOTH",
"741 1792 OFFCURVE",
"512 1563 OFFCURVE",
"512 1280 CURVE SMOOTH",
"512 1152 LINE",
"441 1152 OFFCURVE",
"384 1095 OFFCURVE",
"384 1024 CURVE SMOOTH",
"384 384 LINE SMOOTH",
"384 313 OFFCURVE",
"441 256 OFFCURVE",
"512 256 CURVE SMOOTH",
"1536 256 LINE SMOOTH",
"1607 256 OFFCURVE",
"1664 313 OFFCURVE",
"1664 384 CURVE SMOOTH",
"1664 1024 LINE SMOOTH",
"1664 1095 OFFCURVE",
"1607 1152 OFFCURVE",
"1536 1152 CURVE"
);
},
{
closed = 1;
nodes = (
"1280 1152 LINE",
"768 1152 LINE",
"768 1280 LINE SMOOTH",
"768 1421 OFFCURVE",
"883 1536 OFFCURVE",
"1024 1536 CURVE SMOOTH",
"1165 1536 OFFCURVE",
"1280 1421 OFFCURVE",
"1280 1280 CURVE SMOOTH"
);
}
);
width = 2048;
}
);
unicode = F470;
},
{
glyphname = uniF471;
layers = (
{
layerId = "BB9D08C5-CC12-4AD2-9413-180A7C7733FD";
name = Regular;
paths = (
{
closed = 1;
nodes = (
"1258 1165 OFFCURVE",
"1280 1220 OFFCURVE",
"1280 1280 CURVE SMOOTH",
"1280 1421 OFFCURVE",
"1165 1536 OFFCURVE",
"1024 1536 CURVE SMOOTH",
"512 1536 LINE",
"512 512 LINE",
"1088 512 LINE SMOOTH",
"1265 512 OFFCURVE",
"1408 655 OFFCURVE",
"1408 832 CURVE SMOOTH",
"1408 960 OFFCURVE",
"1332 1070 OFFCURVE",
"1223 1121 CURVE"
);
},
{
closed = 1;
nodes = (
"768 1152 LINE",
"768 1408 LINE",
"896 1408 LINE SMOOTH",
"967 1408 OFFCURVE",
"1024 1351 OFFCURVE",
"1024 1280 CURVE SMOOTH",
"1024 1209 OFFCURVE",
"967 1152 OFFCURVE",
"896 1152 CURVE SMOOTH"
);
},
{
closed = 1;
nodes = (
"768 640 LINE",
"768 1024 LINE",
"960 1024 LINE SMOOTH",
"1066 1024 OFFCURVE",
"1152 938 OFFCURVE",
"1152 832 CURVE SMOOTH",
"1152 726 OFFCURVE",
"1066 640 OFFCURVE",
"960 640 CURVE SMOOTH"
);
}
);
width = 2048;
}
);
unicode = F471;
},
{
glyphname = uniF472;
layers = (
{
layerId = "BB9D08C5-CC12-4AD2-9413-180A7C7733FD";
name = Regular;
paths = (
{
closed = 1;
nodes = (
"1240 1408 LINE",
"1368 1408 LINE",
"1408 1536 LINE",
"960 1536 LINE",
"920 1408 LINE",
"1048 1408 LINE",
"808 640 LINE",
"680 640 LINE",
"640 512 LINE",
"1088 512 LINE",
"1128 640 LINE",
"999.999 640 LINE"
);
}
);
width = 2048;
}
);
unicode = F472;
},
{
glyphname = uniF473;
layers = (
{
layerId = "BB9D08C5-CC12-4AD2-9413-180A7C7733FD";
name = Regular;
paths = (
{
closed = 1;
nodes = (
"1664 1664 LINE",
"384 1664 LINE",
"384 384 LINE",
"1664 384 LINE"
);
},
{
closed = 1;
nodes = (
"839 1408 OFFCURVE",
"896 1351 OFFCURVE",
"896 1280 CURVE SMOOTH",
"896 1209 OFFCURVE",
"839 1152 OFFCURVE",
"768 1152 CURVE SMOOTH",
"697 1152 OFFCURVE",
"640 1209 OFFCURVE",
"640 1280 CURVE SMOOTH",
"640 1351 OFFCURVE",
"697 1408 OFFCURVE",
"768 1408 CURVE SMOOTH"
);
},
{
closed = 1;
nodes = (
"1536 1088 LINE",
"1536 512 LINE",
"512 512 LINE",
"768 896 LINE",
"960 608 LINE",
"1408 1280 LINE"
);
}
);
width = 2048;
}
);
unicode = F473;
},
{
glyphname = uniF500;
layers = (
{
layerId = "BB9D08C5-CC12-4AD2-9413-180A7C7733FD";
name = Regular;
paths = (
{
closed = 1;
nodes = (
"128 0 LINE",
"2048 0 LINE",
"1088 960 LINE"
);
}
);
width = 2048;
}
);
unicode = F500;
},
{
glyphname = uniF501;
layers = (
{
layerId = "BB9D08C5-CC12-4AD2-9413-180A7C7733FD";
name = Regular;
paths = (
{
closed = 1;
nodes = (
"0 128 LINE",
"0 2048 LINE",
"960 1088 LINE"
);
}
);
width = 2048;
}
);
unicode = F501;
},
{
glyphname = uniF502;
layers = (
{
layerId = "BB9D08C5-CC12-4AD2-9413-180A7C7733FD";
name = Regular;
paths = (
{
closed = 1;
nodes = (
"128 2048 LINE",
"2048 2048 LINE",
"1088 1088 LINE"
);
}
);
width = 2048;
}
);
unicode = F502;
},
{
glyphname = uniF503;
layers = (
{
layerId = "BB9D08C5-CC12-4AD2-9413-180A7C7733FD";
name = Regular;
paths = (
{
closed = 1;
nodes = (
"2048 128 LINE",
"2048 2048 LINE",
"1088 1088 LINE"
);
}
